<?xml version="1.0" encoding="utf-8"?>
<!-- Generator: Adobe Illustrator 27.8.1, SVG Export Plug-In . SVG Version: 6.00 Build 0)  -->
<svg version="1.1" id="Calque_1" xmlns="http://www.w3.org/2000/svg" xmlns:xlink="http://www.w3.org/1999/xlink" x="0px" y="0px"
	 viewBox="0 0 764.1 640" style="enable-background:new 0 0 764.1 640;" xml:space="preserve">
<style type="text/css">
	.st0{fill:#8C96A5;}
	.st1{fill:#F2F2F2;}
	.st2{fill:#DADDE1;}
	.st3{fill:#262E36;}
	.st4{fill:#475564;}
	.st5{fill:#FFFFFF;}
	.st6{fill:#F27F0C;}
	.st7{fill:#CB6E0E;}
	.st8{fill:#F0C6B4;}
	.st9{fill:#9FE7F5;}
</style>
<g id="design">
	<g id="central">
		<g>
			<polygon class="st0" points="741.2,392.1 279.8,450.6 279.8,509.8 741.6,441.2 741.6,392.1 			"/>
		</g>
		<g>
			<polygon class="st1" points="705.7,61.5 705.7,280 485.3,302.4 484.8,70.4 484.9,70.4 484.8,69.8 424.6,76.2 302.7,76.2 
				302.7,448.4 304,448.2 740.9,392.8 740.9,392.8 755.3,390.9 755.5,390.9 755.5,60.8 			"/>
		</g>
		<g>
			<polygon class="st1" points="451.6,122.9 303.1,122.9 303.1,321.3 451.6,306.2 			"/>
			<path class="st1" d="M302.7,321.7V122.5H452v184h-0.3L302.7,321.7z M303.4,123.2v197.7l147.8-15.1V123.2H303.4z"/>
		</g>
		<g>
			<polygon class="st0" points="485.2,51.7 424.3,60.9 424.3,309.3 481.8,303.5 485.6,303.1 485.6,51.7 			"/>
		</g>
		<g>
			<polygon class="st2" points="382,160.1 382,122.5 302.7,122.5 302.7,321.7 382,313.6 382,295.8 377.7,302.8 335.3,305.9 
				318.2,284.7 318.2,160.1 			"/>
		</g>
		<g>
			<polygon class="st3" points="714.8,170 714.8,251.4 736.7,249.7 736.7,170 			"/>
		</g>
		<g>
			<circle class="st1" cx="725.8" cy="199.1" r="6.9"/>
		</g>
		<g>
			<path class="st2" d="M761.5,62c-1.5-1.1-3.2-1.3-4.5-1.3c-1.1,0-1.8,0.2-1.8,0.2l-0.3,0.1v330l0.4-0.1c4.2-0.6,6.4-2,7.6-3.3
				s1.2-2.5,1.2-2.5l0,0v-317C764,64.9,762.9,63,761.5,62z"/>
		</g>
		<g>
			<rect x="302.7" y="122.5" class="st2" width="79.3" height="19.1"/>
		</g>
		<g>
			<polygon class="st0" points="318.2,284.7 318.2,159.3 309.8,161.3 309.8,284.5 326.3,306.6 335.9,306.6 			"/>
		</g>
		<g>
			<polygon class="st4" points="317.5,159.4 317.5,285 335,306.6 378.1,303.5 390,284 390,159.4 			"/>
		</g>
		<g>
			<polygon class="st3" points="485.6,51.7 485.2,51.7 424.6,60.8 302.7,60.8 302.7,76.9 424.3,76.9 424.3,77 424.6,76.9 425,76.9 
				425,76.9 451.3,74.1 451.3,306.6 468.8,304.8 468.8,72.2 485.6,70.4 			"/>
		</g>
		<g>
			<polygon class="st2" points="485.3,52.1 485.3,302.8 706.1,280.3 706.1,58.1 			"/>
			<path class="st2" d="M484.9,303.2V51.7h0.4l221.2,6.1v222.8h-0.3L484.9,303.2z M485.6,52.4v250L705.7,280V58.5L485.6,52.4z"/>
		</g>
		<g>
			<path class="st0" d="M651.2,254.5l-132.5,11.1c-7.9,0.7-14.7-5.6-14.7-13.5V144.6c0-7.5,6.1-13.5,13.5-13.5H650
				c7.5,0,13.5,6.1,13.5,13.5V241C663.6,248,658.2,253.9,651.2,254.5z"/>
			<path class="st0" d="M517.6,266c-3.5,0-6.8-1.3-9.4-3.7c-2.9-2.6-4.5-6.3-4.5-10.2V144.6c0-7.7,6.2-13.9,13.9-13.9h132.5
				c7.7,0,13.9,6.2,13.9,13.9V241c0,7.2-5.6,13.2-12.7,13.8l-132.5,11.1C518.4,266,518,266,517.6,266z M517.6,131.4
				c-7.3,0-13.2,5.9-13.2,13.2v107.5c0,3.7,1.5,7.2,4.3,9.7c2.7,2.5,6.4,3.7,10,3.4l132.5-11.1c6.8-0.6,12.1-6.3,12.1-13.1v-96.4
				c0-7.3-5.9-13.2-13.2-13.2H517.6z"/>
		</g>
		<g>
			<g>
				<path class="st0" d="M328.8,238.3c0-16.3,11.7-29.5,26.3-30.3v-0.7c-0.5,0-0.9-0.1-1.4-0.1c-17.1,0-31,13.9-31,31s13.9,31,31,31
					c0.5,0,1-0.1,1.4-0.1v-0.7C340.5,267.8,328.8,254.6,328.8,238.3z"/>
			</g>
			<g>
				<path class="st4" d="M376.5,216.4c-5.1-5.6-12.2-9.1-20-9.1s-14.9,3.5-20,9.1s-8.3,13.4-8.3,21.9c0,8.6,3.2,16.3,8.3,21.9
					s12.2,9.1,20,9.1s14.9-3.5,20-9.1s8.3-13.4,8.3-21.9S381.6,222,376.5,216.4z"/>
			</g>
		</g>
	</g>
	<g id="tour">
		<g>
			<g>
				<path class="st3" d="M90.4,499.2c-4.3-0.8-6.9-2.2-8.5-3.3c-0.8-0.6-1.3-1.1-1.7-1.4l-0.4-0.4l-0.1-0.1l0,0v-0.1L9.5,425.3
					l-0.4-0.1l-0.2,0.3V470l0.1,0.2l81.1,88.6l0.4,0.1l0.2-0.3v-59.1L90.4,499.2z"/>
			</g>
			<g>
				<path class="st0" d="M280.5,474.3l-175.6,25.1c-2.6,0.3-4.9,0.4-7,0.4c-2.4,0-4.5-0.2-6.3-0.5l-1.1-0.2l-0.4-0.1v59.3
					c0,0.3,0.3,0.6,0.6,0.5l190-31.8L280.5,474.3z"/>
			</g>
			<g>
				<path class="st2" d="M304,20.1c-2.4-1.5-5.1-1.7-6.5-1.7c-0.6,0-0.9,0-0.9,0h-0.3v0.3l-0.2,454.1h0.3c2.8,0,5-0.7,6.7-1.7
					c3.4-2,5.3-5.8,5.3-9.7v-432C308.4,24.4,306.4,21.5,304,20.1z"/>
			</g>
			<g>
				<polygon class="st0" points="0,105.9 0,416.9 79.8,494.9 79.8,21.5 				"/>
			</g>
			<g>
				<path class="st2" d="M105,18.4c0,0-4-0.4-8.8-0.4c-6.2,0-13.9,0.7-16.9,4.2l-0.1,0.1v472l0.1,0.1c0,0.1,4.2,6.2,18.6,6.2
					c2.2,0,4.6-0.1,7.2-0.5h0.3V18.4H105z"/>
			</g>
			<g>
				<polygon class="st2" points="63.1,129.7 63,111.3 37.3,130.9 37.3,344.6 64.3,365.1 				"/>
			</g>
			<g>
				<g>
					<polygon class="st3" points="63.1,131 63,111.2 37.3,130.9 					"/>
				</g>
			</g>
			<g>
				<path class="st0" d="M109.6,19.1h1.5l37.2-0.2l2.2-18.4c0-0.3-0.3-0.6-0.6-0.4L109.6,19.1z"/>
			</g>
			<g>
				<polygon class="st1" points="249.9,18.4 245,0 149.8,0 147.7,18.4 104.6,18.4 104.6,500.1 296.8,472.8 297,18.4 				"/>
			</g>
		</g>
		<g>
			<polygon class="st2" points="293.5,338.8 293.3,105.7 178,105.7 178,349.3 293.5,339.1 			"/>
		</g>
		<g>
			<polygon class="st1" points="291.8,110.6 221.7,110.6 221.7,340.7 292,334.4 292,334.1 			"/>
		</g>
		<g>
			<polygon class="st0" points="188.2,198.5 188.2,245.5 210.7,245 210.7,244.7 210.7,198.5 			"/>
		</g>
		<g>
			<path class="st3" d="M199.4,262.7c-5.3,0-9.7,4.3-9.7,9.7c0,5.3,4.3,9.7,9.7,9.7c5.3,0,9.7-4.3,9.7-9.7
				C209.1,267,204.8,262.7,199.4,262.7z"/>
		</g>
		<g>
			<polygon class="st3" points="243.4,126.6 243.4,327.5 283.2,324.4 283.2,126.6 			"/>
		</g>
		<g>
			<g>
				<polygon class="st2" points="239.5,258.9 232.9,258.9 232.7,258.9 226.3,262.7 226.6,263.3 234.1,262.4 234.2,262.4 
					239.7,259.5 				"/>
			</g>
			<g>
				<polygon class="st2" points="233.1,213.4 239.3,213.4 239.5,212.8 232.6,207.1 232.4,207 225.5,207 225.3,207.6 232.9,213.4 
									"/>
			</g>
		</g>
		<g>
			<rect x="232.6" y="212.8" class="st5" width="7.1" height="46.8"/>
		</g>
		<g>
			<polygon class="st0" points="200.4,398.6 200.4,463.8 273.3,453.2 273.3,390.7 			"/>
		</g>
		<g>
			<polygon class="st3" points="128.3,406.8 128.3,473.8 201.1,463.7 201.1,398.6 			"/>
		</g>
		<g>
			<polygon class="st1" points="228.3,420.1 228.3,440.8 249.3,437.8 249.3,418.4 			"/>
		</g>
		<g>
			<path class="st2" d="M239.6,426.1c-2,0-3.7,1.6-3.7,3.7c0,2,1.6,3.7,3.7,3.7c2,0,3.7-1.6,3.7-3.7
				C243.3,427.7,241.7,426.1,239.6,426.1z"/>
		</g>
	</g>
	<g id="screen">
		<g>
			<polygon class="st0" points="488.5,410.9 490.7,323.6 530.8,327.1 530.8,369.6 			"/>
		</g>
		<g>
			<polygon class="st2" points="488.5,410.4 530.8,369.6 580,365.1 580.2,364.8 580.2,364.8 580.8,365.3 549.7,401.5 549.5,401.6 
				488.8,411.1 488.5,411.1 			"/>
		</g>
		<g>
			<path class="st1" d="M572.5,323.9l-0.1,0.2c-2.4,4.1-6.6,6.9-11.6,7.3c-0.4,0-0.7,0-1.1,0c-4.6,0-8.8-2.2-11.5-5.6l-0.1-0.1
				l-17.6,1.2l0.3,42.8l49.8-4.2c0.2,0,0.3-0.2,0.3-0.3v-41.6L572.5,323.9z"/>
		</g>
		<g>
			<g>
				<path class="st2" d="M580.8,323.3l-7.9-0.3l-0.1,0.2c-0.1,0.3-0.3,0.6-0.4,0.8l-0.3,0.6h0.6l8.1-0.5L580.8,323.3z"/>
			</g>
			<g>
				<path class="st2" d="M548.1,325.7c-0.9-1.1-1.6-2.3-2.1-3.7l-0.1-0.2h-0.2l-6.9-0.3l-48.5,1.3v0.7l40.4,3.9l17.8-1.3
					L548.1,325.7z"/>
			</g>
		</g>
		<g>
			<polygon class="st0" points="539.2,332.3 539.2,358.7 550,358.7 550,331.3 			"/>
		</g>
		<g>
			<path class="st5" d="M564.7,330.5L564.7,330.5c-1.3,0.5-2.6,0.8-3.9,0.9c-0.4,0-0.7,0-1.1,0c-1.1,0-2.3-0.1-3.3-0.4l0,0l-6.9,0.4
				v27.4l20.7-1.9v-26.7L564.7,330.5z"/>
		</g>
		<g>
			<path class="st2" d="M575,315.6v-0.3h-0.3l-30.3,2.2v0.3c0.6,8.1,7.3,14.2,15.3,14.2c0.4,0,0.8,0,1.1,0
				c8.1-0.6,14.2-7.3,14.2-15.3C575,316.3,575,315.9,575,315.6z"/>
		</g>
		<g>
			<g>
				<path class="st1" d="M587.3,204h-58.1c-10.3,0-18.7,8.4-18.7,18.7v78c0,10.4,8.4,18.7,18.6,18.7c0.5,0,1,0,1.5-0.1l58.1-4.6
					c9.7-0.8,17.2-8.9,17.2-18.6v-73.4C605.9,212.3,597.6,204,587.3,204z"/>
			</g>
			<g>
				<path class="st4" d="M586.4,213.8H533c-7.3,0-13.3,5.9-13.3,13.3v70.3c0,7.4,6,13.3,13.2,13.3c0.4,0,0.7,0,1.1,0l53.4-4.2
					c6.9-0.5,12.2-6.3,12.2-13.2v-66C599.7,219.8,593.7,213.8,586.4,213.8z"/>
			</g>
			<g>
				<polygon class="st3" points="519.7,226.8 599.7,260.1 599.7,293.4 519.7,258.7 				"/>
			</g>
		</g>
	</g>
	<g>
		<g>
			<path class="st2" d="M413.7,208.8l0.7,1.2l0,0l13.1-7.6c0.9-0.5,1.9-0.6,2.9-0.4l-22.9-7.8c-1.8-0.6-3.7-0.4-5.3,0.5l-12.4,7.1
				L413.7,208.8z"/>
			<path class="st2" d="M414.3,210.5l-0.8-1.4L389,202l13.1-7.6c1.7-1,3.8-1.2,5.6-0.6l22.9,7.8l-0.2,0.7c-0.9-0.2-1.8,0-2.6,0.4
				L414.3,210.5z M390.8,201.7l23.2,6.7l0.6,1l12.8-7.4c0.3-0.2,0.7-0.3,1.1-0.4l-21-7.1c-1.7-0.6-3.5-0.4-5,0.5L390.8,201.7z"/>
		</g>
		<g>
			<path class="st1" d="M335.1,223.9l-0.4,0.4l-8,9.5l0.2,0.6v0.1c0,0.1-0.1,0.1-0.1,0.2l0.1,0.3l6.5,11.2h0.6
				c0.2-0.3,0.4-0.5,0.7-0.7c1.5-1.4,3.5-2,5.6-2c4.1,0,8.9,2.3,12.7,6.4c3.4,3.8,5.2,8.3,5.2,12.1c0,0.7-0.1,1.4-0.2,2.1l0.2,0.4
				l15.9,7.1l0.4-0.5l-15.2-26.6l9.2-9.6l45.3-26.8l-34.7-9.9l-0.1,0.1L335.1,223.9z"/>
		</g>
		<g>
			<path class="st0" d="M446.3,225.9l-12.8-22.2c-0.8-1.4-2.3-2.2-3.9-2.2c-0.8,0-1.5,0.2-2.2,0.6l-12.8,7.4l-0.7-1.2l-45.8,26.2
				l-9.7,10.1l15.6,27.2h0.2h10.3l49.6-28.7l-2.2-3.8l12.8-7.4c1.4-0.8,2.2-2.3,2.2-3.9C446.9,227.4,446.7,226.6,446.3,225.9z"/>
		</g>
		<g>
			<g>
				<path class="st1" d="M379.3,246.4c-0.7-0.2-1.3-0.3-2-0.3c-2.8,0-5.3,1.8-6.2,4.5c-0.2,0.7-0.3,1.3-0.3,2c0,2.8,1.8,5.3,4.5,6.2
					c0.7,0.2,1.3,0.3,2,0.3c2.8,0,5.3-1.8,6.2-4.5l-0.3-0.1l0.3,0.1c0.2-0.7,0.3-1.3,0.3-2C383.9,249.8,382.1,247.3,379.3,246.4z"/>
			</g>
			<g>
				<path class="st1" d="M434,217.8c-0.7-1.2-1.9-1.8-3.2-1.8c-0.6,0-1.3,0.2-1.8,0.5c-1.2,0.7-1.8,1.9-1.8,3.2
					c0,0.6,0.2,1.3,0.5,1.8c0.7,1.2,1.9,1.8,3.2,1.8c0.6,0,1.3-0.2,1.8-0.5l-0.2-0.3l0.2,0.3c1.2-0.7,1.8-1.9,1.8-3.2
					C434.4,219,434.3,218.3,434,217.8z"/>
			</g>
		</g>
		<g>
			<path class="st2" d="M353.5,249.6c-3.9-4.3-8.9-6.7-13.2-6.7c-2.3,0-4.5,0.7-6.1,2.2c-0.3,0.3-0.6,0.6-0.9,1l-1.1,1.4l1.5-0.9
				c0.8-0.5,1.8-0.7,2.9-0.7c3.7,0,8.8,2.6,12.9,7.2c3.9,4.2,6,9.1,6,12.7c0,1.5-0.3,2.7-1,3.7l-1,1.4l1.5-1
				c0.4-0.2,0.7-0.5,1.1-0.8c1.9-1.7,2.8-4.3,2.8-7.1C358.8,258.2,357,253.5,353.5,249.6z"/>
		</g>
		<g>
			<path class="st1" d="M350.1,252.7c-4.3-4.7-9.4-7.5-13.4-7.5c-1.6,0-3.1,0.5-4.1,1.4c-1.3,1.2-1.9,2.9-1.9,4.9
				c0,2.2,0.7,4.7,2,7.3l0.2,0.4l4.2-4.1c3.7,0.8,5.7,2.5,6.8,4.2c1.1,1.8,1.3,3.7,1.3,4.8c0,0.4,0,0.7,0,0.8l-5,2.9l0.4,0.3
				c3.3,2.5,6.7,3.9,9.6,3.9c1.6,0,3-0.5,4.1-1.4c1.3-1.2,1.9-2.9,1.9-4.9C356.2,262,354,257.1,350.1,252.7z"/>
		</g>
		<g>
			<path class="st2" d="M344.4,259c-1.2-2-3.5-3.8-7.4-4.6h-0.2l-0.1,0.1l-8.6,8.3l0.3,0.2c1.3,0.9,2.6,2.1,3.6,3.7
				c1.1,1.6,1.7,3.4,2,5l0.1,0.5l11.7-6.8v-0.2c0,0,0.1-0.4,0.1-1.1C345.9,263,345.7,261,344.4,259z"/>
		</g>
		<g>
			<path class="st1" d="M332.6,266.4c-2.3-3.5-5.6-5.6-8.6-5.6c-1.1,0-2.1,0.3-3,0.8c-1.7,1.1-2.6,3.2-2.6,5.6c0,2.2,0.7,4.7,2.2,7
				c2.3,3.5,5.6,5.6,8.6,5.6c1.1,0,2.1-0.3,3-0.8c1.7-1.1,2.6-3.2,2.6-5.6C334.8,271.2,334.1,268.7,332.6,266.4z"/>
		</g>
		<g>
			<path class="st2" d="M328.3,269.3l-0.3,0.2L328.3,269.3c-1.4-2.2-3.6-3.5-5.5-3.5c-0.7,0-1.3,0.2-1.9,0.5
				c-1.1,0.7-1.7,2.1-1.7,3.6c0,1.4,0.5,3,1.4,4.4c1.4,2.2,3.6,3.5,5.5,3.5c0.7,0,1.3-0.2,1.9-0.5c1.1-0.7,1.7-2.1,1.7-3.6
				C329.7,272.3,329.3,270.8,328.3,269.3z"/>
		</g>
	</g>
	<g>
		<g>
			<polygon class="st4" points="460.8,228 460.8,234.5 468.8,243.2 468.8,228 			"/>
		</g>
		<g>
			<polygon class="st1" points="461.3,234 446.5,233.8 446.3,234.6 468.8,260.1 468.8,242.2 			"/>
		</g>
		<g>
			<path class="st4" d="M446.5,233.8l-0.2,0.4l-16.8,24.3l0.1,3v0.3h10.6c3.4,4,5.6,9.9,5.6,16.5c0,5.3-1.4,10.2-3.7,14h-11.4
				l0.5,16.4l37.7-3.8v-45.7L446.5,233.8z"/>
		</g>
		<g>
			<g>
				<path class="st1" d="M453.2,274.9c-0.6-9.4-6.5-16.7-13.5-16.8H439l0,0c-2,0.1-3.8,0.9-5.4,2l-0.6,0.4l0.7,0.2
					c5.3,1.6,9.7,7.9,10.2,15.7c0,0.5,0.1,1,0.1,1.5c0,6.2-2.5,11.6-6.2,14.3l-0.6,0.4l0.7,0.2c0.9,0.3,1.9,0.4,2.9,0.4h0.6
					c6.9-0.5,11.9-7.9,11.9-16.9C453.3,275.9,453.3,275.4,453.2,274.9z"/>
			</g>
			<g>
				<path class="st0" d="M444.7,276.4c-0.5-8-4.9-14.4-10.5-16.2h-0.1l-23.5,1.6v0.7h0.2l0,0h0.2h0.5c2.9,0,5.6,1.6,7.7,4.2l0,0
					c1.8,2.2,3.2,5.1,3.8,8.5v0.3c0.1,0.7,0.2,1.3,0.2,2c0,0.4,0,0.8,0,1.3c0,0.3,0,0.5,0,0.8v0.3h0.3h-0.3
					c-0.1,3.4-1.1,6.5-2.6,8.9l0,0c-1.8,3.1-4.5,5-7.6,5.3v0.7l25.1-1.7l0.1-0.1c3.9-2.9,6.4-8.4,6.4-14.8
					C444.7,277.5,444.7,277,444.7,276.4z"/>
			</g>
			<g>
				<path class="st2" d="M424,277.3c-0.6-8.7-6.1-15.6-12.8-15.6h-0.6l0,0c-6,0.4-10.5,6.4-11.2,13.8v0.4l9.8-0.7h0.2
					c1.5,0,2.8,1.2,2.9,2.7v0.2c0,1.5-1.2,2.8-2.7,2.9l-9.9,0.7l0.1,0.4c1.5,7.2,6.5,12.5,12.3,12.5h0.6c6.5-0.4,11.3-7.4,11.3-15.7
					C424,278.3,424,277.8,424,277.3z"/>
			</g>
			<g>
				<path class="st4" d="M413,277.9c-0.1-1.9-1.7-3.3-3.5-3.3h-0.2l-14.2,0.9c-1.9,0.1-3.3,1.7-3.3,3.5v0.2c0.1,1.9,1.7,3.3,3.5,3.3
					h0.2l14.2-0.9v-0.3v0.3c1.9-0.1,3.3-1.7,3.3-3.5V277.9z"/>
			</g>
		</g>
	</g>
	<g>
		<g>
			<path class="st3" d="M436.5,559.2l-0.3,0.1L436.5,559.2c-2.2-8.2-7.6-10.1-12-10.1c-1.8,0-3.4,0.3-4.6,0.6
				c-0.6,0.2-1.1,0.3-1.4,0.4l-0.4,0.1H418l0,0l0,0l0,0l0,0l0,0l0,0l0,0l0,0v0.1c-0.8,1.4-1.5,2.6-2.1,3.4c-0.5,0.8-0.9,1.2-0.9,1.2
				l-0.4,0.5h0.6c6.1,0.4,9.7,2.2,11.8,4.5s2.8,5.1,2.8,7.7c0,2.1-0.4,4-0.8,5.4c-0.3,1.2-1,2.3-1.8,3.2l-15.4,16.4l0.2,0.2
				c3.6,3.4,7,4.6,9.8,4.6c1.2,0,2.2-0.2,3.2-0.5c2.9-0.9,5.2-3.1,6.5-5.9c2.1-4.6,6.1-14.8,6.1-24.5
				C437.5,564.1,437.2,561.6,436.5,559.2z M418.2,550.7L418.2,550.7L418.2,550.7L418.2,550.7z"/>
		</g>
		<g>
			<path class="st3" d="M331.6,613.9l-0.2-0.3l-0.3,0.2l0,0l-0.1,0.1v0.1c-0.4,1.2-1.1,2.2-2.2,2.8c-5.1,3-9.7,4-13.6,4
				c-4.5,0-8.1-1.3-10.3-2.5c-1.7-0.9-2.8-2.6-2.9-4.5v-0.2v-0.1l-0.2-0.2l-0.2-0.2l-16,7.3l0,0c0,0-5.7,2.7-5.7,8.1
				c0,1.4,0.4,3,1.3,4.7c2.6,4.6,7.5,6.8,13.2,6.8c4.6,0,9.8-1.5,14.6-4.3c10.8-6.3,21.9-12.9,21.9-12.9l0,0l0,0
				c0,0,2.2-1.5,2.2-4.4C333.1,617.1,332.7,615.6,331.6,613.9z"/>
		</g>
		<g>
			<path class="st6" d="M415.7,555c7.3-11.3,8.7-25.4,8.7-34.4c0-5.2-0.5-8.7-0.5-8.9l1.9-29.2c0.2-0.5,6.7-17.9,6.7-37.7
				c0-19.2-6.2-40.7-30.4-50.9v-1.2l-0.6,1.3c-0.2,0.4-0.5,0.8-0.9,1.2l-16.2,15.1c-3.1-4.6-5.7-5.6-7.3-5.6c-1,0-1.6,0.4-1.6,0.4
				l0,0l0,0l0,0l0,0c-5.3,3.3-8.7,12.9-9.7,16.2c-0.7-2.4-0.9-5.2-0.9-8c0-4.4,0.6-8.7,0.9-10.9v-0.3c0-1-0.8-1.8-1.8-1.8h-0.2
				c-2,0.2-4.5,0.8-5.6,1c0.7-1.8,2.4-4.2,3.9-6l0.2,0.1l0,0l0,0l0.2-0.7l0,0c-3.6-1.1-6-3.9-7.6-7.7l-0.2-0.4l-0.4,0.3
				c-5.5,5.3-16.2,19.1-16.2,46.4c0,2.6,0.1,5.3,0.3,8.1c0.4,5,1.3,9.9,2.4,14.7c0.7,3.2,1.5,7.8,1.5,13c0,8.1-1.9,17.7-9,25.2
				l-0.3,0.3l37.5,20.2l-0.3,0.7l-0.8,0.6l-39,29.5l23.2,1.5c2.5,0.2,4.3,2.2,4.3,4.6v0.6l-6.6,51.6l0,0c0,0,0,0.5,0,1.3
				c0,2.2,0.3,6.8,2.7,11s6.9,8,15.2,8.5c0.5,0,1.1,0.1,1.6,0.1c7.5,0,14.7-3.3,19.8-8.8l36.8-39.3c0.9-0.9,1.5-2.1,1.9-3.3
				c0.4-1.4,0.9-3.5,0.9-5.7c0-2.7-0.7-5.7-2.9-8.2C425.3,557.3,421.6,555.5,415.7,555z"/>
		</g>
		<g>
			<path class="st5" d="M427.1,477.3c-17.7-0.2-38.9-4.4-55.7-8.5c-8.4-2.1-15.7-4.1-20.9-5.6s-8.3-2.5-8.3-2.6l-0.5-0.2l0.1,0.5
				c0.4,2.8,0.6,5.4,0.6,7.7c0,3.7-0.4,6.8-0.8,9c-0.2,1.1-0.4,1.9-0.5,2.5s-0.2,0.9-0.2,0.9l-0.1,0.3l0.3,0.1
				c25.5,10.3,46.5,12.9,61.1,12.9s22.8-2.6,22.9-2.6l0.2-0.1v-0.2c0.3-4.3,0.8-7.7,1.3-10.1c0.5-2.4,0.9-3.7,0.9-3.7l0.1-0.4
				L427.1,477.3z"/>
		</g>
		<g>
			<path class="st7" d="M401.9,447c0,0-15.7,35.6-51,56.8l20.8,11.1c0,0,31-11.6,53.9-32.6L401.9,447z"/>
		</g>
		<g>
			<path class="st5" d="M401.5,386c-1-1.5-2.7-2.7-5.4-2.9H396l-23.1,15.5l0.1-3.4v-0.4l-0.4,0.1c-1.5,0.4-3,0.5-4.4,0.5
				c-1.6,0-2.9-0.2-3.9-0.3c-1-0.2-1.5-0.3-1.6-0.3l-0.4-0.1l-0.2-0.1l-0.2,0.2c-1.7,2-3.9,4.9-4.4,7l-0.1,0.6l0.6-0.1
				c0,0,0.9-0.2,2.1-0.5c1.2-0.3,2.7-0.6,4.1-0.7h0.1c0.6,0,1.1,0.5,1.1,1.1v0.2c-0.4,2.3-1,6.6-1,11c0,3.3,0.3,6.6,1.3,9.3l0.4,1
				l0.3-1.1c0,0,0.2-0.8,0.7-2.1c1.3-3.9,4.6-12,9.1-14.8l0,0h0.1c0.2-0.1,0.6-0.3,1.2-0.3c1.4,0,3.9,0.8,7,5.6l0.2,0.3l0.3-0.3
				l16.5-15.4c0.8-0.8,1.4-1.8,1.5-3c0.1-0.5,0.1-1.1,0.1-1.8C402.8,389.3,402.5,387.5,401.5,386z"/>
		</g>
		<g>
			<path class="st6" d="M354.4,386.5c-4.7,4.5-16.7,16.1-20.7,23.5c-6.7,12.4-21,18.3-52.8,14.4c0,0,0.5,13.7-8.2,16.3
				c0,0,48.6,22.1,66.3,1.6l0,0c-0.1-1.4-0.2-2.8-0.3-4.2c-1.3-30.3,10.2-45.3,15.9-50.8l0,0C354.6,387,354.5,386.7,354.4,386.5z"/>
			<path class="st6" d="M315.5,451.3c-20,0-42.6-10.1-42.9-10.3l-0.9-0.4l0.9-0.3c8.3-2.5,7.9-15.8,7.9-16v-0.4l0.4,0.1
				c37.3,4.6,47.6-5.2,52.4-14.2c4-7.4,15.8-19,20.7-23.6l0.4-0.4l0.2,0.5c0,0.1,0.1,0.2,0.1,0.3l0.2-0.2v2.6l-0.5-1.1
				c-15.2,15.1-15.9,40.1-15.5,50.2c0.1,1.3,0.2,2.7,0.3,4.2v0.1l-0.1,0.2C333.7,449.1,324.9,451.3,315.5,451.3z M273.7,440.8
				c3,1.3,13.6,5.6,25.6,8.1c13,2.7,30.3,3.7,39.3-6.7c-0.1-1.4-0.2-2.8-0.3-4.1c-0.4-10.2,0.2-35.6,15.9-50.9c0,0,0,0,0-0.1
				c-5.1,4.8-16.4,16-20.2,23.1c-7.3,13.6-23.6,18.1-52.8,14.6C281.3,427.1,281,437.8,273.7,440.8z"/>
		</g>
		<g>
			<path class="st6" d="M429.6,423.5v-0.2l-0.2-0.1c0,0-3.9-1.6-8.9-1.6c-5.2,0-11.7,1.7-16.1,8.9c-2.2,3.6-3.3,7.7-3.3,11.9
				c0,1.6,0.2,3.2,0.5,4.8l2.2,11.3l0.1,0.7c0,1.6-1,3-2.6,3.5c-7.7,2.4-26.3,8.6-37.2,16.6l-0.5,0.4l0.6,0.2l0.3,0.1
				c1.5,0.7,7.7,4.2,7.7,13.8c0,1.6-0.2,3.4-0.6,5.3h-0.2v0.3v0.4l0.4-0.1c0.1,0,0.3,0,0.4-0.1h0.1l0,0c13.4-2,35.3-6.8,56-18.2
				c2.6-1.5,4.4-4.1,5-7c0.7-3.7,1.4-9.5,1.4-17C434.5,448.5,433.4,436.9,429.6,423.5z"/>
		</g>
		<g>
			<polygon class="st4" points="251.2,432.2 240.3,432.2 240.3,427.5 251.2,427.5 251.2,429 			"/>
			<path class="st3" d="M251.5,432.5h-11.6v-5.4h11.6V432.5z M240.6,431.8h10.2v-3.9h-10.2V431.8z"/>
		</g>
		<g>
			<path class="st5" d="M274.2,441l-0.8,0.4c-0.4,0.1-1.4-0.1-1.9-0.1h-0.1h-0.1l-10.4-5.1l6-14.1l14.3,2v0.3c0,0,0,0.2,0,0.5
				c0,1.2-0.1,4.6-1.2,8C280.1,432.9,278.3,439.2,274.2,441z"/>
		</g>
		<g>
			<path class="st6" d="M330,546.1l-30-16.8h-0.8h-0.1H299c-0.1,0-2.2,1-2.2,4.7c0,0.3,0,0.6,0,0.9c0.3,3.7,3.5,64.7,4.3,78.8
				c0.1,2.1,1.3,4,3.2,5c2.4,1.2,6,2.6,10.7,2.6c4,0,8.8-1,14-4.1c1.7-1,2.8-2.8,2.8-4.8v-67.8L330,546.1z"/>
		</g>
		<g>
			<path class="st7" d="M381.9,605.4l33.3-50.1c0,0,4.4,0.5,6.3,1.2L381.9,605.4z"/>
		</g>
		<g>
			<path class="st5" d="M331.8,585.9l-0.3,0.1c0,0-8.6,1.9-18,1.9c-4.7,0-9.6-0.5-13.7-1.9l-0.2-0.1c-0.5-2.2-0.8-15.9-0.8-15.9
				l0.4,0.1c0,0,2,0.4,5.1,0.7c3.2,0.4,7.5,0.7,12.3,0.7s9.9-0.4,14.7-1.4l0.4-0.1C331.8,570,332.2,579.3,331.8,585.9z"/>
		</g>
		<g>
			<path class="st5" d="M417.4,587.6c-0.6-5.8-4.2-9.4-7.5-11.5s-6.5-2.8-6.5-2.9l-0.2-0.1l-0.1,0.2l-8.6,13l0.4,0.2
				c4.3,1.6,7.1,4.7,9,7.4c0.9,1.4,1.5,2.6,2,3.5c0.4,0.9,0.6,1.5,0.6,1.5l0.2,0.5l11-11.7L417.4,587.6z"/>
		</g>
		<g>
			<path class="st3" d="M284.2,538.1C284.1,538.1,284.1,538.1,284.2,538.1c-2-0.1-3.7-3.5-6-20l1.4-0.2c2.5,17.3,4.1,18.7,4.6,18.8
				l0,0c1.3,0,3.6-8.7,4.7-12.9l1.4,0.4C287.7,533.6,286.3,538.1,284.2,538.1z"/>
		</g>
		<g>
			<path class="st3" d="M271.8,473.3c-6-30.9-13.3-39.5-17.1-41.9c-2-1.3-3.3-1-3.4-0.9l-0.4-1.4c0.2-0.1,1.9-0.5,4.4,1
				c5,3,12.1,12.8,17.9,42.9L271.8,473.3z"/>
		</g>
		<g>
			<g>
				<path class="st4" d="M371.5,514.7v-0.2l-55.9-30h-0.5H315l-0.1,0.1l-8.7,6.4l0.1,0.8v0.2l14.2,7.8l0.1,0.1l8.9,46
					c0.1,0.4,0.4,0.6,0.7,0.6l0.4-0.1l40.9-30.9L371.5,514.7z"/>
			</g>
			<g>
				<g>
					<path class="st3" d="M355.8,525.6c-9.7-5.4-19.3-10.8-29-16.3c-1.4-0.8-2.7-1.5-4.1-2.3c-0.7-0.4-1.2,0.6-0.6,1
						c9.7,5.4,19.3,10.8,29,16.3c1.4,0.8,2.7,1.5,4.1,2.3C355.9,527,356.5,526,355.8,525.6z"/>
				</g>
			</g>
			<g>
				<polygon class="st3" points="325.9,504.7 343,514.3 350.9,508.3 332.9,498.5 				"/>
			</g>
			<g>
				<polygon class="st2" points="321.2,499.4 272.7,472.9 264,468.1 264.1,468.8 272.4,514.8 330.5,547.2 				"/>
			</g>
		</g>
		<g>
			<path class="st5" d="M364.4,479.4l-0.2-0.1l-0.1,0.1c-4.1,2.8-7,6.3-7,6.3l-0.1,0.2l0.1,0.2c2.2,4.1,2.8,7.4,2.8,9.8
				c0,1.6-0.3,2.8-0.5,3.6c-0.1,0.4-0.3,0.7-0.3,0.9l-0.1,0.3l-0.3,0.6l13.7-1.5l0.1-0.2c0.4-2.1,0.6-4,0.6-5.7
				C372.9,482.6,364.4,479.4,364.4,479.4z"/>
		</g>
		<g>
			<path class="st2" d="M357.6,485.8l-0.1-0.2h-0.2c-0.3,0-0.6,0-0.9,0c-8.2,0-13.2,1.1-16.2,2.5s-4,3-4.1,4.2
				c0,0.3,0.1,0.7,0.3,0.9s0.5,0.4,0.8,0.4h0.1l2.8-0.4l0,0c-0.1,0.2-0.3,0.4-0.5,0.6c-0.8,0.7-5.7,5.1-8.4,7.5
				c-0.8,0.7-1.3,1.6-1.3,2.6c0,1.5,1.1,3,2.6,4.1c2.1,1.5,5.5,3.5,8.9,3.5c1.6,0,3.2-0.5,4.5-1.8c3.5-3.5,6.8-5.5,9.2-6.8
				c1.2-0.6,2.2-1,2.9-1.2s1.1-0.3,1.1-0.3h0.1l0.1-0.1c0,0,1.1-1.9,1.1-5.2C360.5,493.4,359.8,489.9,357.6,485.8z"/>
		</g>
		<g>
			<path class="st2" d="M267.2,422.1c0,0-7.2-0.9-11.4-0.9c-2.2,0-5.5,1.5-8.2,3c-2.8,1.5-5,3-5,3l0,0l0,0c-0.8,0.7-1.3,1.2-1.3,1.8
				c0,0.4,0.2,0.7,0.5,0.9c0.9,0.6,2.4,0.7,4.1,0.7c0.8,0,1.7,0,2.4-0.1c-0.2,0.1-0.4,0.2-0.5,0.3c-0.4,0.3-0.7,0.6-0.7,1.1v0.3l0,0
				l0,0l0,0l0,0c0.5,1.9,2.4,2.9,4.7,3.5c2.2,0.6,4.8,0.7,6.8,0.7c1.7,0,2.9-0.1,2.9-0.1h0.2l6-14.2H267.2z"/>
		</g>
		<g>
			<g>
				<path class="st2" d="M351.9,370.9c-0.1-1.3-0.1-2.5-0.1-3.7c0-1,0-2,0-2.9V364l-0.3-0.1c-1.1-0.2-2.2-0.5-3.2-0.7l-0.4-0.1v6.2
					l0,0v0.1c0,0.3,0.1,0.7,0.7,1.1c0.5,0.4,1.4,0.6,3,0.7h0.4L351.9,370.9z"/>
			</g>
			<g>
				<path class="st4" d="M395.2,366c0.4-1.7,0.5-3.3,0.5-4.7c0-2.7-0.5-4.6-0.5-4.6l-0.1-0.4l-1.1,0.5l0,0l0,0l-9.4,5.2l0,0l-1.8,1
					l0.3,0.6l1-0.6c0.5,2.2,0.9,5.1,1,8.6c0,0.3,0,0.7,0,1c0,0.2,0,0.5,0,0.7v1.2l0.5-0.9h2.2h0.4v-0.4c0,0-0.1-1.2-0.1-2.9
					c0-1.9,0.1-4.4,0.7-6.3c0.3-1,0.7-1.8,1.2-2.4s1.1-0.9,1.9-0.9h0.1c1,0.1,1.6,0.4,2,0.9s0.6,1.3,0.6,2.3c0,0.6-0.1,1.3-0.2,2
					L395.2,366L395.2,366L395.2,366L395.2,366z"/>
			</g>
			<g>
				<path class="st8" d="M396.6,383.5l-0.2-0.3c0,0-0.2-0.3-0.5-0.9c-0.9-1.6-2.8-5.2-2.7-8c0-0.4,0-0.7,0.1-1
					c0.5-2.3,2.1-6.4,2.1-9.5c0-1-0.2-1.9-0.7-2.7c-0.5-0.7-1.4-1.2-2.5-1.2H392c-1,0-1.8,0.4-2.5,1.1c-1.8,2.1-2.1,6.3-2.1,9.2
					c0,1.2,0.1,2.1,0.1,2.6h-1.7c0-0.1,0-0.2,0-0.4c0-0.3,0-0.7,0-1c-0.1-3.8-0.5-6.9-1.1-9.2l-0.1-0.4l-0.4,0.2l-1.5,0.8
					c-2.2,1.2-4.6,2-7.1,2.2c-2.5,0.3-5.1,0.4-7.6,0.4c-5.9,0-11.6-0.7-16.5-1.6l-0.4-0.1v0.4c0,0.9,0,1.9,0,3c0,5,0.4,11.2,2,16.7
					c1.6,5.4,4.4,10,9.3,11.5c0,0,2.5,0.7,5.7,0.7c1.3,0,2.7-0.1,4.2-0.4l-0.1,4.2L396.6,383.5z"/>
			</g>
			<g>
				<path class="st2" d="M380.5,370.5l7.1-3.5c0.2-2.2,0.7-4.5,1.9-5.9c0.6-0.7,1.4-1.1,2.5-1.1h0.2c1.2,0.1,2,0.5,2.5,1.2
					c0.3,0.5,0.5,1,0.6,1.7l0.3-0.1l0.2-0.1v-0.2c0,0,0.1-0.8,0.1-1.8c0-1.1-0.1-2.7-0.6-4.1l-0.1-0.4l-15.2,7L380.5,370.5z"/>
			</g>
			<g>
				<path class="st9" d="M380,364.2c0,0-0.2,0.1-0.6,0.2c-1.2,0.3-4.3,0.9-10.3,0.9c-4.6,0-10.9-0.4-19.2-1.5l-0.4-0.1v6l0,0
					c0.5,4.9,3.5,7.6,7,7.6c1.4,0,2.9-0.4,4.3-1.4l0.2-0.1c0.5-0.4,1.1-0.6,1.7-0.6h0.1l2.3,0.1c0.7,0,1.4,0.3,2,0.8
					c1.2,1,3.5,2.6,6.5,2.7c0.4,0,0.7,0,1.1-0.1c3.3-0.5,5.7-3.5,5.7-6.8v-7.8L380,364.2z"/>
			</g>
			<g>
				<g>
					<path class="st5" d="M399.5,351.3c-0.4-4.3-1.5-12.5-5.3-19.8s-10.3-13.7-21.2-14.2l0,0c0,0-0.5,0-1.3,0c-0.6,0-1.4,0-2.3,0.1
						c-13,1.1-23.2,11.5-24.6,24.4l-0.9,8.8l0,0c-0.1,0.5-0.3,1-0.7,1.3c-0.8,0.6-2.2,1.8-3.5,3c-1.2,1.3-2.2,2.6-2.3,3.9l0.1,0.7
						c0.3,0.7,1.4,1.4,3.1,2.1c5.1,2.2,16,4.7,27.4,4.7c2.6,0,5.1-0.1,7.7-0.4c2.6-0.3,5.1-1.1,7.3-2.3l13.9-7.6
						c1.6-0.9,2.5-2.5,2.5-4.2L399.5,351.3z"/>
				</g>
				<g>
					<path class="st2" d="M392.4,328.6L392.4,328.6l-0.1-0.1c-3.9-5.9-10.1-10.7-19.4-11.1l0,0c0,0-0.5,0-1.3,0
						c-0.6,0-1.4,0-2.3,0.1c-13,1.1-23.2,11.5-24.6,24.4l-0.9,8.8c-0.1,0.5-0.3,1-0.7,1.3l-0.3,0.3l0.3,0.3c0,0,7.5,6.5,24.5,6.5
						c4.8,0,10.3-0.5,16.6-1.8c2.3-0.5,4.3-1.8,5.5-3.8c1.7-2.7,3.6-7.3,3.6-14.8C393.3,335.7,393,332.4,392.4,328.6z"/>
				</g>
			</g>
		</g>
	</g>
</g>
</svg>
