<?xml version="1.0" encoding="UTF-8"?> <svg xmlns="http://www.w3.org/2000/svg" xmlns:xlink="http://www.w3.org/1999/xlink" version="1.1" id="Réactivité_d_intervention" x="0px" y="0px" viewBox="0 0 500 500" style="enable-background:new 0 0 500 500;" xml:space="preserve"> <style type="text/css"> .st0{fill:#9FE7F5;} .st1{fill:#FFFFFF;} </style> <g id="aplati"> <path class="st0" d="M283.5,180.8c-45.5,0-82.4,36.9-82.4,82.4c0,29.5,15.5,55.4,38.8,69.9c12.7,7.9,27.6,12.5,43.7,12.5 c45.5,0,82.5-36.9,82.5-82.5S329.1,180.8,283.5,180.8L283.5,180.8z M338.3,318c-14,14-33.4,22.7-54.8,22.7 c-15.1,0-29.1-4.3-41-11.8c-21.9-13.7-36.4-38-36.4-65.7c0-21.4,8.7-40.7,22.7-54.8c14-14,33.4-22.7,54.8-22.7 c21.4,0,40.7,8.7,54.8,22.7c14,14,22.7,33.4,22.7,54.8S352.3,304,338.3,318L338.3,318z"></path> <path class="st1" d="M283.5,200.1c17.4,0,33.2,7.1,44.6,18.5c11.4,11.4,18.5,27.2,18.5,44.6h5c0-37.6-30.5-68.1-68.1-68.1V200.1 L283.5,200.1z"></path> <path class="st1" d="M350.8,199.5l7.4-7.4l10.5,10.5l3.5-3.5l-24.5-24.5l-3.5,3.5l10.5,10.5l-7.4,7.4c-16-15.2-37.5-24.7-61.2-25.4 v-21.5h20.5v-5h-46.1v5H281v21.5c-18.2,0.5-35.2,6.2-49.3,15.8c-4.2,2.9-8.2,6.1-11.9,9.6l-7.4-7.4l10.5-10.5l-3.5-3.5l-24.5,24.5 l3.5,3.5l10.5-10.5l7.3,7.3c-7.6,8-13.8,17.4-18.1,27.7c-0.7,1.6-1.3,3.3-1.9,5h-49.7v2h49c-2.9,8.8-4.5,18.3-4.6,28.1h-67.1v2 h67.1c0.1,9.8,1.7,19.2,4.6,28.1h-27.4v2h28.1c7.1,19.8,20.7,36.6,38.2,47.6c14.2,8.9,31.1,14.1,49.1,14.1 c51.2,0,92.7-41.5,92.7-92.7C376.2,238.5,366.6,216.1,350.8,199.5L350.8,199.5z M345.6,325.2c-15.9,15.9-37.8,25.7-62,25.7 c-17.1,0-33-4.9-46.5-13.3c-24.8-15.5-41.2-43-41.2-74.4c0-12.1,2.4-23.6,6.9-34.1c6.6-15.7,17.8-29.1,31.8-38.6 c14-9.5,30.9-15,49-15c24.2,0,46.1,9.8,62,25.7c15.9,15.9,25.7,37.8,25.7,62C371.2,287.5,361.4,309.4,345.6,325.2L345.6,325.2z"></path> <polygon class="st1" points="337.8,260.7 286,260.7 286,222.9 281,222.9 281,265.7 337.8,265.7 337.8,260.7 "></polygon> </g> </svg> 