<?xml version="1.0" encoding="utf-8"?>
<!-- Generator: Adobe Illustrator 27.8.1, SVG Export Plug-In . SVG Version: 6.00 Build 0)  -->
<svg version="1.1" id="Calque_1" xmlns="http://www.w3.org/2000/svg" xmlns:xlink="http://www.w3.org/1999/xlink" x="0px" y="0px"
	 viewBox="0 0 1630.3 765.8" style="enable-background:new 0 0 1630.3 765.8;" xml:space="preserve">
<style type="text/css">
	.st0{fill:#CB6E0E;}
	.st1{fill:#F27F0C;}
	.st2{fill:#262E36;}
	.st3{fill:#DADDE1;}
	.st4{fill:#8C96A5;}
	.st5{fill:#475564;}
	.st6{fill:#F2F2F2;}
	.st7{fill:#FFFFFF;}
	.st8{fill:#F07F12;}
	.st9{fill:#9FE7F5;}
</style>
<g id="design_00000094608276265512730730000004299593783732464263_">
	<g>
		<g>
			<path class="st0" d="M531.8,706.7V518.3c0-13.1-3.9-25.3-10.6-35.6l56.1,0.3l-53.2-22.9c-10.7-4.7-21.1-7.8-32.4-7.8H18.4
				C6,452.3,0,461.2,0,474.8v231.9c0,12,0,14.8,9.8,22l7.5,5.1l48.5,28.4l488.6,0.4l-51.1-26.1C519,735.8,531.8,722.7,531.8,706.7z"
				/>
		</g>
		<g>
			<g>
				<path class="st1" d="M570.8,765.4H76c-9.9,0-18.1-8.1-18.1-18.1V500c0-9.9,8.1-18.1,18.1-18.1h494.2c10.3,0,18.7,8.4,18.7,18.7
					v246.7C588.8,757.3,580.7,765.4,570.8,765.4z"/>
			</g>
			<g>
				<path class="st1" d="M570.8,765.4V765H76c-4.9,0-9.3-2-12.5-5.2s-5.2-7.6-5.2-12.5V500c0-4.9,2-9.3,5.2-12.5s7.6-5.2,12.5-5.2
					h494.2c5,0,9.6,2.1,12.9,5.4c3.3,3.3,5.4,7.9,5.4,12.9v246.7c0,4.9-2,9.3-5.2,12.5s-7.6,5.2-12.5,5.2L570.8,765.4l0,0.4
					c10.2,0,18.5-8.3,18.5-18.5V500.6c0-10.5-8.6-19.1-19.1-19.1H76c-10.2,0-18.5,8.3-18.5,18.5v247.3c0,10.2,8.3,18.5,18.5,18.5
					h494.8V765.4z"/>
			</g>
		</g>
	</g>
	<g>
		<g>
			<g>
				<polyline class="st2" points="303,358.2 334.4,358.2 334.4,354.9 303,354.9 				"/>
			</g>
			<g>
				<path class="st2" d="M318.7,377.9v-1.6c-3.9,0-7.4-1.6-9.9-4.1s-4.1-6-4.1-9.9v-11.4c0-3.9,1.6-7.4,4.1-9.9s6-4.1,9.9-4.1
					s7.4,1.6,9.9,4.1s4.1,6,4.1,9.9v11.4c0,3.9-1.6,7.4-4.1,9.9s-6,4.1-9.9,4.1V377.9v1.6c9.5,0,17.3-7.8,17.3-17.3v-11.4
					c0-9.5-7.8-17.3-17.3-17.3s-17.3,7.8-17.3,17.3v11.4c0,9.5,7.8,17.3,17.3,17.3V377.9z"/>
			</g>
			<g>
				<polyline class="st2" points="308.3,375.1 302.6,464.9 305.9,465.1 311.6,375.3 				"/>
			</g>
			<g>
				<polyline class="st2" points="325.8,375.3 331.5,465.5 334.8,465.3 329.1,375.1 				"/>
			</g>
		</g>
		<g>
			<path class="st1" d="M1037.4,28.6c-2.8-2-6.1-2.9-9.4-2.9c-1.3,0-2.6,0.1-3.9,0.4L765,79.3l22.8,102.5l28.4-7.1l-4.1-22.2
				l118.6-23.8l-2.8-13.1c-0.2-1-0.3-2-0.3-3.1c0-1.8,0.4-3.6,1.1-5.2c2.2-4.4,6.7-7.4,11.9-7.4c7.3,0,11.6,5.2,13.2,13.3l2.1,10.4
				l0.4-0.1c12.2-2.5,23.8-6.8,34.4-12.8l0.2-0.1v-0.7c0-6.6,2.7-12.6,7-17c4.3-4.3,10.3-7,17-7l5.9,0.7l0.1-0.2
				c5.9-6.7,11-14.1,15.2-22.2c4.3-8.2,7.1-16.2,7.1-22.9C1043.4,36,1041.6,31.5,1037.4,28.6z"/>
		</g>
		<g>
			<path class="st2" d="M969.6,28.7c-0.1,0.2-2.9,4.3-5.7,10.8c-2.8,6.5-5.6,15.3-5.6,25.1c0,4.9,0.7,10,2.6,15.1
				c2.8,7.6,8.3,15,17.1,21c8.8,6,20.9,10.8,37.3,13.9l1.8-9.7c-20.6-3.8-32.8-10.4-39.8-17.5c-3.5-3.6-5.8-7.3-7.2-11.1
				c-1.4-3.8-2-7.8-2-11.7c0-7.8,2.4-15.5,4.8-21.2c1.2-2.9,2.5-5.2,3.4-6.8c0.5-0.8,0.8-1.4,1.1-1.8l0.3-0.4l0.1-0.1l0,0l-1.3-0.9
				l1.3,0.9l0,0l-1.3-0.9l1.3,0.9L969.6,28.7L969.6,28.7z"/>
		</g>
		<g>
			<path class="st3" d="M965.1,166.5l0.2-0.2l-10.6-53.4c-1.6-8.3-6.3-14-14-14c-5.5,0-10.3,3.2-12.6,7.9c-0.9,1.8-1.2,3.7-1.2,5.6
				c0,1.1,0.1,2.2,0.3,3.2l16.5,77.3l0.6-0.7l0.1-0.1v-0.2c-0.2-0.9-0.3-1.8-0.3-2.8c0-5.7,2.6-9.3,5.8-11.6l2.2-1.5
				C956.9,173.5,961.3,170.2,965.1,166.5z"/>
		</g>
		<g>
			<path class="st3" d="M1055.5,204h73.2v-0.4c-0.7-9.4-2.3-19.6-5.8-28.8l-0.1-0.3h-67.3l0,0l0,0v0.8c1.8,0,3.5,1.4,4.8,4
				c1.3,2.5,2.1,6.1,2.1,10s-0.8,7.4-2.1,10c-1.3,2.5-3,4-4.8,4L1055.5,204L1055.5,204L1055.5,204z"/>
		</g>
		<g>
			<path class="st4" d="M1061,179c-1.3-2.7-3.3-4.4-5.5-4.4c-1.6,0-3.1,0.9-4.3,2.5c-1.2,1.5-2.1,3.6-2.7,6.1l-0.1,0.5h6.7v11.2
				h-6.7l0.1,0.5c0.6,2.5,1.5,4.6,2.7,6.1s2.6,2.5,4.3,2.5c2.3,0,4.2-1.8,5.5-4.4c1.4-2.7,2.2-6.3,2.2-10.3
				C1063.2,185.3,1062.4,181.6,1061,179z"/>
		</g>
		<g>
			<path class="st5" d="M974.5,182.8l-0.1,0.3c-0.4,2-0.7,4-0.9,6.1l0,0l0,0c0,2.1-0.4,4.1-1.2,5.9l-0.2,0.6h83.8v-12.9H974.5z"/>
		</g>
		<g>
			<path class="st4" d="M1011.9,133.4L1011.9,133.4l-0.2-0.1c-9.8-2.2-17.9-8.9-20.1-18.2V115l-0.1-0.1l0,0l-0.6-0.5l-0.1,0.7
				c0,0-0.5,2.7-1.7,7c-3.6,12.9-13.7,40.4-37.6,53.4l-0.6,0.3l0.7,0.4l0.2,0.1l0.2-0.1c2-1.1,4.3-1.7,6.8-1.7
				c4.1,0,7.8,1.7,10.5,4.3c2.7,2.7,4.3,6.4,4.3,10.5h0.8c2-19.6,11.4-33.4,20.2-42.3c4.4-4.5,8.7-7.7,11.9-9.8
				c1.6-1.1,2.9-1.8,3.8-2.4c0.9-0.5,1.4-0.8,1.4-0.8l0.6-0.3L1011.9,133.4z"/>
		</g>
		<g>
			<path class="st4" d="M940.2,107.8c-2.8,0-5.1,2.3-5.1,5.1s2.3,5.1,5.1,5.1c2.8,0,5.1-2.3,5.1-5.1
				C945.3,110.1,943,107.8,940.2,107.8z"/>
		</g>
		<g>
			<path class="st4" d="M876.9,163.5l-9.9-48.1l-74.7,14.7l10,48.6c3.7,18,19.5,30.4,37.2,30.4c2.5,0,5.1-0.3,7.7-0.8
				c18-3.7,30.4-19.5,30.4-37.2C877.6,168.6,877.4,166,876.9,163.5z"/>
		</g>
		<g>
			<path class="st2" d="M849.8,135.1c0.1,0.2,6.5,10.4,17.5,20.8c5.5,5.2,12.2,10.4,19.9,14.4s16.5,6.7,26.2,6.7
				c12.4,0,25.9-4.7,39.3-16.1c13.5-11.5,27.1-29.6,40.6-57l-8.8-4.4c-13.2,26.6-26.2,43.7-38.2,53.9c-12.1,10.2-23,13.8-32.9,13.8
				c-7.7,0-15-2.2-21.6-5.6c-10-5.1-18.5-13.1-24.4-19.8c-3-3.3-5.3-6.4-6.8-8.5c-0.8-1.1-1.4-1.9-1.8-2.5l-0.4-0.7l-0.1-0.2l0,0
				L849.8,135.1L849.8,135.1z"/>
		</g>
		<g>
			<g>
				<path class="st3" d="M1135.6,232.7c6.4-8.4,16.4-13.8,27.7-13.8h74c14.6-107.8-67.5-115.2-67.5-115.2L1015,85.4
					c-13.5,0-24.4,10.9-24.4,24.4s11.3,22.9,24.4,24.4c0,0,37.2,5.4,82.1,15.7c39.8,9.1,30.7,82.7,30.7,82.7h7.8V232.7z"/>
			</g>
			<g>
				<path class="st3" d="M1135.6,232.7l0.3,0.2c6.3-8.3,16.3-13.6,27.4-13.6h74.4v-0.4c1.2-8.8,1.7-17,1.7-24.5
					c0-42.3-17.4-65.2-34.8-77.4s-34.8-13.8-34.8-13.8v0.4v-0.4L1015,84.9l0,0c-13.7,0-24.9,11.1-24.9,24.9
					c0,13.8,11.5,23.3,24.8,24.9v-0.4l-0.1,0.4c0,0,2.3,0.3,6.5,1c12.6,2,41.9,7,75.6,14.7c13.5,3.1,21.3,13.6,25.8,26.3
					c4.5,12.7,5.5,27.4,5.5,38.6c0,5.1-0.2,9.5-0.4,12.5c-0.2,3.1-0.4,4.9-0.4,4.9l-0.1,0.5h8.4l0.1-0.2L1135.6,232.7v-0.4h-7.7v0.4
					h0.4c0,0,0.9-7.3,0.9-17.5c0-11.2-1.1-26-5.6-38.8c-4.5-12.8-12.5-23.7-26.3-26.9c-45-10.3-82.1-15.7-82.1-15.7l0,0
					c-13-1.6-24.1-10.8-24.1-24c0-6.6,2.7-12.6,7-17c4.4-4.4,10.4-7,17-7v-0.4v0.4l154.8,18.3l0,0c0,0,1.1,0.1,2.9,0.4
					c6.6,1.2,23.1,5.2,37.9,18.2s28,34.8,28,71.7c0,7.5-0.5,15.6-1.7,24.4l0.4,0.1v-0.4h-74c-11.4,0-21.6,5.5-28,13.9L1135.6,232.7
					v-0.4V232.7z"/>
			</g>
		</g>
		<g>
			<path class="st4" d="M1016.2,101.7c-4.5,0-8.2,3.7-8.2,8.2s3.7,8.2,8.2,8.2s8.2-3.7,8.2-8.2
				C1024.4,105.3,1020.7,101.7,1016.2,101.7z"/>
		</g>
		<g>
			<g>
				<path class="st2" d="M840.9,150.2c-0.2-0.1-8.3-5.5-19.2-5.6c-7.8,0-17.1,3-25,12.8c-3.9,4.7-8,6.4-11.6,6.5
					c-3.2,0-6.3-1.4-8.5-3.8s-3.7-5.7-3.7-9.4c0-3.4,1.2-7.3,4.3-11.2l-3.9-3c-3.7,4.7-5.3,9.6-5.3,14.2c0,5,1.9,9.5,5,12.8
					c3.1,3.3,7.4,5.3,12.1,5.3c5.3,0,10.8-2.6,15.4-8.3c7.1-8.6,14.6-10.9,21.2-11c4.6,0,8.8,1.2,11.7,2.4c1.5,0.6,2.7,1.2,3.5,1.7
					c0.4,0.2,0.7,0.4,0.9,0.5l0.2,0.1h0.1L840.9,150.2L840.9,150.2z"/>
			</g>
		</g>
		<g>
			<g>
				<polygon class="st2" points="766.8,85.4 575,129.3 586.9,186.1 779.3,141.5 				"/>
			</g>
			<g>
				<polygon class="st2" points="766.8,85.4 766.7,85 574.6,129 586.6,186.6 779.8,141.8 767.1,84.9 766.7,85 766.8,85.4 
					766.4,85.5 778.8,141.2 587.3,185.7 575.5,129.6 766.9,85.8 766.8,85.4 766.4,85.5 				"/>
			</g>
		</g>
		<g>
			<path class="st6" d="M856.8,107.8c-11.5,0-20.8,9.3-20.8,20.8c0,10.1,7.2,18.5,16.8,20.4c-1.1,2.2-2.8,2.9-4.8,2.9
				c-1.6,0-3.4-0.5-4.7-1c-0.7-0.3-1.2-0.5-1.6-0.7c-0.4-0.2-0.6-0.3-0.6-0.3l-0.3-0.2l-3.4,4.7l0.4,0.2c3.6,1.8,7.6,2.7,11.9,2.7
				c7.7,0,14.7-3.2,19.7-8.4c5-5.2,8.2-12.4,8.1-20.3C877.6,117.1,868.3,107.8,856.8,107.8z"/>
		</g>
		<g>
			<path class="st3" d="M958.8,173.7c-8.6,0-15.6,7-15.6,15.6s7,15.6,15.6,15.6s15.6-7,15.6-15.6S967.4,173.7,958.8,173.7z"/>
		</g>
		<g>
			<path class="st4" d="M958.8,182.8c-3.6,0-6.5,2.9-6.5,6.5s2.9,6.5,6.5,6.5s6.5-2.9,6.5-6.5C965.2,185.7,962.3,182.8,958.8,182.8z
				"/>
		</g>
		<g>
			<g>
				<g>
					<path class="st4" d="M985,33.8c-3.7,0.4-7.9-4.8-9.5-12s0-13.7,3.5-14.9l0,0L344.8,157.6c-10.3,2.4-16.6,12.7-14.2,23l1.7,7.1
						L985,33.8z"/>
				</g>
				<g>
					<path class="st4" d="M985,33.8v-0.4h-0.4c-1.6,0-3.4-1.2-5-3.2c-1.6-2.1-3-5-3.7-8.4c-0.4-1.9-0.6-3.7-0.6-5.4
						c0-4.7,1.6-8.3,3.9-9l0.4-0.1l-0.1-0.4l-0.1-0.4L344.7,157.2c-9,2.1-15,10.1-15,19c0,1.5,0.2,3,0.5,4.5l1.8,7.5l653.1-154
						l-0.1-0.8V33.8l-0.1-0.4L332.6,187.3l-1.6-6.7c-0.3-1.5-0.5-2.9-0.5-4.3c0-8.5,5.8-16.1,14.4-18.2L979.1,7.4L979,6.9L978.6,7
						l0,0l0.4-0.1l-0.1-0.4c-2.9,1-4.4,4.9-4.4,9.8c0,1.8,0.2,3.7,0.6,5.6c0.8,3.5,2.2,6.6,3.9,8.7c1.7,2.2,3.7,3.5,5.7,3.5h0.4
						L985,33.8l-0.1-0.4L985,33.8z"/>
				</g>
			</g>
			<g>
				<path class="st5" d="M984.2,27.2l-3.1-13.1l6.4-1.5l-0.3-0.5c-1.9-3.4-4.4-5.7-7-5.7c-0.3,0-0.6,0-0.9,0.1
					c-3.2,0.8-4.8,4.8-4.8,9.9c0,1.8,0.2,3.7,0.7,5.6c0.8,3.5,2.2,6.6,3.9,8.8c1.7,2.2,3.7,3.6,5.7,3.6c0.3,0,0.6,0,0.9-0.1
					c2.8-0.7,4.3-3.9,4.7-8l0.1-0.6L984.2,27.2z"/>
			</g>
			<g>
				<polygon class="st4" points="1040,14.3 1036.6,0 980.1,13.4 983.6,28.1 1040.1,14.7 				"/>
			</g>
		</g>
		<g>
			<g>
				<path class="st5" d="M327,278c-4.7,10.8-12.7,8.3-12.7,8.3v-9.5c-11.2,2-19.7,11.7-19.7,23.5c0,13.2,10.7,23.9,23.9,23.9
					c13.2,0,23.9-10.7,23.9-23.9C342.3,290.1,336,281.5,327,278z M318.5,310.7c-5.7,0-10.4-4.7-10.4-10.4c0-5.7,4.7-10.4,10.4-10.4
					c5.7,0,10.4,4.7,10.4,10.4C328.9,306,324.2,310.7,318.5,310.7z"/>
				<path class="st2" d="M318.5,324.5c-13.4,0-24.2-10.9-24.2-24.2c0-11.8,8.4-21.8,20-23.8l0.4-0.1v9.6c1.4,0.3,7.9,1.3,12-8.1
					l0.1-0.3l0.3,0.1c9.4,3.6,15.5,12.5,15.5,22.6C342.7,313.6,331.8,324.5,318.5,324.5z M313.9,277.2c-11,2.2-18.9,11.8-18.9,23
					c0,12.9,10.5,23.5,23.5,23.5c12.9,0,23.5-10.5,23.5-23.5c0-9.7-5.8-18.2-14.7-21.8c-2.5,5.5-5.8,7.4-8.2,8.1
					c-2.7,0.7-4.7,0.1-4.8,0.1l-0.3-0.1v-9.3H313.9z M318.5,311c-5.9,0-10.8-4.8-10.8-10.8c0-5.9,4.8-10.8,10.8-10.8
					c5.9,0,10.8,4.8,10.8,10.8C329.3,306.2,324.4,311,318.5,311z M318.5,290.2c-5.5,0-10,4.5-10,10s4.5,10,10,10s10-4.5,10-10
					S324,290.2,318.5,290.2z"/>
			</g>
			<g>
				<path class="st5" d="M330.5,249.3L330.5,249.3l-0.2-0.9l-0.1-0.4l-0.4,0.1l-3.1,0.7l-3.6-15.8l2.3-0.5l0.4-0.1l-1.2-4.3
					l-2.1,0.5l-3.6-15.8l0.9-0.2l0.4-0.1l-1.2-4.3l-0.8,0.2l-3.4-15.1l-0.3-1.2l-0.1-0.4l-15.9,4.2v51.4l15.3,39.4l0.2,0.1
					c0,0,0.9,0.3,2.3,0.3c2.3,0,5.9-0.8,8.9-5.1c3-4.2,5.4-11.8,5.4-25.2C330.7,254.4,330.7,251.9,330.5,249.3z"/>
			</g>
			<g>
				<g>
					<polygon class="st5" points="575.4,128.8 574.9,128.9 313.8,191.8 317.8,209.3 579,146.1 					"/>
				</g>
				<g>
					<polygon class="st5" points="579.5,149 579.1,149.1 318,212.1 321.9,229.5 583.2,166.3 					"/>
				</g>
				<g>
					<polygon class="st5" points="583.7,169.3 583.3,169.4 322.2,232.4 326.1,249.8 587.3,186.6 					"/>
				</g>
			</g>
			<g>
				<g>
					<path class="st3" d="M324.7,340.3h-12.1c-2.3,0-4.1-1.9-4.1-4.1v-28.8c0-2.3,1.9-4.1,4.1-4.1h12.1c2.3,0,4.1,1.9,4.1,4.1v28.8
						C328.9,338.5,327,340.3,324.7,340.3z"/>
				</g>
				<g>
					<path class="st3" d="M324.7,340.3v-0.4h-12.1c-2.1,0-3.7-1.7-3.7-3.7v-28.8c0-2.1,1.7-3.7,3.7-3.7h12.1c2.1,0,3.7,1.7,3.7,3.7
						v28.8c0,2.1-1.7,3.7-3.7,3.7V340.3v0.4c2.5,0,4.6-2,4.6-4.6v-28.8c0-2.5-2-4.6-4.6-4.6h-12.1c-2.5,0-4.6,2-4.6,4.6v28.8
						c0,2.5,2,4.6,4.6,4.6h12.1V340.3z"/>
				</g>
			</g>
		</g>
	</g>
	<g>
		<g>
			<polygon class="st4" points="624.9,392.2 624.9,439.1 652.9,447.5 652.9,397.9 			"/>
		</g>
		<g>
			<g>
				<polygon class="st3" points="652.5,398.3 652.5,471.5 681.3,484.5 681.8,404 				"/>
			</g>
			<g>
				<polygon class="st3" points="652.5,398.3 652.1,398.3 652.1,471.7 681.7,485.2 682.3,403.7 652.1,397.8 652.1,398.3 
					652.5,398.3 652.4,398.7 681.4,404.3 680.9,483.9 652.9,471.2 652.9,398.3 652.5,398.3 652.4,398.7 				"/>
			</g>
		</g>
		<g>
			<g>
				<g>
					<path class="st2" d="M724.2,422.3l-26.1,1.6c20-1.2,37.6,19.9,39.2,47c1.6,27.2-13.3,50.2-33.3,51.4l26.1-1.6
						c20-1.2,34.9-24.2,33.3-51.4S744.3,421.1,724.2,422.3z"/>
				</g>
				<g>
					<path class="st2" d="M724.2,422.3v-0.4l-26.1,1.6v0.7c0.5,0,1.1,0,1.6,0c19.1,0,35.6,20.4,37.2,46.7c0.1,1.4,0.1,2.7,0.1,4
						c0,25.3-14.3,45.9-33.1,47v0.7L730,521c19.3-1.2,33.8-22.2,33.8-47.7c0-1.3,0-2.7-0.1-4.1c-1.6-26.6-18.3-47.4-37.9-47.4
						c-0.5,0-1.1,0-1.7,0L724.2,422.3v0.4c0.5,0,1.1,0,1.6,0c19.1,0,35.7,20.4,37.2,46.7c0.1,1.4,0.1,2.7,0.1,4
						c0,25.3-14.3,45.9-33.1,47l-26,1.5v0.7c19.3-1.2,33.8-22.2,33.8-47.7c0-1.3,0-2.7-0.1-4.1c-1.6-26.6-18.3-47.4-37.9-47.4
						c-0.5,0-1.1,0-1.7,0v0.7l26.1-1.6L724.2,422.3z"/>
				</g>
			</g>
			<g>
				<path class="st5" d="M737.7,470.8c-1.6-26.6-18.3-47.4-37.9-47.4c-0.5,0-1.1,0-1.7,0c-19.3,1.2-33.8,22.2-33.8,47.7
					c0,1.3,0,2.7,0.1,4.1c1.6,26.6,18.3,47.4,37.9,47.4c0.5,0,1.1,0,1.7,0c19.3-1.2,33.8-22.2,33.8-47.7
					C737.9,473.6,737.8,472.2,737.7,470.8z"/>
			</g>
			<g>
				<path class="st4" d="M719.7,471.9h-0.4H719.7c-1.1-18.3-11.7-32.7-24.1-32.8c-0.3,0-0.6,0-1,0c-12.1,0.8-21.1,15.1-21.1,32.4
					c0,1,0,2,0.1,3.1c1.1,18.3,11.7,32.7,24.1,32.8c0.3,0,0.6,0,1,0c12.1-0.8,21.1-15.1,21.1-32.4C719.8,474,719.8,473,719.7,471.9z
					"/>
			</g>
			<g>
				<g>
					<path class="st3" d="M714.5,472.2c-0.9-14.1-9-25.3-18.7-25.3h-0.7c-9.4,0.6-16.3,11.6-16.3,25.1c0,0.8,0,1.6,0.1,2.4
						c0.9,14.1,9,25.3,18.7,25.3h0.7c9.4-0.6,16.3-11.7,16.3-25.1C714.6,473.8,714.6,473,714.5,472.2z"/>
				</g>
				<g>
					
						<ellipse transform="matrix(0.9982 -5.993200e-02 5.993200e-02 0.9982 -27.1409 42.2941)" class="st7" cx="691.5" cy="473.6" rx="11.3" ry="16.9"/>
				</g>
			</g>
		</g>
		<g>
			<g>
				<g>
					<path class="st2" d="M812.7,436.7l-29.5,1.8c22.7-1.4,42.5,22.5,44.4,53.2c1.8,30.7-15,56.8-37.7,58.1l29.5-1.8
						c22.7-1.4,39.5-27.4,37.7-58.1C855.2,459.1,835.4,435.3,812.7,436.7z"/>
				</g>
				<g>
					<path class="st2" d="M812.7,436.7v-0.4l-29.5,1.8v0.8c0.6,0,1.2-0.1,1.8-0.1c21.6,0,40.3,23.1,42.1,52.9
						c0.1,1.5,0.1,3.1,0.1,4.6c0,28.6-16.2,51.9-37.4,53.1v0.8l29.5-1.8c21.8-1.3,38.2-25.1,38.2-53.9c0-1.5,0-3.1-0.1-4.6
						c-1.8-30-20.7-53.6-42.9-53.6c-0.6,0-1.2,0-1.9,0.1L812.7,436.7v0.4c0.6,0,1.2-0.1,1.8-0.1c21.6,0,40.3,23.1,42.1,52.9
						c0.1,1.5,0.1,3.1,0.1,4.6c0,28.6-16.2,51.9-37.4,53.1l-29.5,1.8v0.8c21.8-1.3,38.2-25.1,38.2-53.9c0-1.5,0-3.1-0.1-4.6
						c-1.8-30-20.7-53.6-42.9-53.6c-0.6,0-1.2,0-1.9,0.1v0.8l29.5-1.8L812.7,436.7z"/>
				</g>
			</g>
			<g>
				<path class="st5" d="M828,491.6c-1.8-30-20.7-53.6-42.9-53.6c-0.6,0-1.2,0-1.9,0.1c-21.8,1.3-38.2,25.1-38.2,53.9
					c0,1.5,0,3.1,0.1,4.6c1.8,30,20.7,53.6,42.9,53.6c0.6,0,1.2,0,1.9-0.1c21.8-1.3,38.2-25.1,38.2-53.9
					C828.1,494.7,828.1,493.2,828,491.6z"/>
			</g>
			<g>
				<path class="st4" d="M807.6,492.8h-0.4H807.6c-1.2-20.7-13.2-37-27.3-37.1c-0.4,0-0.7,0-1.1,0c-13.7,0.9-23.8,17-23.8,36.7
					c0,1.1,0,2.3,0.1,3.5c1.2,20.7,13.2,37,27.3,37.1c0.4,0,0.7,0,1.1,0c13.7-0.9,23.8-17,23.8-36.7
					C807.7,495.2,807.7,494,807.6,492.8z"/>
			</g>
			<g>
				<g>
					<path class="st3" d="M801.7,493.2c-1-16-10.2-28.6-21.1-28.6h-0.8c-10.6,0.7-18.4,13.2-18.4,28.3c0,0.9,0,1.8,0.1,2.7
						c1,16,10.2,28.6,21.1,28.6h0.8c10.6-0.7,18.4-13.2,18.4-28.3C801.8,495,801.8,494.1,801.7,493.2z"/>
				</g>
				<g>
					
						<ellipse transform="matrix(0.9982 -5.993200e-02 5.993200e-02 0.9982 -28.2601 47.3787)" class="st7" cx="775.7" cy="494.8" rx="12.8" ry="19.1"/>
				</g>
			</g>
		</g>
		<g>
			<polygon class="st4" points="843.2,453.5 1159.6,451.2 1156.7,505.7 1116.8,534.2 			"/>
			<path class="st2" d="M1116.8,534.6h-0.2l-276-81.3h2.5l316.8-2.4v0.4l-2.9,54.6l-0.1,0.1L1116.8,534.6z M845.7,453.9l271,79.9
				l39.6-28.2l2.9-54L845.7,453.9z"/>
		</g>
		<g>
			<polygon class="st1" points="946.2,328 590,308.9 590,388.3 681.8,404.4 945.3,447.5 946.2,365 945.7,365 946.2,365 			"/>
		</g>
		<g>
			<path class="st4" d="M1106.9,221.9v164h35.4l0.1-139.1h-0.4h0.4c0-9.1,3.1-17.5,8.3-24.3l0.5-0.7h-44.3V221.9z"/>
		</g>
		<g>
			<rect x="945.3" y="328" class="st0" width="162.4" height="58"/>
		</g>
		<g>
			<path class="st5" d="M1142.3,411.1v-26h-273v0.4c0,43.2,35,78.2,78.2,78.2h181.3v-0.4l13.1-52.2L1142.3,411.1L1142.3,411.1z"/>
		</g>
		<g>
			<g>
				<rect x="682.6" y="572.3" class="st4" width="15.2" height="81.4"/>
			</g>
			<g>
				<polygon class="st4" points="697.8,653.8 697.8,653.4 683,653.4 683,572.7 697.4,572.7 697.4,653.8 697.8,653.8 697.8,653.4 
					697.8,653.8 698.2,653.8 698.2,571.9 682.2,571.9 682.2,654.2 698.2,654.2 698.2,653.8 				"/>
			</g>
		</g>
		<g>
			<rect x="674.2" y="554.9" class="st5" width="32" height="17.9"/>
		</g>
		<g>
			<g>
				<path class="st6" d="M659.9,676.4c0-9.8,22.7-10.2,22.7-22.7h15.2c0,12.5,22.7,13.2,22.7,22.7H659.9z"/>
			</g>
			<g>
				<path class="st3" d="M659.9,676.4h0.4c0-2.3,1.3-4,3.4-5.6c3.1-2.4,7.9-4.2,11.9-6.6c4-2.4,7.4-5.5,7.4-10.4h-0.4v0.4h15.2v-0.4
					h-0.4c0,3.3,1.5,5.8,3.7,7.8c3.3,3,8.1,5.1,12,7.2c2,1.1,3.7,2.2,5,3.4c1.2,1.2,2,2.6,2,4.2h0.4V676h-60.6L659.9,676.4h0.4
					H659.9v0.4h61v-0.4c0-2.5-1.5-4.5-3.7-6.1c-3.3-2.4-8-4.3-12-6.7s-7-5.4-7-9.8v-0.4h-16.1v0.4c0,3-1.3,5.2-3.4,7.1
					c-3.1,2.9-7.9,4.8-11.9,7c-2,1.1-3.8,2.2-5.2,3.6c-1.3,1.4-2.2,3-2.2,4.9v0.4h0.4v-0.4H659.9z"/>
			</g>
		</g>
		<g>
			
				<rect x="1021.1" y="483.5" transform="matrix(0.9975 -7.015077e-02 7.015077e-02 0.9975 -31.2797 77.0676)" class="st6" width="121.1" height="0.8"/>
		</g>
		<g>
			<polygon class="st8" points="943.7,306.7 943.7,306.7 590.4,308.9 590.4,309.7 945.7,328.8 945.7,328.8 1107.8,328.8 
				1107.8,312.2 			"/>
		</g>
		<g>
			<path class="st6" d="M1021.3,487.7L843,453.1l-0.1,0.2c0,0-8.9,14.5-8.9,34.8c0,7.2,1.1,15.1,4.2,23.3c2.5,6.9,8.4,12,15.5,13.6
				l168.1,39.3v-76.5L1021.3,487.7z"/>
		</g>
		<g>
			<path class="st5" d="M1128.9,462.9l-167.4,5.8l0,0c-7.6,0-11.7,4.5-13.8,9.3c-2.1,4.9-2.3,10.2-2.3,12.2c0,0.5,0,0.8,0,0.8
				c-0.2,8.4-0.2,17.3-0.2,25.5c0,16.3,0.2,29.7,0.2,29.7l0,0c0,0.3,0,3,1.7,5.7s5.1,5.4,11.6,5.3c0.8,0,1.7,0,2.6-0.1l0,0l15.2-3.4
				l-0.2-0.8c-0.7,0.1-1.4,0.2-2.1,0.2c-4.7,0-7-2.7-8.3-5.8c-1.3-3-1.4-6.4-1.4-7.3v-0.3l0,0l0,0c0,0,0.1-31.8,0.2-46.2h-0.4h0.4
				l0,0c0,0,0-0.2,0-0.5c0-1.4,0.2-5.6,1.8-9.3c1.6-3.7,4.6-7,10.3-7h0.3l0,0l189.4-5.6L1128.9,462.9z"/>
		</g>
		<g>
			<path class="st5" d="M936.7,462.2l-3.7-0.7c-7-1.3-13.7-3.6-19.9-6.7H913l-23.6,0.8l0,0c-7,0-11,3.5-13.1,7.7
				c-2.1,4.1-2.4,8.9-2.4,11.6c0,1.2,0.1,2,0.1,2.1c-0.2,8-0.2,16.5-0.2,24.3c0,15.6,0.2,28.3,0.2,28.3l0,0c0,0.3,0,2.9,1.7,5.5
				c1.6,2.6,4.9,5.1,11.1,5.1c0.8,0,1.6,0,2.4-0.1l0,0l14.5-3.3l-0.2-0.8c-0.7,0.1-1.4,0.2-2,0.2c-4.4,0-6.7-2.6-7.9-5.5
				c-1.2-2.9-1.3-6.1-1.3-7v-0.2l0,0c0,0,0.1-30.4,0.1-44.1l0,0l0,0c0,0-0.1-0.8-0.1-2.1c0-2.2,0.3-5.6,2-8.5
				c1.6-2.9,4.5-5.3,9.9-5.4V463v0.4L936.7,462.2z"/>
		</g>
		<g>
			<g>
				<path class="st6" d="M1126,507.4L1126,507.4l-104.8-19.2v75.7l99.7,22.5C1118.4,563.7,1117.4,532.8,1126,507.4z"/>
			</g>
			<g>
				<path class="st6" d="M1126,507.4l0.4,0.1v-0.1l0.1-0.4l-105.7-19.3v76.5l100.6,22.7l-0.1-0.6c-1-9.1-1.8-19.5-1.8-30.3
					c0-16.1,1.7-33.3,6.8-48.4l0,0L1126,507.4l-0.4-0.1c-5.1,15.3-6.8,32.4-6.8,48.6c0,10.9,0.8,21.3,1.8,30.4h0.4l0.1-0.4
					l-99.4-22.4v-74.8l104.3,19l0.1-0.4l-0.4-0.1v0.1L1126,507.4l-0.4-0.1L1126,507.4z"/>
			</g>
		</g>
		<g>
			<path class="st2" d="M909.4,452.9c-18.3-10.4-32-28-37.1-49l-0.1-0.3H681.4v152.1h17.1V431.1l24.6,23.4l187.6-0.8L909.4,452.9z"
				/>
		</g>
		<g>
			<path class="st2" d="M1079.1,328.7h-13.3v-87.6h13.3V328.7z M1066.5,328h11.8v-86.1h-11.8V328z"/>
		</g>
		<g>
			<path class="st5" d="M934.3,241.1v87.1l11.5,0.6l0,0h7.4v-30.7h112.6v30.7h13.4v-30.7h28.7V286h-28.7v-32.9h28.7V241H934.3V241.1
				z M1065.7,286.1H953.1v-32.9h112.6V286.1z"/>
		</g>
	</g>
	<g>
		<g>
			<path class="st5" d="M1613.6,208.6h-44.2c-5.6,0-10.2,4.6-10.2,10.2v131.6c0,5.6,4.6,10.2,10.2,10.2h44.2
				c5.6,0,10.2-4.6,10.2-10.2V218.8C1623.7,213.2,1619.2,208.6,1613.6,208.6z"/>
		</g>
		<g>
			<g>
				<path class="st3" d="M1142,411.1V246.8c0-22.3,18.2-40.5,40.5-40.5h144.9c22.3,0,40.5,18.2,40.5,40.5v333.8L1142,530.2V411.1z"
					/>
			</g>
			<g>
				<path class="st3" d="M1142,411.1h0.4V246.8c0-11,4.5-21,11.8-28.3s17.3-11.8,28.3-11.8h144.9c11,0,21,4.5,28.3,11.8
					s11.8,17.3,11.8,28.3v333.3l-225-50.1V411.2L1142,411.1l-0.4,0.1v119.5l226.7,50.5V246.8c0-22.5-18.4-40.9-40.9-40.9h-144.9
					c-22.5,0-40.9,18.4-40.9,40.9v164.3H1142z"/>
			</g>
		</g>
		<g>
			<g>
				<path class="st9" d="M1352.7,344.7l-126.5-13.2c-9.4-1-16.6-9-16.6-18.5v-51.4c0-10.5,8.7-18.9,19.2-18.5l113.9,3.7
					c5.6,0.2,10,4.8,10,10.4V344.7z"/>
			</g>
			<g>
				<path class="st9" d="M1352.7,344.7v-0.4l-126.5-13.2c-9.2-1-16.3-8.8-16.3-18v-51.4c0-5,2-9.6,5.3-12.8
					c3.3-3.3,7.8-5.3,12.8-5.3h0.6l113.9,3.7c5.4,0.2,9.6,4.6,9.6,10v87.5h0.6v-0.4V344.7h0.4v-87.5c0-5.8-4.6-10.6-10.4-10.8
					l-113.9-3.7h-0.6c-10.4,0-18.9,8.5-18.9,19v51.4c0,9.7,7.3,17.8,17,18.9l126.9,13.3v-0.5L1352.7,344.7L1352.7,344.7z"/>
			</g>
		</g>
		<g>
			<rect x="1231" y="332" class="st4" width="0.8" height="87.8"/>
		</g>
		<g>
			<path class="st6" d="M1569.1,183.1h-171.2c0,0-54.6,0-112.9,4.9c-29.1,2.4-59.2,6.1-83.8,11.5c-24.6,5.5-43.7,12.7-51.2,22.6
				l-0.5,0.7l0.9-0.1l176.6-15.9l0.9,435.9l0.3,0.1c0.8,0.2,1.6,0.5,2.5,0.7c23.6,6.5,47.8,9.7,72,9.7c31.6,0,63.2-5.5,93.3-16.4
				l114-41.4V223.9C1610,201.5,1591.6,183.1,1569.1,183.1z"/>
		</g>
		<g>
			<path class="st2" d="M1495.7,636c-18.2,6.6-36.9,11.2-55.8,13.8l-1,0.1l0.8,0.6c15.2,11,33.8,17.4,54,17.4
				c40.4,0,74.8-26,87.3-62.2l0.3-0.8L1495.7,636z"/>
		</g>
		<g>
			<g>
				<path class="st4" d="M1153.6,468.3l-3.2-0.7l-0.5-0.1v9.6l-16.1,12.3v0.1c-11.7,18.6-15.1,43.5-15.1,66.5
					c0,33,7.1,61.9,7.1,61.9l0.1,0.3h10.2l-0.2-0.5c-1.2-3.9-2.2-7.7-3-11.4l0,0l0,0c-1.6-6.3-2.9-12.9-3.7-19.7
					c-0.6-5.5-0.9-10.9-0.9-16.2c0-45.7,22.3-84.2,54.7-94.7l1.4-0.5L1153.6,468.3z"/>
			</g>
			<g>
				<path class="st3" d="M1150.8,467.6l-11.5-2.5v7.6l-17.8,13v0.1c0,0-14.2,31.6-14.2,73.2c0,13.2,1.4,27.3,5.2,41.8
					c1.9,7.4,6.8,13.7,13.6,17.2l0.8,0.4l-0.2-0.9c0,0-0.3-1.3-0.8-3.6c-1.5-7.1-4.6-23.7-5.8-43.4c-0.3-4.7-0.4-9.6-0.4-14.6v-0.7
					h-0.4h0.4c0-1.7,0-3.5,0.1-5.3c0.1-3.5,0.3-7.1,0.6-10.6c0.3-3.6,0.7-7.1,1.2-10.6c1.6-10.6,4.2-20.8,8.4-30
					c1.4-3,2.9-6,4.7-8.7l16.3-12.4v-10H1150.8z"/>
			</g>
		</g>
		<g>
			<g>
				<path class="st2" d="M1339.6,562.4c-6.3-55.1-42.6-96.9-83.1-96.9c-2.2,0-4.4,0.1-6.6,0.4l0,0l-55.7,6.3l0.1,0.8
					c2.2-0.2,4.4-0.4,6.5-0.4c39.9,0,76.1,41.3,82.3,96.2c0.6,5.5,0.9,10.9,0.9,16.2c0,50.8-27.6,92.8-66,97.1l0.1,0.8l55.7-6.3
					c39-4.5,66.7-46.8,66.7-97.9C1340.5,573.4,1340.2,567.9,1339.6,562.4z"/>
			</g>
			<g>
				<path class="st5" d="M1283.9,568.8h-0.4H1283.9c-6.3-55.1-42.6-96.9-83.1-96.9c-2.2,0-4.4,0.1-6.6,0.4
					c-39,4.5-66.7,46.8-66.7,97.9c0,5.3,0.3,10.8,0.9,16.3c6.3,55.1,42.6,96.9,83.1,96.9c2.2,0,4.4-0.1,6.6-0.4
					c39-4.5,66.7-46.8,66.7-97.9C1284.8,579.7,1284.5,574.3,1283.9,568.8z"/>
			</g>
			<g>
				<path class="st4" d="M1245.5,573.1c-4.3-38-27.6-67.1-53.2-67.1c-1.3,0-2.5,0.1-3.8,0.2c-24.3,2.8-41.2,31.2-41.2,65.7
					c0,4,0.2,8.1,0.7,12.2c4.3,38,27.6,67.1,53.2,67.1c1.3,0,2.5-0.1,3.8-0.2c24.3-2.8,41.2-31.2,41.2-65.7
					C1246.2,581.4,1245.9,577.3,1245.5,573.1z"/>
			</g>
			<g>
				<path class="st3" d="M1234.4,574c-3.4-29.4-21.3-51.9-41.2-51.9c-1,0-2,0.1-2.9,0.2c-18.8,2.2-31.9,24.2-31.9,50.9
					c0,3.1,0.2,6.3,0.5,9.5c3.4,29.4,21.3,51.9,41.2,51.9c1,0,2-0.1,2.9-0.2c18.8-2.2,31.9-24.2,31.9-50.9
					C1235,580.4,1234.8,577.2,1234.4,574z"/>
			</g>
			<g>
				<path class="st7" d="M1210.3,576.8c-2.2-19.1-13.8-33.7-26.8-33.7c-0.6,0-1.3,0-1.9,0.1c-12.3,1.4-20.8,15.7-20.8,33.1
					c0,2,0.1,4.1,0.4,6.1c2.2,19.1,13.8,33.7,26.8,33.7c0.6,0,1.3,0,1.9-0.1c12.3-1.4,20.8-15.7,20.8-33.1
					C1210.6,580.9,1210.5,578.9,1210.3,576.8z"/>
			</g>
		</g>
		<g>
			<polygon class="st3" points="1281,499.9 1280.9,604.5 1281.2,604.6 1328.7,615.6 1328.7,510.9 			"/>
		</g>
		<g>
			<path class="st6" d="M1277.4,427.2l-122.3-20.3l0,0c-14.7,0-26.7,11.9-26.7,26.7v30.1l100,21.7l0,0c14.2,2,21.7,9.5,25.7,17.3
				s4.5,16,4.5,19.4c0,1.1,0,1.6,0,1.6l0,0v76.5l22.8,4.4l32.2-7.7V463.3C1313.5,443.4,1298.5,430.3,1277.4,427.2z"/>
		</g>
		<g>
			<g>
				<polygon class="st0" points="1328.4,541.4 1281.5,531.3 1281.1,531.4 1281,531.7 1281,538.9 1281.3,539.3 1328.2,550 
					1328.6,550 1328.7,549.6 1328.7,541.8 				"/>
			</g>
			<g>
				<polygon class="st1" points="1328.4,530.9 1304.5,526.2 1304.3,526.2 1281.3,531.3 1281,531.7 1281.3,532.1 1328.2,542.2 
					1328.6,542.1 1328.7,541.8 1328.7,531.3 				"/>
			</g>
		</g>
		<g>
			<g>
				<polygon class="st0" points="1328.4,502.9 1281.5,492.8 1281.1,492.9 1281,493.2 1281,500.4 1281.3,500.8 1328.2,511.6 
					1328.6,511.5 1328.7,511.2 1328.7,503.3 				"/>
			</g>
			<g>
				<polygon class="st1" points="1328.4,492.5 1304.5,487.7 1304.3,487.7 1281.3,492.8 1281,493.2 1281.3,493.6 1328.2,503.7 
					1328.6,503.6 1328.7,503.3 1328.7,492.9 				"/>
			</g>
		</g>
		<g>
			<g>
				<polygon class="st0" points="1328.4,587.7 1281.5,577.7 1281.1,577.7 1281,578.1 1281,585.2 1281.3,585.6 1328.2,596.4 
					1328.6,596.3 1328.7,596 1328.7,588.1 				"/>
			</g>
			<g>
				<polygon class="st1" points="1328.4,577.3 1304.5,572.6 1304.3,572.6 1281.3,577.7 1281,578.1 1281.3,578.5 1328.2,588.5 
					1328.6,588.5 1328.7,588.1 1328.7,577.7 				"/>
			</g>
		</g>
		<g>
			<g>
				<path class="st3" d="M1130.2,425.5l124.7,21.9l0,0c0,0,0.4,0,1.1,0.2c2.5,0.4,8.7,2,14.3,7.3c5.6,5.3,10.6,14.2,10.6,29.6
					c0,1.2,0,2.4-0.1,3.7l0,0l0.2,115.7h0.8l-0.2-115.7h-0.4h0.4c0.1-1.3,0.1-2.5,0.1-3.7c0-17.8-6.7-27.3-13.3-32.3
					c-6.7-5-13.3-5.6-13.4-5.6v0.4l0.1-0.4l-124.7-21.9L1130.2,425.5L1130.2,425.5z"/>
			</g>
		</g>
		<g>
			<path class="st4" d="M1327.4,205.9h-144.9c-24.7,0.4-37.3,13.8-40.9,32.8l-1.2,1.7l-0.1,2.3l1.9-2.6l-0.1,0.5l201.1,6.9l0,0
				c5,0,9.1,4.1,9.1,9.1l-0.1,189.2c0,6.6-2.7,12.6-7,17c-4.3,4.3-10.3,7-17,7h-0.4v172.9l0.3,0.1c4.6,1,8.6,1.4,12.2,1.4
				c13.6,0,20.7-6.3,24.3-12.2c2.5-4.2,3.6-9.2,3.6-14.1V246.8C1368.3,224.3,1349.9,205.9,1327.4,205.9z"/>
		</g>
		<g>
			<g>
				<path class="st6" d="M1217.3,417.5v-54.2c0-10.8-8.8-19.6-19.6-19.6l0,0l-55.7-4.2l-0.1,0.8l55.8,4.2l0,0
					c5.2,0,9.9,2.1,13.3,5.5s5.5,8.1,5.5,13.3v54.2L1217.3,417.5L1217.3,417.5z"/>
			</g>
			<g>
				<path class="st6" d="M1141.9,340.3L1141.9,340.3L1141.9,340.3z"/>
			</g>
		</g>
		<g>
			<path class="st5" d="M1236.2,375.8l-5.2-0.3v34.9l3.3,0.4c0.4,0.1,0.9,0.1,1.3,0.1c5.3,0,9.7-4.3,9.7-9.7v-15.7
				C1245.2,380.4,1241.3,376.2,1236.2,375.8z"/>
		</g>
		<g>
			<g>
				<polygon class="st0" points="1328.8,635.1 1281.9,625.1 1281.5,625.2 1281.4,625.5 1281.4,632.7 1281.7,633.1 1328.6,643.8 
					1335.7,645.3 1333.3,642.1 1329.2,635.5 				"/>
			</g>
			<g>
				<polygon class="st1" points="1328.8,624.7 1304.9,620 1304.7,620 1281.7,625.1 1281.4,625.5 1281.7,625.9 1328.7,635.9 
					1329,635.9 1329.2,635.5 1329.2,625.1 				"/>
			</g>
		</g>
		<g>
			<path class="st4" d="M1610.3,421.4h-0.4v-0.1l-2.6,0.5l-1.4,0.2l-0.4,0.1v0.1l-199.3,36.3c-3.5,0.6-7.1,1-10.7,1
				c-3.5,0-7-0.3-10.5-0.9l-30.1-5.4v78.7l0.2,0.1c0,0,20.7,11.1,47.1,11.1c7.3,0,15-0.8,22.9-3l0,0l121.1-28.9l0,0l31.4-7.1
				c0.1,0,9.5-1.8,18.8-4.3c4.7-1.3,9.4-2.7,13-4.3c1.8-0.8,3.3-1.6,4.4-2.4c1.1-0.8,1.8-1.7,1.8-2.7v-63.6
				C1615.7,423.8,1613.2,421.4,1610.3,421.4z"/>
		</g>
		<g>
			<path class="st5" d="M1602.3,427.7c0-2.8-2.3-5.1-5.1-5.1c-0.3,0-0.6,0-0.9,0.1L1418,455.3c-3.3,0.6-5.5,3.5-5.5,6.6
				c0,0.8,0.1,1.5,0.4,2.3l0,0l21.1,58.7l0,0c0,0.1,5.6,11.7,21.3,11.7c3.8,0,8.1-0.7,13-2.3l103.3-23.6c9-2.7,13.9-2.2,18.9-27.7
				l0,0l11.6-52.2C1602.2,428.4,1602.3,428,1602.3,427.7z"/>
		</g>
		<g>
			<path class="st1" d="M1410.2,456.8l0.2,0.5c1.1,2.9,3.8,4.9,6.9,4.9c0.3,0,0.6,0,0.9-0.1l54.1-6.5c1-0.1,2-0.2,3-0.2
				c3.3,0,6.6,0.6,9.6,1.9c6.3,2.6,17.2,6.2,29.6,6.2c12.8,0,27.3-3.9,39.8-16.7c3.5-3.6,7.6-6.4,12.4-7.9l30.4-9.7
				c3.3-1.1,5.8-3.8,6.6-7.2l0.1-0.6L1410.2,456.8z"/>
		</g>
		<g>
			<g>
				<path class="st4" d="M1609.2,504.9c-0.8,6.5-7.8,10.9-14.8,13.6c-3.5,1.4-7,2.3-9.5,2.9c-2.6,0.6-4.3,0.9-4.3,0.9l0,0l0,0
					c0,0-90.5,20.7-133.7,31c-19,4.5-36.7,5.8-50.4,5.8c-8.7,0-15.8-0.5-20.7-1c-5-0.5-7.7-1-7.7-1l-0.1,0.8c0,0,11.2,2,28.6,2
					c13.8,0,31.5-1.3,50.6-5.8c21.6-5.2,55-12.9,83-19.4c14-3.2,26.7-6.1,35.8-8.2c9.1-2.1,14.7-3.4,14.8-3.4c0.1,0,6.9-1.1,14-3.8
					c7.1-2.8,14.5-7.2,15.4-14.2L1609.2,504.9z"/>
			</g>
			<g>
				<path class="st4" d="M1367.8,557.8L1367.8,557.8L1367.8,557.8z"/>
			</g>
		</g>
		<g>
			
				<rect x="1319.8" y="591.1" transform="matrix(0.2255 -0.9742 0.9742 0.2255 439.4971 1749.5786)" class="st6" width="0.7" height="14.5"/>
		</g>
		<g>
			<g>
				<path class="st4" d="M1617.1,502.9h-0.6h-0.3c-0.9,0-3.5,0-5.2,0c-0.7,0-1.2,0-1.4,0l-0.3,0.1v0.3c0,0.1,0,3.9-3.6,8
					c-3.6,4.1-10.9,8.4-25.4,9.6c-2.7,0.2-4.8,1.5-6.4,3.5c-4.7,5.7-5.3,16.7-5.9,20.3l0,0l-7.7,57.1l0,0c-0.1,0.4-0.1,0.7-0.1,1
					c0,3.7,3,6.6,6.6,6.6c0.4,0,0.7,0,1.1-0.1c13.2-2.2,38.9-7.8,55.7-19.8c3.9-2.8,6.2-7.2,6.2-11.9v-61.2
					C1629.9,509.2,1624.3,502.9,1617.1,502.9z"/>
			</g>
			<g>
				<path class="st4" d="M1457.7,559.5c-1.7-4.8-6.4-8-11.5-8c-0.8,0-1.7,0.1-2.5,0.3c-11.3,2.3-30.7,5.5-51.6,5.5
					c-18.9,0-38.9-2.6-55-10.9c-1.1-0.5-2.2-0.8-3.2-0.8c-3.6,0-7,2.8-7,6.7l-0.2,10.9h0.4h-0.4v71.2c0,6.4,4.6,11.8,11,13.1
					c14.6,3,36.7,8.7,63.1,8.7c22.1,0,47.2-4,73.4-17.1c4.4-2.2,7-6.5,7-11c0-1.3-0.2-2.7-0.7-4L1457.7,559.5z"/>
			</g>
		</g>
		<g>
			<g>
				<path class="st7" d="M1443.6,606l0.3-0.2l-10.8-30.1l0,0c0,0-3.2-6.7-10.3-6.7c-0.6,0-1.3,0.1-2,0.2l0,0c0,0-3.2,0.5-8.2,0.9
					c-5,0.5-11.8,0.9-19,0.9c-10.7,0-22.2-1.1-29.7-4.7l-0.3-0.1l-0.2,0.3l-5.1,6.8v35.8l0.3,0.1c0,0,19,5.2,41.9,5.2
					C1414.7,614.4,1430.2,612.4,1443.6,606z"/>
			</g>
			<g>
				<path class="st7" d="M1435.8,623.5c-0.5,0-1.1,0-1.6,0.2c-7.6,1.4-18.8,3-31.1,3c-11,0-22.9-1.3-33.5-5.1l-0.3-0.1l-0.2,0.3
					c0,0-2.5,4.2-2.6,8.6c0,2.2,0.7,4.5,2.6,6.3l0,0h0.1c0,0,13.2,6.4,35.4,6.4c11.1,0,24.4-1.6,39.5-6.4l0.3-0.1v-4.7
					C1444.4,627.2,1440.4,623.5,1435.8,623.5z"/>
			</g>
		</g>
		<g>
			<path class="st9" d="M1600.5,260.2c-0.3-6-0.6-11-0.9-14.5c-0.1-1.7-0.2-3.1-0.3-4c0-0.5-0.1-0.8-0.1-1.1v-0.3v-0.1l0,0l0,0l0,0
				l0,0l-0.1-0.4l-207.9,22v0.4h-0.4c0,0,1.4,38.4,6.6,75.9c2.2,14.6,4.4,29.7,7.8,41.7s8.1,21.1,15.3,23.8l8.1-1.1l157.7-22
				c3.3-0.4,5.8-3.2,7.8-7.6c6-13.1,7.6-41.1,7.6-68C1601.7,288.4,1601.1,272.2,1600.5,260.2z"/>
		</g>
		<g>
			<path class="st4" d="M1598.4,239.9v0.4c0,0,0.3,4.9,0.6,12.9c0.3,8,0.6,19.1,0.6,31.4c0,17.8-0.6,38.2-2.7,56
				s-4.6,33.5-11.3,38.1l-0.2,4.9v4l-164.2,25v-12.4l-0.2-0.1c-6.2-2.9-11.3-12.9-15.2-26.4c-5.9-20.2-9.4-48.1-11.4-70.9
				c-1-11.4-1.6-21.5-2-28.8s-0.5-11.7-0.5-11.7v-0.4l-39.4-0.1l-0.1,144.7l0.2,0.1c13.2,6.6,31.4,8.1,45.7,8.1
				c12.9,0,22.6-1.3,22.6-1.3h0.4l0,0l164.7-25l0,0c0,0,6-0.8,11.9-2.6c3-0.9,6-2,8.3-3.4s3.9-3.1,3.9-5.3V238.7L1598.4,239.9z"/>
		</g>
		<g>
			<g>
				<path class="st5" d="M1415.3,381L1415.3,381L1415.3,381z"/>
			</g>
			<g>
				<polygon class="st5" points="1560.5,363.2 1495.3,369.8 1495.3,370.3 1415,377.7 1415.3,381 1500,373.2 1512.5,393.4 
					1515.3,391.7 1503.3,372.3 1559.2,366.6 1576.3,384.4 1578.7,382.1 				"/>
			</g>
		</g>
		<g>
			<path class="st4" d="M1234.1,383.1l-2.7-0.2h-0.4v20.3l2.1,0.3l0.1-0.4l-0.1,0.4h0.8c3.1,0,5.7-2.5,5.7-5.7v-9
				C1239.5,385.8,1237.1,383.3,1234.1,383.1z"/>
		</g>
		<g>
			<path class="st5" d="M1604.3,198.3c-5.4-8.7-15.1-15.3-31.6-15.3l0,0l0,0l-262,22.3c-3.7,0.2-6,0.5-6,0.5l0.1,0.8l5.9-0.5
				c1,0,2-0.1,3.2-0.1c8.7,0,22.1,1.4,33.3,8.9c11.2,7.4,20.2,20.8,20.2,44.8c0,1.6,0,3.2-0.1,4.9v0.5l242.6-25.7l0.2-0.7
				c0,0,0.9-5.2,0.9-12.9C1611.1,217.7,1609.8,207,1604.3,198.3z"/>
		</g>
		<g>
			<g>
				<path class="st5" d="M1346.3,247.1h1.7v-14.8c0,0-9.7,6.5-25,6.8c-4.4,0-8,3.6-8,8h-12.9c-5.4,0-9.7,4.4-9.7,9.7v131.6
					c0,5.4,4.4,9.7,9.7,9.7h12.9c0,4.4,3.6,8,8,8c15.3,0.3,25,6.8,25,6.8v-14.8h-1.7c5.4,0,9.7-4.4,9.7-9.7V256.9
					C1356,251.5,1351.6,247.1,1346.3,247.1z"/>
			</g>
			<g>
				<path class="st5" d="M1346.3,247.1v0.4h1.7h0.4v-16l-0.6,0.4c0,0-0.6,0.4-1.7,1c-3.4,1.8-11.7,5.5-23,5.7
					c-4.6,0-8.4,3.8-8.4,8.4h0.4v-0.4h-12.9c-5.6,0-10.2,4.6-10.2,10.2v131.6c0,5.6,4.6,10.2,10.2,10.2h12.9v-0.4h-0.4
					c0,4.6,3.8,8.4,8.4,8.4c7.6,0.1,13.8,1.8,18.1,3.5c2.1,0.8,3.8,1.6,5,2.3c1.1,0.6,1.7,1,1.7,1l0.6,0.4v-16h-2.1v0.8
					c5.6,0,10.2-4.6,10.2-10.2V256.9c0-5.6-4.6-10.2-10.2-10.2v0.8L1346.3,247.1l0.1,0.4c5.1,0,9.3,4.2,9.3,9.3v131.6
					c0,5.1-4.2,9.3-9.3,9.3v0.8h1.3v14.4h0.4l0.2-0.3c0,0-9.8-6.6-25.2-6.9c-4.2,0-7.6-3.4-7.6-7.6v-0.4h-13.3
					c-5.1,0-9.3-4.2-9.3-9.3V256.9c0-5.1,4.2-9.3,9.3-9.3h13.3v-0.4c0-4.2,3.4-7.6,7.6-7.6c15.4-0.3,25.2-6.8,25.2-6.9l-0.2-0.3
					h-0.4v14.4h-1.3v0.8L1346.3,247.1L1346.3,247.1z"/>
			</g>
		</g>
		<g>
			<g>
				<path class="st7" d="M1630,518c0-4.9-1.2-7.2-1.3-7.3l-0.5-1l-0.2,1.1c-1.7,8.5-9,13.6-16,16.6c-3.5,1.5-6.9,2.5-9.4,3.1
					s-4.1,0.8-4.1,0.8l0,0c-1.4,0.1-2.5,1.2-3.2,2.5c-2.3,4-2.8,11.4-2.8,11.5l-2.3,18.2h0.5h0.6c25.8,0,38.6-15,38.7-15l0.1-0.1
					V520C1630,519.3,1630,518.7,1630,518z"/>
			</g>
			<g>
				<path class="st7" d="M1629.2,556.5c0,0-0.1,0.2-0.4,0.5c-2,2.4-11.4,12.2-30.8,13.5l0,0l0,0c0,0-1.5,0.2-3,1.5
					c-1.5,1.2-3,3.5-2.9,7.4c0,0.9,0.1,2,0.3,3.1l0.1,0.4h0.4c0,0,7.3-0.2,15.6-2.2c8.3-2,17.6-5.6,21.7-12.7l0.1-0.1v-12.4
					L1629.2,556.5z"/>
			</g>
		</g>
	</g>
	<g>
		<path class="st2" d="M552,467.4c-2-1.7-4.7-2.4-7.3-2.9c-2.5-0.4-5-0.5-6.3-0.5c-0.7,0-1.1,0-1.1,0l-489.8-0.7c-0.1,0-0.4,0-0.9,0
			c-2.2,0-8,0.3-13.3,3.6c-2.7,1.7-5.2,4.1-7.1,7.6c-1.9,3.5-3,7.9-3,13.6v240.4c0,13.5,10.8,24.8,24.4,25h0.6l3,0.1l-6.1-3.6
			c-10.5-1.4-18.5-10.6-18.5-21.5V488.1c0-5.3,1.1-9.1,2.6-12.1c2.4-4.4,5.9-6.7,9.4-8c3.4-1.3,6.7-1.5,8.2-1.5h0.6h0.2h0.1l490,0.7
			l0,0h0.3c0.2,0,0.4,0,0.8,0c1.7,0,5.2,0.1,8,0.9c1.4,0.4,2.7,1,3.5,1.6c0.6,0.5,0.8,1.1,1,1.7l3.5,1.5v-0.8
			C554.4,470.2,553.4,468.5,552,467.4z"/>
	</g>
</g>
</svg>
