<?xml version="1.0" encoding="UTF-8"?> <svg xmlns="http://www.w3.org/2000/svg" width="244" height="78" viewBox="0 0 64.558 20.638"><path d="M23.063 16.398a.298.298 0 0 0 .105-.244c0-.106-.035-.187-.105-.243-.07-.057-.17-.084-.302-.084h-.354v.656h.354a.467.467 0 0 0 .302-.085m.11.707-.314-.448-.092.004h-.36v.444h-.21v-1.46h.57c.19 0 .338.045.447.136a.46.46 0 0 1 .162.373.488.488 0 0 1-.083.288.468.468 0 0 1-.238.173l.346.49zM25.4 16.923v.182h-1.06v-1.46h1.03v.182h-.821v.448h.732v.177h-.732v.471zM26.363 15.645h.209v1.278h.79v.182h-.999zM28.228 15.645h.209v1.46h-.209zM30.358 16.573l-.315-.715-.315.715zm.073.167h-.776l-.16.365h-.216l.662-1.46h.206l.663 1.46h-.218zM32.609 16.878c.06-.04.09-.1.09-.184 0-.162-.12-.244-.358-.244h-.48v.486h.48c.118 0 .208-.02.268-.058m-.747-1.064v.467h.427c.107 0 .19-.02.248-.06a.199.199 0 0 0 .086-.174.198.198 0 0 0-.086-.174.436.436 0 0 0-.248-.06zm.974.662a.37.37 0 0 1 .073.235.337.337 0 0 1-.143.291c-.095.069-.234.103-.416.103h-.697v-1.46h.655c.167 0 .296.033.387.1.091.067.137.16.137.277a.344.344 0 0 1-.196.326.377.377 0 0 1 .2.128M33.858 15.645h.209v1.46h-.21zM35.13 15.645h.209v1.278h.79v.182h-.998zM36.995 15.645h.209v1.46h-.209zM38.557 15.826h-.5v-.181h1.208v.181h-.5v1.279h-.208zM40.66 16.6v.505h-.206v-.509l-.58-.951h.223l.468.77.469-.77h.206zM44.12 16.573l-.315-.715-.314.715zm.074.167h-.776l-.16.365h-.216l.662-1.46h.206l.663 1.46h-.219zM46.672 15.645v1.46H46.5l-.876-1.089v1.09h-.209v-1.461h.171l.876 1.089v-1.089zM48.338 16.923a.675.675 0 0 0 .312-.068.5.5 0 0 0 .208-.193.556.556 0 0 0 .073-.287.555.555 0 0 0-.073-.287.498.498 0 0 0-.208-.193.675.675 0 0 0-.312-.068h-.394v1.096zm-.602-1.278h.615c.155 0 .291.03.411.092.12.061.212.147.278.257.067.111.1.238.1.38 0 .144-.033.271-.1.381a.676.676 0 0 1-.278.258.892.892 0 0 1-.411.092h-.615zM52.625 17.105l-.002-1.064-.528.887H52l-.527-.88v1.057h-.2v-1.46h.17l.61 1.026.6-1.026h.171l.002 1.46zM54.837 16.863a.538.538 0 0 0 .203-.201.564.564 0 0 0 .074-.287.563.563 0 0 0-.074-.287.541.541 0 0 0-.203-.201.577.577 0 0 0-.289-.073.59.59 0 0 0-.29.073.536.536 0 0 0-.205.201.563.563 0 0 0-.074.287c0 .106.025.201.074.287.05.085.117.152.204.201a.586.586 0 0 0 .291.073.574.574 0 0 0 .29-.073m-.688.162a.732.732 0 0 1-.38-.65.733.733 0 0 1 .38-.65.818.818 0 0 1 .398-.097c.147 0 .279.033.397.097a.713.713 0 0 1 .377.65.713.713 0 0 1-.377.65.809.809 0 0 1-.397.097.814.814 0 0 1-.398-.097M56.536 15.826h-.5v-.181h1.207v.181h-.5v1.279h-.207zM58.096 15.645h.209v1.46h-.209zM60.317 16.863a.534.534 0 0 0 .202-.201.561.561 0 0 0 .074-.287.56.56 0 0 0-.276-.488.578.578 0 0 0-.289-.073.59.59 0 0 0-.291.073.537.537 0 0 0-.205.201.567.567 0 0 0-.074.287c0 .106.025.201.074.287.05.085.118.152.205.201a.585.585 0 0 0 .291.073.575.575 0 0 0 .289-.073m-.687.162a.733.733 0 0 1-.38-.65.733.733 0 0 1 .38-.65.818.818 0 0 1 .398-.097c.146 0 .278.033.396.097a.712.712 0 0 1 .378.65.712.712 0 0 1-.377.65.808.808 0 0 1-.397.097.814.814 0 0 1-.398-.097M63.002 15.645v1.46h-.17l-.877-1.089v1.09h-.209v-1.461h.172l.876 1.089v-1.089z" style="fill:#918f90;fill-opacity:1;fill-rule:nonzero;stroke:none;stroke-width:.352778"></path><path d="M9.295 10.134a.46.46 0 0 1 .249.052c.051.034.1.091.145.171l2.243 4.191c.034.08.103.12.206.12h.085c.08 0 .143-.04.189-.12l4.954-9.223c.069-.148.2-.223.395-.223h2.245c.138 0 .22.038.249.112.028.074.014.168-.043.283L14.589 15.8c-.286.525-.566.874-.84 1.045a1.771 1.771 0 0 1-.96.257h-.994c-.446 0-.815-.085-1.106-.257-.292-.171-.58-.52-.866-1.045l-2.91-5.272c-.058-.114-.073-.208-.044-.283.029-.074.117-.11.266-.11z" style="fill:#00adef;fill-opacity:1;fill-rule:nonzero;stroke:none;stroke-width:.352778"></path><path d="M11.029 10.132a.463.463 0 0 1-.249-.051.501.501 0 0 1-.145-.172L8.392 5.72c-.034-.08-.103-.12-.206-.12h-.085c-.08 0-.143.04-.19.12l-4.953 9.223c-.069.148-.2.222-.395.222H.318c-.138 0-.22-.037-.249-.111-.028-.075-.014-.169.043-.283L5.735 4.467c.286-.526.566-.874.84-1.046.274-.171.595-.257.96-.257h.994c.446 0 .815.086 1.106.257.292.172.58.52.866 1.046l2.911 5.271c.057.114.071.209.043.283-.028.074-.117.111-.266.111z" style="fill:#f1db07;fill-opacity:1;fill-rule:nonzero;stroke:none;stroke-width:.352778"></path><path d="M.502 10.732C.502 5.288 4.916.875 10.36.875c2.62 0 5 1.024 6.766 2.692A9.59 9.59 0 0 0 10.093.506C4.78.506.475 4.812.475 10.123c0 .25.01.498.03.743-.001-.045-.003-.089-.003-.134" style="fill:#f1db07;fill-opacity:1;fill-rule:nonzero;stroke:none;stroke-width:.352778"></path><path d="M19.795 9.748c0 5.445-4.413 9.858-9.857 9.858-2.621 0-5-1.024-6.767-2.692a9.589 9.589 0 0 0 7.034 3.061c5.312 0 9.618-4.306 9.618-9.617 0-.25-.011-.498-.03-.743l.002.133" style="fill:#00adef;fill-opacity:1;fill-rule:nonzero;stroke:none;stroke-width:.352778"></path><path d="M29.543 5.403c-.04-.07-.096-.106-.166-.106h-.091c-.07 0-.126.036-.166.106l-4.365 8.125c-.07.131-.186.197-.347.197h-1.963c-.132 0-.21-.033-.235-.098-.025-.066-.012-.149.038-.25l4.954-9.076c.252-.454.498-.758.74-.914.242-.156.523-.234.846-.234h.891c.382 0 .704.078.967.234.261.156.518.46.77.914l4.999 9.076c.05.101.063.184.038.25-.025.065-.098.098-.22.098h-1.917c-.172 0-.287-.066-.348-.197zM36.204 3.153c.1 0 .173.015.218.045.046.03.089.08.129.151l4.425 8.125c.03.07.09.106.181.106h.076c.07 0 .125-.035.166-.106l4.365-8.125c.06-.13.176-.196.347-.196h1.978c.121 0 .194.032.22.098.025.065.012.148-.038.249l-4.954 9.077c-.252.463-.498.77-.74.921a1.562 1.562 0 0 1-.846.227h-.876c-.393 0-.717-.076-.974-.227-.257-.151-.51-.458-.762-.92L34.104 3.5c-.05-.1-.063-.184-.038-.25.026-.065.104-.097.234-.097zM64.003 3.25c-.025-.065-.098-.098-.219-.098h-1.978c-.171 0-.287.066-.347.197l-3.932 7.322-1.945-5.852s-.037-.157-.196-.55c-.159-.394-.482-.74-.739-.89-.256-.15-.581-.227-.974-.227h-.876c-.322 0-.604.076-.846.227-.241.15-.488.458-.74.921l-4.954 9.077c-.05.1-.062.184-.037.25.025.065.098.098.219.098h1.978c.171 0 .287-.066.348-.197l4.364-8.125c.04-.07.096-.106.166-.106h.076c.09 0 .151.035.181.106l2.428 8.125c.04.07.083.121.128.151s.119.046.219.046h1.815c.17 0 .326-.093.406-.242L63.966 3.5c.05-.1.063-.183.037-.25" style="fill:#333;fill-opacity:1;fill-rule:nonzero;stroke:none;stroke-width:.352778"></path></svg> 