<?xml version="1.0" encoding="UTF-8"?> <svg xmlns="http://www.w3.org/2000/svg" xmlns:xlink="http://www.w3.org/1999/xlink" version="1.1" id="Calque_1" x="0px" y="0px" viewBox="0 0 500 500" style="enable-background:new 0 0 500 500;" xml:space="preserve"> <style type="text/css"> .st0{fill:#333333;} .st1{display:none;stroke:#FFFFFF;stroke-width:7.04;stroke-linecap:round;stroke-linejoin:round;stroke-miterlimit:10;} .st2{fill-rule:evenodd;clip-rule:evenodd;fill:#333333;} .st3{fill:#FF0000;} .st4{fill:#FF0606;} </style> <path class="st2" d="M76.1,361.5h32.3l0.5,2.8c2.6,15,15.5,25.8,30.6,25.8c15.2,0,28.1-10.9,30.6-25.8l0.5-2.8h180.2l0.5,2.8 c2.6,15,15.5,25.8,30.6,25.8c15.2,0,28.1-10.9,30.6-25.8l0.5-2.8h24.6c1.4,0,2.5-1.1,2.5-2.5l0-72.2c0-0.5-0.2-1-0.4-1.4l-27.8-40.5 c-0.4-0.6-0.7-1.2-1.1-1.9c-1.5-2.9-2.8-4.9-5.9-4.9h-73.6c-4.1,0-7.4,3.7-7.4,8.2v60.3h-27.6l1.2-4.3c0.3-1,0.4-2,0.4-3v-80.7 c0-6.1-4.9-11-11-11H245l0.7-4c0.1-0.7,0.2-1.4,0.2-2v-80.7c0-6.1-4.9-11-11-11H148c-6.1,0-11,4.9-11,11v80.7c0,0.6,0.1,1.3,0.2,2 l0.7,4H96c-6.1,0-11,4.9-11,11v80.7c0,1,0.1,2,0.4,3l1.2,4.3l-6.5,0c-7,0-16.6-0.1-19.5,2.8c-0.6,0.6-0.8,1.2-0.8,2.1v45.1 C59.8,358,59.8,361.5,76.1,361.5z M382,385.1c-14.4,0-26.1-11.7-26.1-26.1c0-14.4,11.7-26.1,26.1-26.1S408,344.6,408,359 C408,373.4,396.3,385.1,382,385.1z M328.8,243.1h76.3l2.7,4.8l27.3,39.7l0,68.9h-22l-0.5-2.8c-2.6-15-15.5-25.8-30.6-25.8 c-15.2,0-28.1,10.9-30.6,25.8l-0.5,2.8h-22V243.1z M139.5,385.1c-14.4,0-26.1-11.7-26.1-26.1c0-14.4,11.7-26.1,26.1-26.1 s26.1,11.7,26.1,26.1C165.5,373.4,153.8,385.1,139.5,385.1z M263.6,252.2v-39.6h23.3c3.3,0,6,2.7,6,6v80.7c0,2.1-1.1,3.9-2.6,5v2.3 h-93.6v-2.3c-1.6-1.1-2.6-2.9-2.6-5v-80.7c0-3.3,2.7-6,6-6h23.3v39.6c0,1.4,1.1,2.5,2.5,2.5H261 C262.4,254.7,263.6,253.6,263.6,252.2z M258.5,212.6v37.1h-30.2v-37.1H258.5z M176.3,114.9h30.2V152h-30.2V114.9z M142,120.9 c0-3.3,2.7-6,6-6h23.3v39.6c0,1.4,1.1,2.5,2.5,2.5h35.3c1.4,0,2.5-1.1,2.5-2.5v-39.6h23.3c3.3,0,6,2.7,6,6v80.7c0,3.3-2.7,6-6,6H148 c-3.3,0-6-2.7-6-6V120.9z M124.3,212.6h30.2v37.1h-30.2V212.6z M90,218.6c0-3.3,2.7-6,6-6h23.3v39.6c0,1.4,1.1,2.5,2.5,2.5h35.3 c1.4,0,2.5-1.1,2.5-2.5v-39.6h23.3c3.3,0,6,2.7,6,6l0,80.7c0,2.1-1.1,3.9-2.6,5v2.3H92.7v-2.3c-1.6-1.1-2.6-2.9-2.6-5V218.6z M64.9,312.6l2.9-0.4c1.7-0.2,4.5-0.5,8.3-0.5h247.7v44.9H170.6l-0.5-2.8c-2.6-15-15.5-25.8-30.6-25.8c-15.2,0-28.1,10.9-30.6,25.8 l-0.5,2.8H76.1c-3.9,0-6.7-0.3-8.3-0.5l-2.9-0.4V312.6z"></path> </svg> 