<?xml version="1.0" encoding="UTF-8"?> <svg xmlns="http://www.w3.org/2000/svg" id="bodor-logo" data-name="bodor-logo" width="180" height="52" viewBox="0 0 120 48"><path d="M45,14.37a13.06,13.06,0,0,0-11.5,7.05,14.71,14.71,0,0,1,0,12.82A13,13,0,0,0,45,41.3,13.29,13.29,0,0,0,58,27.83,13.29,13.29,0,0,0,45,14.37Zm0,22.44a9,9,0,1,1,8.71-9A8.86,8.86,0,0,1,45,36.81Z" style="fill:#000"></path><path d="M21,14.37a12.81,12.81,0,0,0-8.72,3.44V6.29H7.92V27.83A13.29,13.29,0,0,0,21,41.3,13.29,13.29,0,0,0,34.07,27.83,13.28,13.28,0,0,0,21,14.37Zm0,22.44a9,9,0,0,1,0-18,9,9,0,0,1,0,18Z" style="fill:#000"></path><path d="M116,14.4v4.5a8.89,8.89,0,0,0-7.84,8.93V41.3H103.8V36.78a14.68,14.68,0,0,0,1.58-15.36A13.07,13.07,0,0,1,116,14.4Z" style="fill:#000"></path><path d="M92.9,14.37a12.9,12.9,0,0,0-10,4.83v8.63a14.58,14.58,0,0,1-1.47,6.41A13,13,0,0,0,92.9,41.3,13.29,13.29,0,0,0,106,27.83,13.29,13.29,0,0,0,92.9,14.37Zm0,22.44a9,9,0,1,1,8.72-9A8.86,8.86,0,0,1,92.9,36.81Z" style="fill:#000"></path><path d="M77.65,6.29V17.81a12.79,12.79,0,0,0-8.72-3.44,13.05,13.05,0,0,0-11.49,7.05,14.71,14.71,0,0,1,0,12.82A13,13,0,0,0,68.93,41.3,13.29,13.29,0,0,0,82,27.83V6.29ZM68.93,36.81a9,9,0,1,1,8.72-9A8.86,8.86,0,0,1,68.93,36.81Z" style="fill:#000"></path></svg> 