<?xml version="1.0" encoding="UTF-8"?> <svg xmlns="http://www.w3.org/2000/svg" xmlns:xlink="http://www.w3.org/1999/xlink" version="1.1" id="Calque_1" x="0px" y="0px" viewBox="0 0 500 500" style="enable-background:new 0 0 500 500;" xml:space="preserve"> <style type="text/css"> .st0{fill:#333333;} .st1{display:none;stroke:#FFFFFF;stroke-width:7.04;stroke-linecap:round;stroke-linejoin:round;stroke-miterlimit:10;} .st2{fill-rule:evenodd;clip-rule:evenodd;fill:#333333;} .st3{fill:#FF0000;} .st4{fill:#FF0606;} </style> <path class="st1" d="M418.9,283.2c0-13.3-10.8-24.1-24.1-24.1c-13.3,0-24.1,10.8-24.1,24.1c0,13.3,10.8,24.1,24.1,24.1 C408.1,307.3,418.9,296.5,418.9,283.2z M382.7,283.2c0-6.7,5.4-12.1,12.1-12.1s12.1,5.4,12.1,12.1c0,6.7-5.4,12.1-12.1,12.1 S382.7,289.8,382.7,283.2z M195.7,283.2c0-11.7-9.5-21.1-21.1-21.1c-11.7,0-21.1,9.5-21.1,21.1c0,11.7,9.5,21.1,21.1,21.1 C186.3,304.3,195.7,294.8,195.7,283.2z M165.6,283.2c0-5,4.1-9,9-9c5,0,9,4.1,9,9c0,5-4.1,9-9,9 C169.6,292.2,165.6,288.2,165.6,283.2z M442.1,274.1c-4.3-22.8-24.2-39.2-47.4-39.2h-24.1v-33.2c0-6.7-5.4-12.1-12.1-12.1h-72.4 c-6.7,0-12.1,5.4-12.1,12.1v33.2h-12.1v-33.2c0-6.7-5.4-12.1-12.1-12.1h-21.1v-25.8c3.7-2.1,6-6.1,6-10.4v-18.1 c6.7,0,12.1-5.4,12.1-12.1V93.2c0-6.7-5.4-12.1-12.1-12.1h-48.2c-2.9,0-5.7,1.1-7.9,3H87.2c-6.7,0-12.1,5.4-12.1,12.1v96.9 c-5.3,1.4-9,6.1-9,11.6v30.2h-3c-3.3,0-6,2.7-6,6s2.7,6,6,6h331.7c20,0,36.2,16.2,36.2,36.2c0,20-16.2,36.2-36.2,36.2H63 c-3.3,0-6,2.7-6,6s2.7,6,6,6h15.1v81.4c0,3.3,2.7,6,6,6c3.3,0,6-2.7,6-6v-24.1h301.6v24.1c0,3.3,2.7,6,6,6c3.3,0,6-2.7,6-6v-82.3 C430,325.6,447.1,300.3,442.1,274.1z M186.7,93.2h48.2v30.2h-48.2V93.2z M198.7,153.5v-18.1h24.1v18.1H198.7z M216.8,165.6v24.1 h-12.1v-24.1H216.8z M87.2,96.2h87.5v24.1h-63.3v72.4H87.2V96.2z M120.3,234.9H78.1v-30.2h42.2V234.9z M165.6,201.8v33.2h-33.2 v-30.2c0-5.5-3.7-10.3-9-11.6v-60.7h55.4c2.2,1.9,5,3,7.9,3v18.1c0,4.3,2.3,8.3,6,10.4v25.8h-15.1 C171,189.7,165.6,195.1,165.6,201.8z M250,234.9h-72.4v-33.2H250V234.9z M358.6,234.9h-72.4v-33.2h72.4V234.9z M391.7,376.7H90.2 v-45.2h301.6V376.7z M141.4,283.2c0-11.7-9.5-21.1-21.1-21.1s-21.1,9.5-21.1,21.1c0,11.7,9.5,21.1,21.1,21.1 C132,304.3,141.4,294.8,141.4,283.2z M111.3,283.2c0-5,4.1-9,9-9s9,4.1,9,9c0,5-4.1,9-9,9S111.3,288.2,111.3,283.2z M358.6,283.2 c0-11.7-9.5-21.1-21.1-21.1s-21.1,9.5-21.1,21.1c0,11.7,9.5,21.1,21.1,21.1C349.1,304.3,358.5,294.8,358.6,283.2z M328.4,283.2 c0-5,4.1-9,9-9s9,4.1,9,9c0,5-4.1,9-9,9S328.4,288.2,328.4,283.2z M304.3,283.2c0-11.7-9.5-21.1-21.1-21.1s-21.1,9.5-21.1,21.1 c0,11.7,9.5,21.1,21.1,21.1C294.8,304.3,304.3,294.8,304.3,283.2z M274.1,283.2c0-5,4.1-9,9-9s9,4.1,9,9c0,5-4.1,9-9,9 S274.1,288.2,274.1,283.2z M250,283.2c0-11.7-9.5-21.1-21.1-21.1c-11.7,0-21.1,9.5-21.1,21.1c0,11.7,9.5,21.1,21.1,21.1 C240.5,304.3,250,294.8,250,283.2z M219.8,283.2c0-5,4.1-9,9-9c5,0,9,4.1,9,9c0,5-4.1,9-9,9C223.9,292.2,219.8,288.2,219.8,283.2z"></path> <path class="st0" d="M439.4,283.1c0-24.7-20.1-44.8-44.8-44.8h-29.4c1.1-1.7,1.7-3.7,1.7-5.8v-25.9c0-6-4.9-10.8-10.8-10.8h-67.7 c-6,0-10.8,4.9-10.8,10.8v25.9c0,2.1,0.6,4.1,1.7,5.8h-22.8c1.1-1.7,1.7-3.7,1.7-5.8v-25.9c0-6-4.9-10.8-10.8-10.8h-19.4 c0.1-0.3,0.1-0.6,0.1-1v-31.8c0-0.3,0-0.6-0.1-1h0.2c3.3,0,6-2.7,6-6v-23.4c0-0.3,0-0.6-0.1-1h6.1c3.3,0,6-2.7,6-6V90.7 c0-3.3-2.7-6-6-6H187c-2.2,0-4,1.2-5.1,2.9H84.5c-3.3,0-6,2.7-6,6v101.3c0,0.4,0,0.7,0.1,1.1c-5.2,0.8-9.3,5.3-9.3,10.7v25.9 c0,2.1,0.6,4.1,1.7,5.8h-8c-1.4,0-2.5,1.1-2.5,2.5s1.1,2.5,2.5,2.5h17.1H118h61.8h67.7h41h67.7h38.5c22,0,39.8,17.9,39.8,39.8 c0,22-17.9,39.8-39.8,39.8H83.8H63.1c-1.4,0-2.5,1.1-2.5,2.5s1.1,2.5,2.5,2.5h18.3v84.8c0,1.4,1.1,2.5,2.5,2.5s2.5-1.1,2.5-2.5V385 h309v27.8c0,1.4,1.1,2.5,2.5,2.5s2.5-1.1,2.5-2.5v-85.2C422.3,324.8,439.4,305.9,439.4,283.1z M223.2,163.1v31.8c0,0.5-0.4,1-1,1 H205c-0.5,0-1-0.4-1-1v-31.8c0-0.5,0.4-1,1-1h17.2C222.7,162.1,223.2,162.6,223.2,163.1z M170.7,238.3h-43.6 c1.1-1.7,1.7-3.7,1.7-5.8v-25.9c0-5.4-4-9.9-9.3-10.7c0.1-0.4,0.1-0.7,0.1-1.1V129h62.3c1,1.7,2.9,2.9,5.1,2.9h6.1 c-0.1,0.3-0.1,0.6-0.1,1v23.4c0,3.3,2.7,6,6,6h0.2c-0.1,0.3-0.1,0.6-0.1,1v31.8c0,0.3,0,0.6,0.1,1h-19.4c-6,0-10.8,4.9-10.8,10.8 v25.9C169,234.7,169.6,236.7,170.7,238.3z M229.2,132.8v23.4c0,0.5-0.4,1-1,1h-6H205h-6c-0.5,0-1-0.4-1-1v-23.4c0-0.5,0.4-1,1-1 h29.3C228.8,131.8,229.2,132.3,229.2,132.8z M187,89.7h53.2c0.5,0,1,0.4,1,1v35.2c0,0.5-0.4,1-1,1h-12H199h-12c-0.5,0-1-0.4-1-1 V90.7C186,90.2,186.5,89.7,187,89.7z M83.5,93.6c0-0.5,0.4-1,1-1H181V124h-63.9c-1.4,0-2.5,1.1-2.5,2.5v68.4c0,0.5-0.4,1-1,1H84.5 c-0.5,0-1-0.4-1-1V93.6z M80.2,238.3c-3.2,0-5.8-2.6-5.8-5.8v-25.9c0-3.2,2.6-5.8,5.8-5.8h4.3h29.2h4.3c3.2,0,5.8,2.6,5.8,5.8v25.9 c0,3.2-2.6,5.8-5.8,5.8H80.2z M179.8,238.3c-3.2,0-5.8-2.6-5.8-5.8v-25.9c0-3.2,2.6-5.8,5.8-5.8H205h17.2h25.2 c3.2,0,5.8,2.6,5.8,5.8v25.9c0,3.2-2.6,5.8-5.8,5.8H179.8z M288.4,238.3c-3.2,0-5.8-2.6-5.8-5.8v-25.9c0-3.2,2.6-5.8,5.8-5.8h67.7 c3.2,0,5.8,2.6,5.8,5.8v25.9c0,3.2-2.6,5.8-5.8,5.8H288.4z M395.3,328V380h-309V328h308.3H395.3z M137.7,283.2 c0-9.6-7.9-17.5-17.5-17.5s-17.5,7.9-17.5,17.5s7.9,17.5,17.5,17.5S137.7,292.8,137.7,283.2z M107.7,283.2c0-6.9,5.6-12.5,12.5-12.5 s12.5,5.6,12.5,12.5s-5.6,12.5-12.5,12.5S107.7,290.1,107.7,283.2z M412.1,283.2c0-9.6-7.9-17.5-17.5-17.5s-17.5,7.9-17.5,17.5 s7.9,17.5,17.5,17.5S412.1,292.8,412.1,283.2z M382.1,283.2c0-6.9,5.6-12.5,12.5-12.5s12.5,5.6,12.5,12.5s-5.6,12.5-12.5,12.5 S382.1,290.1,382.1,283.2z M192.6,283.2c0-9.6-7.9-17.5-17.5-17.5s-17.5,7.9-17.5,17.5s7.9,17.5,17.5,17.5S192.6,292.8,192.6,283.2z M162.6,283.2c0-6.9,5.6-12.5,12.5-12.5s12.5,5.6,12.5,12.5s-5.6,12.5-12.5,12.5S162.6,290.1,162.6,283.2z M247.5,283.2 c0-9.6-7.9-17.5-17.5-17.5s-17.5,7.9-17.5,17.5s7.9,17.5,17.5,17.5S247.5,292.8,247.5,283.2z M217.5,283.2c0-6.9,5.6-12.5,12.5-12.5 s12.5,5.6,12.5,12.5s-5.6,12.5-12.5,12.5S217.5,290.1,217.5,283.2z M302.4,283.2c0-9.6-7.9-17.5-17.5-17.5s-17.5,7.9-17.5,17.5 s7.9,17.5,17.5,17.5S302.4,292.8,302.4,283.2z M272.4,283.2c0-6.9,5.6-12.5,12.5-12.5s12.5,5.6,12.5,12.5s-5.6,12.5-12.5,12.5 S272.4,290.1,272.4,283.2z M357.3,283.2c0-9.6-7.9-17.5-17.5-17.5s-17.5,7.9-17.5,17.5s7.9,17.5,17.5,17.5S357.3,292.8,357.3,283.2z M327.3,283.2c0-6.9,5.6-12.5,12.5-12.5s12.5,5.6,12.5,12.5s-5.6,12.5-12.5,12.5S327.3,290.1,327.3,283.2z"></path> </svg> 