<?xml version="1.0" encoding="UTF-8"?> <svg xmlns="http://www.w3.org/2000/svg" xmlns:xlink="http://www.w3.org/1999/xlink" version="1.1" id="Calque_1" x="0px" y="0px" viewBox="0 0 500 500" style="enable-background:new 0 0 500 500;" xml:space="preserve"> <style type="text/css"> .st0{fill:#333333;} .st1{display:none;stroke:#FFFFFF;stroke-width:7.04;stroke-linecap:round;stroke-linejoin:round;stroke-miterlimit:10;} .st2{fill-rule:evenodd;clip-rule:evenodd;fill:#333333;} .st3{fill:#FF0000;} .st4{fill:#FF0606;} </style> <path class="st0" d="M75.6,333c0.3,0.1,0.5,0.1,0.8,0.1h347.3c0.7,0,1.3-0.3,1.8-0.7c0.5-0.5,0.7-1.1,0.7-1.8v0c0-0.3,0-0.5-0.1-0.8 l-12.4-37.2c-0.3-1-1.3-1.7-2.4-1.7h-22.3v-81.8h22.3c1.1,0,2-0.7,2.4-1.7l12.4-37.2c0.4-1.3-0.3-2.7-1.6-3.2 c-0.3-0.1-0.5-0.1-0.8-0.1H76.3c-0.7,0-1.3,0.3-1.8,0.7c-0.5,0.5-0.7,1.1-0.7,1.8c0,0.3,0,0.5,0.1,0.8l12.4,37.2 c0.3,1,1.3,1.7,2.4,1.7h22.3v81.8H88.8c-1.1,0-2,0.7-2.4,1.7L74,329.8c-0.2,0.6-0.2,1.3,0.1,1.9C74.4,332.4,74.9,332.8,75.6,333z M409.4,295.9l10.7,32.2H214.6l-10.7-32.2H409.4z M178.1,290.9v-81.8h205.9v81.8H178.1z M420.2,171.9l-10.7,32.2H203.9l10.7-32.2 H420.2z M90.6,295.9h23c1.4,0,2.5-1.1,2.5-2.5v-86.8c0-1.4-1.1-2.5-2.5-2.5h-23l-10.7-32.2h129.5l-10.7,32.2h-23 c-1.4,0-2.5,1.1-2.5,2.5v86.8c0,1.4,1.1,2.5,2.5,2.5h23l10.7,32.2H79.8L90.6,295.9z"></path> </svg> 