<?xml version="1.0" encoding="utf-8"?>
<!-- Generator: Adobe Illustrator 27.8.1, SVG Export Plug-In . SVG Version: 6.00 Build 0)  -->
<svg version="1.1" id="Calque_1" xmlns="http://www.w3.org/2000/svg" xmlns:xlink="http://www.w3.org/1999/xlink" x="0px" y="0px"
	 viewBox="0 0 838.8 590" style="enable-background:new 0 0 838.8 590;" xml:space="preserve">
<style type="text/css">
	.st0{fill:#DADDE1;}
	.st1{fill:#8C96A5;}
	.st2{fill:#262E36;}
	.st3{fill:#F2F2F2;}
	.st4{fill:#8B95A4;}
	.st5{fill:#475564;}
	.st6{fill:#D9DCE0;}
	.st7{fill:#F1F1F1;}
	.st8{fill:#F17F0C;}
	.st9{opacity:0.5;}
	.st10{fill:#F27F0C;}
	.st11{fill:#CB6E0E;}
	.st12{fill:#CA6E0E;}
</style>
<g id="design_00000167371503897147571130000016011971019856666536_">
	<g>
		<g>
			<g>
				<polygon class="st0" points="0.3,75.9 44.9,69.8 44.9,465.2 0.3,454.5 				"/>
				<path class="st0" d="M44.9,465.6C44.8,465.6,44.8,465.6,44.9,465.6L0.3,454.8c-0.2,0-0.3-0.2-0.3-0.4V75.9
					c0-0.2,0.1-0.3,0.3-0.4l44.5-6.1c0.1,0,0.2,0,0.3,0.1s0.1,0.2,0.1,0.3v395.5c0,0.1-0.1,0.2-0.1,0.3
					C45,465.6,44.9,465.6,44.9,465.6z M0.7,454.2l43.8,10.6V70.2l-43.8,6V454.2z"/>
			</g>
		</g>
		<g>
			<polygon class="st1" points="5.4,455.7 5.4,484.8 69.1,502.5 69.1,470.9 			"/>
			<path class="st1" d="M69.1,502.9C69,502.9,69,502.9,69.1,502.9L5.3,485.2c-0.2,0-0.3-0.2-0.3-0.4v-29.1c0-0.1,0.1-0.2,0.1-0.3
				c0.1-0.1,0.2-0.1,0.3-0.1l63.7,15.2c0.2,0,0.3,0.2,0.3,0.4v31.6c0,0.1-0.1,0.2-0.1,0.3C69.2,502.8,69.1,502.9,69.1,502.9z
				 M5.8,484.5L68.7,502v-30.8l-62.9-15V484.5z"/>
		</g>
		<g>
			<path class="st1" d="M56,484.7v29.1l68.4,19.3l0,0l0.3-33.3L56,484.7z"/>
			<path class="st1" d="M124.4,533.5C124.3,533.5,124.3,533.5,124.4,533.5l-68.5-19.3c-0.2,0-0.3-0.2-0.3-0.4v-29.1
				c0-0.1,0.1-0.2,0.1-0.3c0.1-0.1,0.2-0.1,0.3-0.1l68.8,15.1c0.2,0,0.3,0.2,0.3,0.4l-0.3,33.3c0,0.1-0.1,0.2-0.2,0.3
				C124.6,533.5,124.5,533.5,124.4,533.5z M56.3,513.6l67.7,19.1l0.3-32.5l-68-14.9V513.6z"/>
		</g>
		<g>
			<polygon class="st2" points="172.6,482.7 172.2,482.6 124.6,499.4 124.3,499.8 124,533.1 124.2,533.4 124.6,533.5 172.5,512.5 
				172.7,512.1 172.7,483 			"/>
		</g>
		<g>
			<g>
				<polygon class="st3" points="44.9,62.9 172.3,52.9 172.3,482.9 124.7,499.8 44.9,482.1 				"/>
				<path class="st3" d="M124.7,500.2L124.7,500.2l-80.3-17.7v-420h0.3l127.9-10v430.7l-0.2,0.1L124.7,500.2z M45.2,481.8l79.5,17.6
					l47.3-16.8V53.3L45.3,63.2L45.2,481.8L45.2,481.8z"/>
			</g>
		</g>
		<g>
			<path class="st0" d="M45.1,322.4l79.9,12.3l-0.2,80.2l-79.9-92.4C45,322.5,45,322.4,45.1,322.4z"/>
			<path class="st0" d="M125.3,415.9l-0.7-0.8l-79.9-92.4c-0.1-0.1-0.1-0.4-0.1-0.5c0.1-0.2,0.3-0.3,0.5-0.2l0,0l80.3,12.3v0.3
				L125.3,415.9z M45.8,322.9l78.7,91l0.2-78.9L45.8,322.9z"/>
		</g>
		<g>
			<polygon class="st0" points="44.9,482.1 124.9,414.9 124.7,499.8 			"/>
			<path class="st0" d="M124.7,500.2L124.7,500.2l-79.9-17.7c-0.1,0-0.2-0.1-0.3-0.3c0-0.1,0-0.3,0.1-0.4l80-67.2
				c0.1-0.1,0.3-0.1,0.4-0.1c0.1,0.1,0.2,0.2,0.2,0.3l-0.2,84.9c0,0.1-0.1,0.2-0.1,0.3S124.8,500.2,124.7,500.2z M45.7,481.9
				l78.7,17.4l0.2-83.6L45.7,481.9z"/>
		</g>
		<g>
			<polygon class="st0" points="44.9,62.9 125.5,95.3 172.3,52.9 			"/>
			<path class="st0" d="M125.5,95.7L125.5,95.7L44.8,63.2c-0.2-0.1-0.3-0.2-0.2-0.4c0-0.2,0.2-0.3,0.3-0.3l127.5-10
				c0.2,0,0.3,0.1,0.4,0.2c0.1,0.1,0,0.3-0.1,0.4l-46.9,42.4C125.6,95.7,125.6,95.7,125.5,95.7z M46.5,63.1l78.9,31.8l45.9-41.5
				L46.5,63.1z"/>
		</g>
		<g>
			<polygon class="st1" points="172.3,52.9 125.5,95.3 124.7,499.8 172.3,482.9 172.3,354.7 299,369.8 299.7,87 			"/>
			<path class="st1" d="M124.3,500.3v-0.5L125,95.2l47.1-42.7l127.8,34.3v0.3l-0.5,283.1L172.7,355v128.1l-0.2,0.1L124.3,500.3z
				 M125.8,95.5l-0.7,403.8l46.9-16.6V354.2h0.4l126.3,15.1l0.6-282.1l-126.9-34L125.8,95.5z"/>
		</g>
	</g>
	<g>
		<polygon class="st2" points="296.6,123.8 221.2,172 220.7,253.8 220.1,354.7 296,354.7 296,253.8 		"/>
		<path class="st2" d="M296.4,355h-76.7v-0.4l1.1-182.9l0.2-0.1l76-48.5l-0.6,130.7V355z M220.5,354.3h75.2V253.8l0.6-129.3
			l-74.6,47.7L220.5,354.3z"/>
	</g>
	<g>
		<g>
			<polygon class="st4" points="808.3,110.9 782.7,98.3 782.3,98.3 758.8,119.2 758.6,119.5 758.6,542.9 758.8,543.2 759.1,543.2 
				808.3,524.7 808.6,524.3 808.6,111.2 			"/>
		</g>
		<g>
			<polygon class="st3" points="736.1,87 299.7,87 299,369.8 602.4,406.1 655.3,395 655.3,524.3 759,542.9 759,119.5 			"/>
		</g>
		<g>
			<polygon class="st0" points="736.1,87 759,119.5 782.5,98.6 			"/>
			<path class="st0" d="M758.9,120l-0.2-0.3l-23.5-33.2l48.1,12L758.9,120z M737,87.7l22.1,31.2l22.7-20.1L737,87.7z"/>
		</g>
		<g>
			<polygon class="st2" points="685.9,89.8 685.9,388 706.6,387.5 706.6,89.8 			"/>
		</g>
		<g>
			<g>
				<g>
					<g>
						<path class="st4" d="M744.4,225.3v-6.5h-11.1V231C735.9,227.6,739.9,225.4,744.4,225.3z"/>
					</g>
					<g>
						<path class="st4" d="M744.4,225.3h0.4v-6.5l-0.1-0.3l-0.3-0.1h-11.1l-0.3,0.1l-0.1,0.3V231l0.3,0.4l0.4-0.1
							c2.6-3.2,6.4-5.4,10.8-5.5l0.4-0.4h-0.4V225c-4.6,0.1-8.7,2.4-11.4,5.8l0.3,0.2h0.4v-11.8h10.4v6.1L744.4,225.3v-0.4V225.3z"
							/>
					</g>
					<g>
						<path class="st4" d="M733.3,401.9V414h11.1v-6.5C739.9,407.4,735.9,405.2,733.3,401.9z"/>
					</g>
					<g>
						<path class="st4" d="M733.3,401.9h-0.4V414l0.1,0.3l0.3,0.1h11.1l0.3-0.1l0.1-0.3v-6.5l-0.4-0.4c-4.4-0.1-8.3-2.3-10.8-5.5
							l-0.4-0.1l-0.3,0.4H733.3l-0.3,0.2c2.7,3.4,6.8,5.6,11.4,5.8v-0.4H744v6.1h-10.4v-11.8h-0.3L733,402L733.3,401.9z"/>
					</g>
				</g>
				<g>
					<g>
						<path class="st2" d="M744.4,218.8h-11.1c-4.2,0-7.6-3.4-7.6-7.6v-11.1c0-4.2,3.4-7.6,7.6-7.6h11.1c4.2,0,7.6,3.4,7.6,7.6v11.1
							C752,215.4,748.6,218.8,744.4,218.8z"/>
					</g>
					<g>
						<path class="st2" d="M744.4,218.8v-0.4h-11.1c-4,0-7.2-3.2-7.2-7.2v-11.1c0-4,3.2-7.2,7.2-7.2h11.1c4,0,7.2,3.2,7.2,7.2v11.1
							c0,4-3.2,7.2-7.2,7.2V218.8v0.4c4.4,0,8-3.6,8-8v-11.1c0-4.4-3.6-8-8-8h-11.1c-4.4,0-8,3.6-8,8v11.1c0,4.4,3.6,8,8,8h11.1
							V218.8z"/>
					</g>
				</g>
				<g>
					<g>
						<path class="st2" d="M744.4,440.3h-11.1c-4.2,0-7.6-3.4-7.6-7.6v-11.1c0-4.2,3.4-7.6,7.6-7.6h11.1c4.2,0,7.6,3.4,7.6,7.6v11.1
							C752,436.9,748.6,440.3,744.4,440.3z"/>
					</g>
					<g>
						<path class="st2" d="M744.4,440.3v-0.4h-11.1c-4,0-7.2-3.2-7.2-7.2v-11.1c0-4,3.2-7.2,7.2-7.2h11.1c4,0,7.2,3.2,7.2,7.2v11.1
							c0,4-3.2,7.2-7.2,7.2V440.3v0.4c4.4,0,8-3.6,8-8v-11.1c0-4.4-3.6-8-8-8h-11.1c-4.4,0-8,3.6-8,8v11.1c0,4.4,3.6,8,8,8h11.1
							V440.3z"/>
					</g>
				</g>
			</g>
			<g>
				<path class="st0" d="M833.6,407.6H735c-2.7,0-4.9-2.2-4.9-4.9V230.2c0-2.7,2.2-4.9,4.9-4.9h98.6c2.7,0,4.9,2.2,4.9,4.9v172.5
					C838.5,405.4,836.3,407.6,833.6,407.6z"/>
				<path class="st0" d="M823.7,408h-78.9c-8.4,0-15.1-6.8-15.1-15.1V240c0-8.4,6.8-15.1,15.1-15.1h78.9c8.4,0,15.1,6.8,15.1,15.1
					v152.8C838.9,401.2,832.1,408,823.7,408z M744.8,225.6c-7.9,0-14.4,6.5-14.4,14.4v152.8c0,7.9,6.5,14.4,14.4,14.4h78.9
					c7.9,0,14.4-6.5,14.4-14.4V240c0-7.9-6.5-14.4-14.4-14.4H744.8z"/>
			</g>
			<g>
				<rect x="741" y="251.1" class="st5" width="86.5" height="101.3"/>
				<path class="st5" d="M827.9,352.8h-87.3v-102h87.3V352.8z M741.4,352h85.8V251.5h-85.8V352z"/>
			</g>
			<g>
				<polygon class="st2" points="752.3,251.1 827.5,305.9 827.5,352.4 741,293.4 741,251.1 				"/>
				<path class="st2" d="M827.9,353.1l-0.6-0.4l-86.7-59.1v-42.9h11.8l0.1,0.1l75.4,54.9L827.9,353.1L827.9,353.1z M741.4,293.2
					l85.8,58.5v-45.6l-75-54.6h-10.8V293.2z"/>
			</g>
		</g>
	</g>
	<g>
		<polygon class="st4" points="759.1,542.5 655.4,523.9 655.1,524 655,524.3 655,528.2 653.4,528.8 653.2,529.2 653.2,553 
			653.5,553.4 758.9,572.4 759.3,572.3 759.4,572 759.4,542.9 		"/>
	</g>
	<g>
		<polygon class="st6" points="655,89.6 587,70.8 343,78.5 343,279.8 655.7,291.9 		"/>
	</g>
	<g>
		<polygon class="st4" points="655.4,291.1 343.4,279.1 343.1,279.3 343.2,279.7 392.3,322.7 392.5,322.8 655.3,345.8 655.6,345.7 
			655.7,345.5 655.7,291.5 		"/>
	</g>
	<g>
		<g>
			<path class="st7" d="M469.5,291.1L469.5,291.1c-0.7,0.3-1.3,0.5-2,0.5s-1.3-0.2-1.9-0.4h-0.1H465v14.2c0,0.7,0.3,2.6,0.7,4.3
				c0.2,0.9,0.5,1.7,0.7,2.4c0.3,0.6,0.6,1.2,1.2,1.2c0.7-0.1,0.9-0.6,1.2-1.2c0.9-1.9,1.4-5.7,1.4-6.7v-14.2L469.5,291.1
				L469.5,291.1z"/>
		</g>
		<g>
			<path class="st5" d="M472.9,286.8l-0.3-0.1H472l-0.3,0.1c-1,1.1-2.4,1.9-4,1.9h-0.9c-1.5,0-2.7-0.7-3.6-1.8l-0.3-0.1h-0.2
				l-0.3,0.1l-0.1,0.3c0,2.9,2.4,5.3,5.3,5.3c2.9,0,5.3-2.4,5.3-5.3L472.9,286.8z"/>
		</g>
		<g>
			<path class="st4" d="M476.6,270.2l-0.3-0.1c-2.7,0.2-5.5,0.3-8.4,0.3c-3.1,0-6.1-0.1-8.9-0.4l-0.3,0.1l-0.1,0.3l3,14.7
				c0.5,2.5,2.7,4.2,5.2,4.2h0.9c3,0,5.6-2.1,6.2-5l2.8-13.8L476.6,270.2z"/>
		</g>
		<g>
			<path class="st5" d="M511.9,246.1l-33-6.8h-0.1l-56,3.2l-0.3,0.3l0.2,0.4c0,0,16.1,9,46.6,9c12,0,26.3-1.4,42.7-5.3l0.3-0.4
				L511.9,246.1z"/>
		</g>
		<g>
			<path class="st5" d="M482,264.8l-0.3-0.1c-4.1,0.5-8.8,0.8-13.8,0.8c-5.2,0-10.1-0.3-14.2-0.9l-0.3,0.1l-0.1,0.3l1.2,5.1l0.3,0.3
				c4.1,0.5,8,0.7,13.1,0.7c4.5,0,8.8-0.2,12.6-0.7l0.3-0.3l1.3-5.1L482,264.8z"/>
		</g>
		<g>
			<path class="st4" d="M478.9,165.1v77.3H438l-0.3,0.1l-0.1,0.3v15c0,1.3,0.9,2.4,2.5,3.4c4.6,2.9,15,4.9,27.2,4.9
				c8.1,0,15.4-0.9,20.8-2.3c2.7-0.7,4.8-1.6,6.4-2.6c1.5-1,2.5-2.1,2.5-3.4l0.1-12.6l15.2,1.7v-0.4l0.8-81.2L478.9,165.1z"/>
		</g>
		<g>
			<rect x="422.4" y="165.1" class="st6" width="57.2" height="78.1"/>
		</g>
	</g>
	<g>
		<polygon class="st2" points="654.9,138.8 654.8,138.5 654.5,138.4 297.1,153.6 296.8,153.9 297.1,154.3 343.1,165.4 343.1,165.4 
			532.7,166.1 654.7,166.6 654.9,166.5 655,166.2 		"/>
	</g>
	<g>
		<g>
			<polygon class="st7" points="600.3,171.8 600,171.6 557.3,171.6 557.1,172.3 610.1,234.1 610.4,234.2 655.3,234.2 655.6,233.6 
							"/>
		</g>
		<g>
			<rect x="557" y="160.1" class="st7" width="43.5" height="12.3"/>
		</g>
		<g>
			<polygon class="st4" points="655.5,178 600.2,160.1 599.8,160.1 599.7,160.5 599.7,172 599.8,172.3 655.1,234.1 655.5,234.2 
				655.7,233.8 655.7,178.4 			"/>
		</g>
	</g>
	<g>
		<polygon class="st3" points="172.3,354.7 602.4,406.1 602.4,560.5 172.3,483 		"/>
	</g>
	<g>
		<rect x="172" y="483" class="st2" width="0.8" height="29.1"/>
	</g>
	<g>
		<path class="st2" d="M398.1,523.5l-60.7-11.2l0,0l-0.3-0.1l-0.4-0.1l0,0l-47.9-8.6v29.2c0,0.4,0.4,0.7,0.8,0.6l47.5-16.1
			l61.1,11.6L398.1,523.5L398.1,523.5z"/>
	</g>
	<g>
		<polygon class="st4" points="289.1,503.7 172.4,482.6 172.1,482.7 172,483 172,512.1 172.3,512.5 289,533.5 289.3,533.4 
			289.5,533.1 289.5,504 		"/>
	</g>
	<g>
		<polygon class="st4" points="602.4,560.1 397.8,523.5 397.5,523.5 397.4,523.8 397.4,552.7 397.7,553.1 602.3,590 602.6,589.9 
			602.7,589.6 602.7,560.5 		"/>
	</g>
	<g>
		<polygon class="st4" points="655.6,394.7 655.3,394.6 643,397.3 643,397.3 602.3,405.7 602,406.1 602,560.5 602.1,560.8 
			602.5,560.8 643.2,545.5 643.4,545.1 643.4,533.4 655.5,528.8 655.7,528.5 655.7,395 		"/>
	</g>
	<g>
		<polygon class="st2" points="653.9,556.7 653.9,528.6 642.7,532.9 642.7,544.8 602,560.2 602,589.9 602.4,590 602.5,589.9 
			643.4,572.6 643.4,561.1 		"/>
	</g>
	<g>
		<path class="st2" d="M759,542.5c-0.2,0.1-0.4,0.3-0.4,0.6V571l0.5,1.5l49.4-21.9v-26.7L759,542.5z"/>
	</g>
	<g>
		<polygon class="st2" points="655.4,394.6 299.1,354.3 299,354.3 172.3,354.3 172,354.6 172.3,355 602.3,406.5 602.4,406.5 
			655.4,395.3 655.7,395 		"/>
	</g>
	<g>
		<path class="st2" d="M448.3,0c-11.3,0-20.5,11.8-22.4,27.2l-0.1,0.4l54.7-2.5l0.1-0.3c2.5-14,11.2-24.2,21.3-24.2V0H448.3z"/>
	</g>
	<g>
		<g>
			<path class="st8" d="M517.9,9.8c-4.1-6-9.8-9.8-16.2-9.8c-10.7,0-19.5,10.6-22.1,24.8l0.4,0.1v0.4l14.2-0.6l22.9,8.2l7.1,6.2
				l0.1-0.7c0.2-1.6,0.2-3.2,0.2-4.8C524.6,24.2,522.1,15.9,517.9,9.8z"/>
		</g>
	</g>
	<g>
		<g>
			<polygon class="st6" points="517.5,32 494.5,23.8 494.2,23.9 494,24.2 494,74.2 494.1,74.5 494.4,74.6 517.4,73.9 517.8,73.5 
				517.8,32.4 			"/>
		</g>
		<g>
			<polygon class="st6" points="392.3,36.5 392.2,36.8 392.2,77.1 392.6,77.5 402.2,77.5 402.5,77.1 402.5,28.3 401.9,28 			"/>
		</g>
	</g>
	<g>
		<polygon class="st4" points="543.1,54.3 517.6,32.1 517.2,32.1 517,32.4 517,73.5 517.1,73.8 517.4,73.9 542.9,72.9 543.2,72.5 
			543.2,54.6 		"/>
	</g>
	<g>
		<polygon class="st4" points="299.3,354.4 274.9,325 222.7,325 222.7,355 299.8,355 		"/>
	</g>
	<g>
		<polygon class="st6" points="223.3,253.4 223.3,253.8 222.7,325.8 274,325.8 274.6,253.4 		"/>
	</g>
	<g>
		<g>
			<polygon class="st6" points="595.7,121.6 595.3,107.2 304.9,116.4 305,131.2 595.7,122 			"/>
		</g>
		<g>
			<path class="st6" d="M595,99l-0.1-4.6c-0.2-5.3-4.5-9.5-9.8-9.5h-0.3l-270.4,8.6c-5.8,0.2-10.4,5-10.4,10.7v0.3l0.1,3.7v0.4
				L595,99.4V99z"/>
		</g>
	</g>
	<g>
		<g>
			<path class="st4" d="M654.8,89.5l-67.7-18.7l-0.3,0.1l-0.1,0.3l0.4,14l0,0l0,0v0.4l0.3,0.3c3.8,1,6.7,4.3,6.8,8.4l0.1,4.6h0.4
				l-0.1,0.4l3.4,0.7v1.2v0.4l0,0l0.2,5.4l-3.3,0.1l-0.4,0.4l0.4,14l0.3,0.4l5.8,1.1v24l0.3,0.4l53.3,13.5l0.3-0.1l0.1-0.3V89.9
				L654.8,89.5z"/>
		</g>
		<g>
			<path class="st4" d="M594.5,99.4L594.5,99.4L594.5,99.4z"/>
		</g>
	</g>
	<g>
		<g>
			<polygon class="st7" points="312.4,94.3 587.8,85.5 587.8,85.2 587.3,70.8 494.7,73.7 494.7,23.8 401.8,27.9 401.8,76.6 
				311.9,79.5 			"/>
		</g>
		<g>
			<polygon class="st7" points="598.9,107.4 598.6,98.3 299.3,107.8 299.3,117.4 598.9,107.8 			"/>
		</g>
		<g>
			<polygon class="st7" points="305.7,130.4 297,130.4 297,154.3 601.8,147.3 601.8,120 			"/>
		</g>
	</g>
	<g>
		<rect x="284.2" y="329.9" class="st1" width="16.8" height="6.6"/>
		<path class="st1" d="M301,336.8h-16.8c-0.2,0-0.4-0.2-0.4-0.4v-6.6c0-0.2,0.2-0.4,0.4-0.4H301c0.2,0,0.4,0.2,0.4,0.4v6.6
			C301.4,336.7,301.2,336.8,301,336.8z M284.6,336.1h16.1v-5.8h-16.1V336.1z"/>
	</g>
	<g>
		<path class="st0" d="M317.3,359.7h-49.4c-0.8,0-1.5-0.7-1.5-1.5v-5.9c0-0.8,0.7-1.5,1.5-1.5h49.4c0.8,0,1.5,0.7,1.5,1.5v5.9
			C318.8,359,318.1,359.7,317.3,359.7z"/>
		<path class="st0" d="M314.4,360h-43.5c-2.6,0-4.8-2.1-4.8-4.8c0-2.6,2.1-4.8,4.8-4.8h43.5c2.6,0,4.8,2.1,4.8,4.8
			C319.1,357.9,317,360,314.4,360z M270.8,351.2c-2.2,0-4,1.8-4,4s1.8,4,4,4h43.6c2.2,0,4-1.8,4-4s-1.8-4-4-4H270.8z"/>
	</g>
	<g>
		<rect x="276.1" y="336.5" class="st0" width="33.1" height="14.4"/>
		<path class="st0" d="M309.5,351.2h-33.8v-15.1h33.8V351.2z M276.4,350.5h32.3v-13.6h-32.3V350.5z"/>
	</g>
	<g>
		<path class="st4" d="M278.8,320.6l-0.3-0.1h-2.2c0.9-0.7,1.6-1.7,1.6-2.9v-3.2c0-2-1.6-3.7-3.7-3.7c-2,0-3.7,1.6-3.7,3.7v3.2
			c0,1.2,0.6,2.2,1.6,2.9h-1.2l-0.3,0.1l-0.1,0.3v9l0.1,0.3l0.3,0.1h7.6l0.3-0.1l0.1-0.3v-9L278.8,320.6z"/>
	</g>
	<g>
		<path class="st4" d="M290.5,318.8l-0.3-0.1h-1.3c0.7-0.6,1.1-1.4,1.1-2.3v-2.6c0-1.7-1.4-3.1-3.1-3.1c-1.7,0-3.1,1.4-3.1,3.1v2.6
			c0,0.9,0.5,1.8,1.1,2.3h-1.5l-0.3,0.1l-0.1,0.3v3.4l0.1,0.3l0.3,0.1h6.8l0.3-0.1l0.1-0.3v-3.4L290.5,318.8z"/>
	</g>
	<g>
		<g>
			<rect x="257.6" y="261.5" class="st3" width="7.6" height="3.9"/>
			<path class="st3" d="M265.5,265.8h-8.3v-4.6h8.3V265.8z M257.9,265h6.8v-3.1h-6.8V265z"/>
		</g>
		<g>
			<rect x="250.8" y="272" class="st3" width="21.2" height="7.5"/>
			<path class="st3" d="M272.3,279.8h-21.9v-8.2h21.9V279.8z M251.2,279.1h20.4v-6.7h-20.4V279.1z"/>
		</g>
		<g>
			<rect x="253.3" y="253.8" class="st1" width="16.2" height="7.7"/>
			<path class="st1" d="M269.4,261.9h-16.2c-0.2,0-0.4-0.2-0.4-0.4v-7.7c0-0.2,0.2-0.4,0.4-0.4h16.2c0.2,0,0.4,0.2,0.4,0.4v7.7
				C269.8,261.7,269.7,261.9,269.4,261.9z M253.7,261.2h15.4v-7h-15.4V261.2z"/>
		</g>
		<g>
			<rect x="234.8" y="265.4" class="st1" width="53.2" height="6.6"/>
			<path class="st1" d="M288,272.4h-53.2c-0.2,0-0.4-0.2-0.4-0.4v-6.6c0-0.2,0.2-0.4,0.4-0.4H288c0.2,0,0.4,0.2,0.4,0.4v6.6
				C288.3,272.2,288.2,272.4,288,272.4z M235.2,271.6h52.4v-5.9h-52.4V271.6z"/>
		</g>
	</g>
	<g>
		<g>
			<path class="st2" d="M270.6,325c0,0-5.1,1.1-10.2,6.1c-5.1,5-10.1,13.9-10.1,29.5c0,1.1,0,2.3,0.1,3.5h0.7
				c-0.1-1.2-0.1-2.4-0.1-3.5c0-15.4,5-24.1,9.9-28.9c2.5-2.4,4.9-3.9,6.8-4.8c0.9-0.4,1.7-0.7,2.2-0.9c0.5-0.2,0.8-0.2,0.8-0.2
				L270.6,325L270.6,325z"/>
		</g>
	</g>
	<g>
		<g>
			<polygon class="st6" points="278.9,322.1 278.9,329.9 278.8,330.2 278.5,330.3 316.3,330.3 316.3,322.1 			"/>
		</g>
	</g>
	<g>
		<path class="st4" d="M316.2,320.6l-0.3-0.1h-1.4c1-0.7,1.7-1.7,1.7-3v-3.2c0-2-1.6-3.7-3.7-3.7c-2,0-3.7,1.6-3.7,3.7v3.2
			c0,1.3,0.7,2.4,1.7,3h-1.4l-0.3,0.1l-0.1,0.3v9l0.1,0.3l0.3,0.1h6.8l0.3-0.1l0.1-0.3v-9L316.2,320.6z"/>
	</g>
	<g>
		<g class="st9">
			<g>
				<polygon class="st10" points="615.3,95.3 690.2,107.4 690.2,369.8 615.3,383.6 				"/>
			</g>
		</g>
		<g>
			<path class="st11" d="M358.6,73.5l34,8.5v287.9L359,377c-0.2,0-0.3-0.1-0.3-0.3V73.5H358.6z"/>
			<path class="st12" d="M358.9,377.3c-0.1,0-0.3,0-0.4-0.1c-0.2-0.1-0.2-0.3-0.2-0.5V73l0.5,0.1l34.2,8.5v288.5l-0.3,0.1l-33.6,7.1
				C359,377.3,358.9,377.3,358.9,377.3z M359,74v302.5l33.2-7V82.2L359,74z"/>
		</g>
		<g>
			<g class="st9">
				<polygon class="st10" points="384.6,95.3 586.9,93.3 586.9,346.1 553.2,380.4 384.6,361.4 				"/>
			</g>
			<g>
				<path class="st10" d="M387.3,80.6l-17,0.2v293.6l232.1,27.4V77.1L387.3,80.6z M586.9,346.1l-33.7,34.3l-168.6-19V95.3l202.3-2
					L586.9,346.1L586.9,346.1z"/>
				<path class="st10" d="M602.7,402.3h-0.4l-232.4-27.4V80.5l17.4-0.2l215.4-3.5V402.3z M370.7,374.2L602,401.5v-324L387.4,81
					l-16.7,0.2V374.2z M553.4,380.8h-0.2l-168.9-19V95h0.4l202.7-2v253.3l-0.1,0.1L553.4,380.8z M385,361.1L553.1,380l33.5-34V93.7
					l-201.6,2V361.1z"/>
			</g>
			<g>
				<g>
					<rect x="560.4" y="172" class="st3" width="9.3" height="201.2"/>
					<path class="st3" d="M570,373.6h-10.1v-202H570V373.6z M560.7,372.8h8.6V172.4h-8.6V372.8z"/>
				</g>
				<g>
					<rect x="560.4" y="157.6" class="st1" width="26.6" height="14.4"/>
					<path class="st1" d="M587.3,172.4H560v-15.1h27.3V172.4z M560.7,171.6h25.8V158h-25.8V171.6z"/>
				</g>
				<g>
					<rect x="560.4" y="373.2" class="st1" width="26.6" height="14.4"/>
					<path class="st1" d="M587.3,387.9H560v-15.1h27.3V387.9z M560.7,387.2h25.8v-13.6h-25.8V387.2z"/>
				</g>
			</g>
		</g>
		<g>
			<path class="st11" d="M699.4,94l-97.1-16.9v324.7l97.2-21.1L699.4,94z M690.2,369.8l-74.9,13.8V95.3l74.9,12.1V369.8z"/>
			<path class="st12" d="M602,402.4V76.7l97.8,17V94l0.2,287.1l-0.3,0.1L602,402.4z M602.7,77.6v323.8l96.5-20.9L699,94.3
				L602.7,77.6z M614.9,384.1V94.9l75.7,12.3v263l-0.3,0.1L614.9,384.1z M615.7,95.8v287.4l74.2-13.7V107.8L615.7,95.8z"/>
		</g>
		<g>
			<g>
				<rect x="632.6" y="172" class="st3" width="9.3" height="201.2"/>
				<path class="st3" d="M642.3,373.6h-10.1v-202h10.1V373.6z M632.9,372.8h8.6V172.4h-8.6V372.8z"/>
			</g>
			<g>
				<rect x="615.3" y="157.7" class="st1" width="26.6" height="14.4"/>
				<path class="st1" d="M642.3,172.4H615v-15.1h27.3V172.4z M615.7,171.6h25.8V158h-25.8V171.6z"/>
			</g>
			<g>
				<rect x="615.3" y="373.2" class="st1" width="26.6" height="14.4"/>
				<path class="st1" d="M642.3,387.9H615v-15.1h27.3V387.9z M615.7,387.2h25.8v-13.6h-25.8V387.2z"/>
			</g>
		</g>
		<g class="st9">
			<polygon class="st10" points="193.5,93.3 343.4,90.2 343.2,359.7 191.9,340.9 			"/>
		</g>
		<g>
			<path class="st10" d="M177.1,77.1l1.3,278.5l180.2,21.3V73.5L177.1,77.1z M343.2,359.7l-151.4-18.8l1.6-247.6l149.9-3.2
				L343.2,359.7z"/>
			<path class="st10" d="M359,377.4h-0.4L178.1,356v-0.3l-1.3-278.8h0.4l181.9-3.7L359,377.4L359,377.4z M178.8,355.3l179.4,21.3
				V73.9l-180.7,3.6L178.8,355.3z M343.6,360.1l-0.4-0.1l-151.7-18.8v-0.3L193.1,93h0.4l150.3-3.2v0.4L343.6,360.1z M192.3,340.6
				l150.6,18.7l0.2-268.7L194,93.8L192.3,340.6z"/>
		</g>
	</g>
</g>
</svg>
