<?xml version="1.0" encoding="UTF-8"?> <svg xmlns="http://www.w3.org/2000/svg" xmlns:xlink="http://www.w3.org/1999/xlink" version="1.1" id="Calque_1" x="0px" y="0px" viewBox="0 0 500 500" style="enable-background:new 0 0 500 500;" xml:space="preserve"> <style type="text/css"> .st0{fill:#333333;} .st1{display:none;stroke:#FFFFFF;stroke-width:7.04;stroke-linecap:round;stroke-linejoin:round;stroke-miterlimit:10;} .st2{fill-rule:evenodd;clip-rule:evenodd;fill:#333333;} .st3{fill:#FF0000;} .st4{fill:#FF0606;} </style> <path class="st0" d="M159.1,226.8c0-19.2-11.2-35.5-24.5-35.5c-13.3,0-24.5,16.2-24.5,35.5c0,19.2,11.2,35.5,24.5,35.5 C147.9,262.3,159.1,246,159.1,226.8z M115.1,226.8c0-14.4,8.3-30.5,19.5-30.5c11.1,0,19.5,16.1,19.5,30.5s-8.3,30.5-19.5,30.5 C123.5,257.3,115.1,241.2,115.1,226.8z M365.4,301.2c-13.3,0-24.5,16.2-24.5,35.5s11.2,35.5,24.5,35.5c13.3,0,24.5-16.2,24.5-35.5 S378.7,301.2,365.4,301.2z M365.4,367.2c-11.1,0-19.5-16.1-19.5-30.5s8.3-30.5,19.5-30.5s19.5,16.1,19.5,30.5 S376.5,367.2,365.4,367.2z M384.6,284.6l-4.8-2.7l4.8-2.7c7.9-4.6,14.7-11.7,19.5-20.7c5.1-9.4,7.7-20.4,7.7-31.6 c0-15.5-4.9-30-13.8-40.8c-8.7-10.7-20.4-16.6-32.7-16.6h-86.2l-0.5-2.5c-1.2-5.8,0.8-12,5.1-16.1l0.9-0.9h2.8c3,0,8.9-0.2,15.1-1.4 c7.2-1.4,12.5-3.8,15.8-7.1c6.7-6.7,8.8-21.4,8.5-32.9l0-0.1c0-1.4-1.1-2.5-2.5-2.5l-1.3,0c-20.2,0-28.6,5.3-31.8,8.5 c-7.4,7.5-8.4,23.9-8.5,28.7l0,1.4l-1.1,0.9c-6.1,5-9.2,12.7-8.2,20.5l0.4,3.5h-11.4l-9.5-29.6c-0.7-2-2.7-3.4-4.9-3.4h-27.3 c-1.7,0-3.3,0.8-4.3,2.2c-1,1.4-1.3,3.2-0.7,4.8l8.5,26h-89.7c-12.4,0-24,5.9-32.7,16.6c-8.9,10.9-13.8,25.4-13.8,40.8 c0,22.3,10.7,42.8,27.2,52.2l4.8,2.7l-4.8,2.7c-16.5,9.4-27.2,29.9-27.2,52.2c0,15.5,4.9,30,13.8,40.8c8.7,10.7,20.4,16.6,32.7,16.6 l60.3,0.1l170.5,0c12.4,0,24-5.9,32.7-16.6c8.9-10.9,13.8-25.4,13.8-40.8C411.9,314.5,401.2,294,384.6,284.6z M288.1,141.4 c0.9-15.8,5.2-21.6,7-23.4c3.6-3.7,11.3-6,23.3-7l3.6-0.3l-0.2,3.6c-0.9,15.8-5.2,21.7-7,23.4c-3.7,3.7-11.4,6-23.3,7l-3.6,0.3 L288.1,141.4z M223.9,174.3c1.7,0,3.3-0.8,4.3-2.2c1-1.4,1.3-3.2,0.7-4.8l-8.5-26h27.7l9.5,29.6c0.7,2,2.7,3.4,4.9,3.4l103,0 c15,0.8,28.2,9.8,34.5,23.5l2,4.4h-64.1c-1.4,0-2.5,1.1-2.5,2.5s1.1,2.5,2.5,2.5h66l0.6,2.3c3.1,11.2,3.1,23.1,0,34.3l-0.6,2.3 h-93.4c-1.4,0-2.5,1.1-2.5,2.5s1.1,2.5,2.5,2.5H402l-2,4.4c-6.2,13.7-19.4,22.7-34.4,23.5l-0.1,0h-210l6.5-6.1 c0.9-0.9,1.9-1.8,2.8-2.7c0.6-0.6,0.7-0.8,0.9-1c0.1-0.2,0.3-0.3,0.4-0.5c0.8-0.9,1.6-1.8,2.3-2.8l0.1-0.1l1.3-1.6l1.4-2.1h40.4 c1.4,0,2.5-1.1,2.5-2.5s-1.1-2.5-2.5-2.5h-36v-4l0.3-0.6c0.6-1.4,1.2-3,1.6-4.3l0.8-2.7c0.3-1.2,0.6-2.2,0.9-3.4l0.4-2.1 c0-1.1,0.3-2.1,0.5-3.1c0.1-0.5,0.2-1,0.3-1.5c0.1-0.5,0.1-0.8,0.1-1c0-0.4,0-0.8,0.2-1.3c0-1.1,0.1-2.1,0.2-3.1 c0.1-1.1,0.2-2.2,0.2-3.3c0-2.3,0-4.5-0.3-6.5l0-0.5c0-0.7,0-0.9-0.1-1.2c-0.3-0.7-0.4-1.7-0.6-3.1c-0.1-0.7-0.2-1.4-0.3-1.9 l-0.5-2.4c-0.2-1-0.5-2.1-0.8-3.2l-0.2-0.8l-0.6-2c-0.5-1.3-1-2.9-1.6-4.3l-0.3-0.6v-4H250c1.4,0,2.5-1.1,2.5-2.5s-1.1-2.5-2.5-2.5 h-78.8l-1.4-2.1l-1.3-1.7c-0.7-1-1.4-1.9-2.3-2.8c-0.2-0.2-0.4-0.4-0.5-0.6c-0.3-0.3-0.5-0.6-0.8-0.9c-1.2-1.2-2.1-2.1-2.8-2.7 l-7.3-6H223.9z M105.1,263.7L105.1,263.7c-7.7-9.8-11.9-22.9-11.9-36.9c0-13.9,4.2-27,11.9-36.9c7.8-10,18.3-15.6,29.5-15.6 c11.2,0,21.7,5.5,29.5,15.6c7.7,9.8,11.9,22.9,11.9,36.9c0,13.9-4.2,27-11.9,36.9c-7.8,10-18.3,15.6-29.5,15.6 C123.4,279.2,112.9,273.7,105.1,263.7z M196.7,389.2l-62.3-0.1c-15-0.8-28.2-9.8-34.5-23.5l-2-4.4h91.6c1.4,0,2.5-1.1,2.5-2.5 s-1.1-2.5-2.5-2.5H96.1l-0.6-2.3c-3.1-11.2-3.1-23.1,0-34.3l0.6-2.3h66c1.4,0,2.5-1.1,2.5-2.5c0-1.4-1.1-2.5-2.5-2.5H98l2-4.4 c6.2-13.7,19.4-22.7,34.4-23.5l0.2,0h209.9l-6.5,6.1c-0.9,0.9-1.9,1.8-2.8,2.7c-0.6,0.6-0.7,0.8-0.9,1c-0.1,0.2-0.3,0.3-0.4,0.5 c-0.8,0.9-1.6,1.8-2.3,2.8l-0.1,0.1l-1,1.3c-0.3,0.6-0.7,1-0.9,1.2c0,0,0,0,0,0l-0.9,1.2H250c-1.4,0-2.5,1.1-2.5,2.5 s1.1,2.5,2.5,2.5h74.4v4l-0.3,0.6c-0.6,1.4-1.2,3-1.6,4.3l-0.8,2.6c-0.3,1.1-0.6,2.3-0.9,3.5l-0.5,2.3c-0.2,1.3-0.5,2.9-0.6,4.2v1.9 c0,1.2-0.1,2.4-0.2,3.6c-0.1,1.1-0.2,2.2-0.2,3.3c0,2.3,0,4.5,0.3,6.5l0,0.5v2.1c0,0.9,0.2,1.8,0.4,2.8c0.1,0.4,0.2,0.8,0.2,1.2 l0.5,2.3c0.3,1.1,0.6,2.3,0.9,3.4l0.2,0.6l0.6,2c0.5,1.4,1,2.9,1.6,4.3l0.3,0.6v4h-36c-1.4,0-2.5,1.1-2.5,2.5s1.1,2.5,2.5,2.5h40.3 l0.9,1.2c0.3,0.4,0.5,0.7,0.7,1l1.3,1.6c0.7,1,1.5,1.9,2.3,2.8c0.2,0.2,0.4,0.4,0.5,0.6c0.3,0.3,0.5,0.6,0.8,0.9 c1.2,1.2,2.2,2.2,2.9,2.8l6.5,6.1H196.7z M406.9,336.7c0,13.9-4.2,27-11.9,36.9c-7.8,10-18.3,15.6-29.5,15.6s-21.7-5.5-29.5-15.6 c-7.7-9.8-11.9-22.9-11.9-36.9s4.2-27,11.9-36.9c7.8-10,18.3-15.6,29.5-15.6s21.7,5.5,29.5,15.6 C402.6,309.7,406.9,322.8,406.9,336.7z"></path> </svg> 