<?xml version="1.0" encoding="UTF-8"?> <svg xmlns="http://www.w3.org/2000/svg" id="Ebene_1" data-name="Ebene 1" viewBox="0 0 449.39 100"><defs><style>.cls-1,.cls-3{fill:#2d2e87;}.cls-1,.cls-2{fill-rule:evenodd;}.cls-2{fill:#e50040;}.cls-4{fill:#9f9da0;}</style></defs><path class="cls-1" d="M205.67,2h12.64l-3.13,11.73h15.24L226.9,26.88H211.66c-1.24,4.62-4.32,16.11-5.88,22a2.83,2.83,0,0,0,2.71,3.56l11.54.13-3,11.25-13.07,0a11.33,11.33,0,0,1-11-14.27L205.67,2Z" transform="translate(-2.31 -2)"></path><path class="cls-1" d="M261.63,13.74H250.69a22.69,22.69,0,0,0-21.88,16.73l-9.06,33.3H233l8.88-32.71a5.66,5.66,0,0,1,5.47-4.18h10.72l3.52-13.14Z" transform="translate(-2.31 -2)"></path><polygon class="cls-1" points="358.64 11.74 371.92 11.74 358.53 61.77 345.24 61.77 358.64 11.77 358.64 11.74"></polygon><polygon class="cls-1" points="426.29 0 411.67 0 393.55 24.88 390.28 11.74 376.68 11.74 383.04 37.27 349.69 80.56 364.3 80.56 386.6 51.65 389.14 61.77 402.74 61.77 396.88 38.29 426.29 0 426.29 0"></polygon><polyline class="cls-2" points="350.5 71.8 343.69 80.56 18.97 80.56 23.76 71.8"></polyline><path class="cls-1" d="M127.41,13.74c14.17,0,22.71,11.21,19,25s-18.29,25-32.45,25-22.71-11.24-19-25,18.26-25,32.45-25Zm-3.29,13.14c-7.21,0-14.67,5.55-16.55,12.32s2.47,12.31,9.68,12.31S131.92,46,133.8,39.2s-2.48-12.32-9.68-12.32Z" transform="translate(-2.31 -2)"></path><path class="cls-1" d="M285.91,13.77c14.16,0,22.71,11.21,19,25s-18.29,25-32.46,25-22.7-11.24-19-25,18.27-25,32.46-25Zm-3.3,13.11c-7.21,0-14.66,5.62-16.55,12.47s2.48,12.47,9.69,12.47,14.66-5.61,16.55-12.47-2.48-12.47-9.69-12.47Z" transform="translate(-2.31 -2)"></path><path class="cls-1" d="M155.29,13.77l-13.4,50h13.29l9.89-36.89,9.28.06a5.67,5.67,0,0,1,5.44,7.13l-8,29.7h13.32c1.39-5.18,4.68-17.5,7.65-28.62a17,17,0,0,0-16.45-21.39Z" transform="translate(-2.31 -2)"></path><path class="cls-1" d="M314.66,13.77l-13.4,50h13.29l9.89-36.89,9.28.06a5.67,5.67,0,0,1,5.44,7.13l-8,29.7h13.32c1.39-5.18,4.68-17.5,7.64-28.62a17,17,0,0,0-16.44-21.39Z" transform="translate(-2.31 -2)"></path><path class="cls-1" d="M440.13,2.07a11.43,11.43,0,0,1,11.56,11.26,11.55,11.55,0,0,1-23.1,0A11.42,11.42,0,0,1,440.13,2.07Zm0,1.57a9.8,9.8,0,0,0-9.92,9.69,9.94,9.94,0,0,0,19.87,0,9.83,9.83,0,0,0-9.95-9.69Z" transform="translate(-2.31 -2)"></path><path class="cls-3" d="M434.85,19.83V6.23H441a8.32,8.32,0,0,1,2.84.37,3,3,0,0,1,1.54,1.29A3.76,3.76,0,0,1,446,9.94a3.36,3.36,0,0,1-1,2.44,4.9,4.9,0,0,1-3,1.26,4.79,4.79,0,0,1,1.11.68,9.34,9.34,0,0,1,1.53,1.81l2.42,3.7h-2.31L443,17c-.54-.82-1-1.44-1.33-1.87a4.06,4.06,0,0,0-.93-.91,3,3,0,0,0-.85-.36,5,5,0,0,0-1-.07H436.7v6Zm1.85-7.6h4a6.11,6.11,0,0,0,2-.25,2.06,2.06,0,0,0,1.08-.82,2.14,2.14,0,0,0,.37-1.22,2,2,0,0,0-.71-1.59,3.46,3.46,0,0,0-2.27-.62H436.7Z" transform="translate(-2.31 -2)"></path><path class="cls-4" d="M33.28,102H30.73V93.56l-2.54,5.6H26.48l-2.55-5.58V102H21.54V90h2.89l3,6.39,3-6.39h2.89Z" transform="translate(-2.31 -2)"></path><path class="cls-4" d="M46.54,102a5.55,5.55,0,0,1-4.22-1.6,7.09,7.09,0,0,1,0-8.81A5.57,5.57,0,0,1,46.54,90a5.59,5.59,0,0,1,4.24,1.61,7.07,7.07,0,0,1,0,8.8A5.6,5.6,0,0,1,46.54,102Zm0-10.19a2.66,2.66,0,0,0-2.23,1.09,6.19,6.19,0,0,0,0,6.19,2.69,2.69,0,0,0,2.23,1.09,2.64,2.64,0,0,0,2.22-1.1A5,5,0,0,0,49.6,96a5,5,0,0,0-.82-3.09A2.64,2.64,0,0,0,46.55,91.81Z" transform="translate(-2.31 -2)"></path><path class="cls-4" d="M70,102H67.5l-5.29-8.81V102h-2.4V90h3.13l4.65,7.77V90H70Z" transform="translate(-2.31 -2)"></path><path class="cls-4" d="M84.12,102H77.69v-1.79h1.93V91.78H77.69V90h6.43v1.8H82.2v8.43h1.92Z" transform="translate(-2.31 -2)"></path><path class="cls-4" d="M100.89,92H97v10H94.44V92H90.56V90h10.33Z" transform="translate(-2.31 -2)"></path><path class="cls-4" d="M112.34,102a5.58,5.58,0,0,1-4.23-1.6,7.09,7.09,0,0,1,0-8.81,6.39,6.39,0,0,1,8.48,0,7.09,7.09,0,0,1,0,8.8A5.58,5.58,0,0,1,112.34,102Zm0-10.42a2.61,2.61,0,0,0-2.23,1.12,6.43,6.43,0,0,0,0,6.32,2.77,2.77,0,0,0,4.45,0,6.43,6.43,0,0,0,0-6.32A2.61,2.61,0,0,0,112.35,91.58Z" transform="translate(-2.31 -2)"></path><path class="cls-4" d="M136.48,102h-3.19l-3.46-4.55h-1.64V102h-2.58V90h4.51a5.6,5.6,0,0,1,3.54.89,3,3,0,0,1,1.09,2.41,3.75,3.75,0,0,1-2.36,3.54Zm-8.3-10.13v3.74h1.15a3.16,3.16,0,0,0,2.21-.56,2.07,2.07,0,0,0,.54-1.49,1.53,1.53,0,0,0-.52-1.25,3.31,3.31,0,0,0-2-.44Z" transform="translate(-2.31 -2)"></path><path class="cls-4" d="M149,102h-6.43v-1.79h1.92V91.78h-1.92V90H149v1.8H147v8.43H149Z" transform="translate(-2.31 -2)"></path><path class="cls-4" d="M166.83,102h-2.48l-5.29-8.81V102h-2.4V90h3.13l4.65,7.77V90h2.39Z" transform="translate(-2.31 -2)"></path><path class="cls-4" d="M185,101a12,12,0,0,1-4.48,1,6.31,6.31,0,0,1-4.57-1.59A5.86,5.86,0,0,1,174.33,96,5.75,5.75,0,0,1,176,91.6,6.33,6.33,0,0,1,180.61,90,10.34,10.34,0,0,1,185,91v2.35h-.27a8.62,8.62,0,0,0-2.26-1.29,5.77,5.77,0,0,0-1.69-.27,3.53,3.53,0,0,0-2.73,1.1,4.34,4.34,0,0,0-1,3,4.49,4.49,0,0,0,1,3.2,3.92,3.92,0,0,0,3,1.1,5,5,0,0,0,1.42-.19V97.4h-2.64V95.56H185Z" transform="translate(-2.31 -2)"></path><path class="cls-4" d="M203.06,101.09V98.64h.26a7.2,7.2,0,0,0,2,1.12,6.23,6.23,0,0,0,2.18.42,3.41,3.41,0,0,0,1.75-.39,1.17,1.17,0,0,0,.67-1.07,1.14,1.14,0,0,0-.32-.84,2.59,2.59,0,0,0-1.2-.53q-.63-.1-2.16-.45a4.41,4.41,0,0,1-2.33-1.19,3.21,3.21,0,0,1,.56-4.74A5.9,5.9,0,0,1,208,90a10.82,10.82,0,0,1,4.11.79v2.34h-.26a5.87,5.87,0,0,0-3.77-1.3,3.29,3.29,0,0,0-1.66.37,1.1,1.1,0,0,0-.65,1,1.07,1.07,0,0,0,.37.87,2.82,2.82,0,0,0,1.27.53c.6.11,1.27.25,2,.43a6.31,6.31,0,0,1,1.65.6,3.32,3.32,0,0,1,.86.72,2.63,2.63,0,0,1,.49.86A3.4,3.4,0,0,1,211.2,101a6.14,6.14,0,0,1-3.72,1A11.21,11.21,0,0,1,203.06,101.09Z" transform="translate(-2.31 -2)"></path><path class="cls-4" d="M225,102a5.56,5.56,0,0,1-4.23-1.6,7.09,7.09,0,0,1,0-8.81,6.37,6.37,0,0,1,8.47,0,7.07,7.07,0,0,1,0,8.8A5.58,5.58,0,0,1,225,102Zm0-10.19a2.64,2.64,0,0,0-2.23,1.09,6.19,6.19,0,0,0,0,6.19,2.81,2.81,0,0,0,4.45,0,6.17,6.17,0,0,0,0-6.18A2.63,2.63,0,0,0,225,91.81Z" transform="translate(-2.31 -2)"></path><path class="cls-4" d="M246.43,102h-8.18V90h2.58v10h5.6Z" transform="translate(-2.31 -2)"></path><path class="cls-4" d="M262.86,97.35a4.44,4.44,0,0,1-1.3,3.49,5.44,5.44,0,0,1-3.72,1.16,5.31,5.31,0,0,1-3.72-1.18,4.45,4.45,0,0,1-1.29-3.47V90h2.59v7.3a3.12,3.12,0,0,0,.6,2.13,2.38,2.38,0,0,0,1.82.65,2.34,2.34,0,0,0,1.84-.65,3.06,3.06,0,0,0,.59-2.11V90h2.59Z" transform="translate(-2.31 -2)"></path><path class="cls-4" d="M280,92h-3.87v10h-2.58V92H269.7V90H280Z" transform="translate(-2.31 -2)"></path><path class="cls-4" d="M292.89,102h-6.43v-1.79h1.93V91.78h-1.93V90h6.43v1.8H291v8.43h1.92Z" transform="translate(-2.31 -2)"></path><path class="cls-4" d="M305.39,102a5.58,5.58,0,0,1-4.23-1.6,7.09,7.09,0,0,1,0-8.81,6.37,6.37,0,0,1,8.47,0,7.07,7.07,0,0,1,0,8.8A5.58,5.58,0,0,1,305.39,102Zm0-10.19a2.64,2.64,0,0,0-2.23,1.09,6.19,6.19,0,0,0,0,6.19,2.81,2.81,0,0,0,4.45,0,6.17,6.17,0,0,0,0-6.18A2.63,2.63,0,0,0,305.4,91.81Z" transform="translate(-2.31 -2)"></path><path class="cls-4" d="M328.83,102h-2.49l-5.29-8.81V102h-2.39V90h3.13l4.65,7.77V90h2.39Z" transform="translate(-2.31 -2)"></path><path class="cls-4" d="M336.42,101.09V98.64h.27a7,7,0,0,0,2,1.12,6.33,6.33,0,0,0,2.19.42,3.44,3.44,0,0,0,1.75-.39,1.18,1.18,0,0,0,.66-1.07,1.13,1.13,0,0,0-.31-.84,2.59,2.59,0,0,0-1.2-.53c-.43-.07-1.15-.22-2.17-.45a4.45,4.45,0,0,1-2.33-1.19,3.2,3.2,0,0,1,.57-4.74,5.86,5.86,0,0,1,3.52-1,10.82,10.82,0,0,1,4.11.79v2.34h-.25a5.91,5.91,0,0,0-3.77-1.3,3.33,3.33,0,0,0-1.67.37,1.12,1.12,0,0,0-.65,1,1.07,1.07,0,0,0,.37.87,2.87,2.87,0,0,0,1.27.53c.6.11,1.27.25,2,.43a6,6,0,0,1,1.65.6,3.55,3.55,0,0,1,.87.72,2.44,2.44,0,0,1,.48.86,3.4,3.4,0,0,1-1.24,3.78,6.14,6.14,0,0,1-3.72,1A11.25,11.25,0,0,1,336.42,101.09Z" transform="translate(-2.31 -2)"></path><path class="cls-1" d="M45.79,2,2.31,82.56H15.23L45.79,26V63.8H58.72L79.2,25.93V63.8H92.11l0-61.8H79.2L58.72,39.92V2Z" transform="translate(-2.31 -2)"></path></svg> 