<?xml version="1.0" encoding="UTF-8"?> <svg xmlns="http://www.w3.org/2000/svg" xmlns:xlink="http://www.w3.org/1999/xlink" version="1.1" id="layer" x="0px" y="0px" viewBox="0 0 447.2 52.5" style="enable-background:new 0 0 447.2 52.5;" xml:space="preserve"> <style type="text/css"> .st0{fill:#333333;} </style> <path class="st0" d="M34.3,0h14.5v52.5H34.3V31.4H14.5v21.1H0V0h14.5v21h19.8V0z M55.4,52.5h36.5v-9.9h-22V30.9h20.4v-9.7H69.9V9.9 h22V0H55.4V52.5z M95.9,52.4h14.5V0H95.9V52.4z M169.1,26.3c0,19.4-11.9,26.2-29.9,26.2H117V0.1h22.2 C157.3,0.1,169.1,6.9,169.1,26.3z M153.7,26.3c0-10.9-7.5-16.1-15.4-16.1h-6.8v32.2h6.8C146.2,42.4,153.7,37.1,153.7,26.3z M171,52.5h36.5v-9.9h-22V30.9h20.4v-9.7h-20.4V9.9h22V0H171V52.5z M249.9,40.8L231.6,0h-19v52.5h12.2l-0.9-40.8l16.7,40.8H261V0 h-12.3L249.9,40.8z M301.9,21h-19.8V0h-14.5v52.5h14.5V31.4h19.8v21.1h14.6V0h-14.6V21z M356.4,0.1l21.1,52.4H363l-4.1-10.9h-22.6 l-4,10.9h-14.5l21-52.4H356.4z M355.4,32l-7.8-21.5L339.8,32H355.4z M378.2,52.4h14.5V0h-14.5V52.4z M434.9,0l1.1,40.8L417.8,0 h-19.1v52.5H411l-0.9-40.8l16.7,40.8h20.4V0H434.9z"></path> </svg> 