<?xml version="1.0" encoding="UTF-8"?> <svg xmlns="http://www.w3.org/2000/svg" xmlns:xlink="http://www.w3.org/1999/xlink" version="1.1" id="Accompagnement_global" x="0px" y="0px" viewBox="0 0 500 500" style="enable-background:new 0 0 500 500;" xml:space="preserve"> <style type="text/css"> .st0{fill:#9FE7F5;} .st1{fill:#FFFFFF;} </style> <g id="aplati"> <circle class="st0" cx="250.4" cy="250" r="127.6"></circle> <path class="st1" d="M263.8,84c-1-6.5-6.6-11.5-13.4-11.5c-7.5,0-13.6,6.1-13.6,13.6c0,7.5,6.1,13.6,13.6,13.6 c6.5,0,12-4.6,13.3-10.7c74.6,5.3,135.1,62,146.2,134.9l4.9-0.8C403.3,147.9,340.9,89.5,263.8,84L263.8,84z M256.5,92.2 c-1.6,1.6-3.7,2.5-6.1,2.5c-2.4,0-4.5-1-6.1-2.5c-1.6-1.6-2.5-3.7-2.5-6.1c0-2.4,1-4.5,2.5-6.1c1.6-1.6,3.7-2.5,6.1-2.5 c2.4,0,4.5,1,6.1,2.5c1.6,1.6,2.5,3.7,2.5,6.1C259,88.5,258,90.6,256.5,92.2z"></path> <rect x="401.9" y="239.1" class="st1" width="21.9" height="21.9"></rect> <path class="st1" d="M250.4,400.3c-6.5,0-12,4.6-13.3,10.7c-74.6-5.3-135.1-62-146.2-134.9l-4.9,0.8c11.5,75.2,74,133.7,151,139.1 c1,6.5,6.6,11.5,13.4,11.5c7.5,0,13.6-6.1,13.6-13.6S257.9,400.3,250.4,400.3L250.4,400.3z M256.5,420c-1.6,1.6-3.7,2.5-6.1,2.5 c-2.4,0-4.5-1-6.1-2.5c-1.6-1.6-2.5-3.7-2.5-6.1c0-2.4,1-4.5,2.5-6.1c1.6-1.6,3.7-2.5,6.1-2.5c2.4,0,4.5,1,6.1,2.5 c1.6,1.6,2.5,3.7,2.5,6.1C259,416.3,258,418.4,256.5,420z"></path> <rect x="76.3" y="239.1" class="st1" width="21.9" height="21.9"></rect> <circle class="st1" cx="219.8" cy="321.2" r="7.3"></circle> <path class="st1" d="M250.4,119.9c-71.9,0-130.1,58.2-130.1,130.1c0,71.9,58.2,130.1,130.1,130.1c71.9,0,130.1-58.2,130.1-130.1 C380.5,178.1,322.2,119.9,250.4,119.9L250.4,119.9z M362.4,305.7c-9.5,2.4-18.7,4.4-27.6,6.1c-0.5-1.2-1.4-2.2-2.5-2.8 c5.7-15.4,9.2-32.6,10.1-50.8c10.8-1.8,21.9-4,33.1-6.6C375.2,271,370.5,289.3,362.4,305.7L362.4,305.7z M230.8,373.6 c-5.3-1.6-10.5-3.9-15.4-6.9c-16.1-9.6-29.9-25.6-39.7-45.8c-0.6-1.3-1.2-2.6-1.8-4c12.4,2.3,27.7,4.3,45.4,5.3 c1.3,6.5,2.7,12.7,4.3,18.3c3.3,11.6,7.3,21,11.7,27.6c1.8,2.7,3.7,4.9,5.7,6.6C237.6,374.5,234.2,374.1,230.8,373.6L230.8,373.6z M125.3,251.8c5,1.4,16.4,4.3,33.2,7.2c1,20,5.3,38.8,12.1,55.3c-2.2-0.4-4.3-0.9-6.3-1.3c-9.2-2-16.2-4-21-5.4 c-2-0.6-3.6-1.2-4.8-1.6C130.3,289.6,125.6,271.3,125.3,251.8L125.3,251.8z M335.4,200.4c9.1-1.4,18.3-3,27.5-5 c8,16.4,12.4,34.7,12.5,54.1c-11.2,2.6-22.3,4.8-33.1,6.6c0.1-2.1,0.1-4.1,0.1-6.2C342.5,232.5,340,215.7,335.4,200.4L335.4,200.4z M340.5,250c0,2.2,0,4.4-0.1,6.5c-18.4,3.1-36,5.1-52.8,6.3c0.1-4.2,0.2-8.5,0.2-12.8c0-12.2-0.5-24-1.4-35.2c5-0.8,8.8-4.9,9.2-10 c12.4-0.9,25-2.2,37.8-4.1C338,215.9,340.5,232.5,340.5,250L340.5,250z M295.6,202.8c-0.5-5.6-5.3-10.1-11.1-10.1 c-0.2,0-0.4,0-0.6,0c-1.8-12.3-4.1-23.6-6.9-33.2c-1.5-5.4-3.2-10.3-5-14.6c8.2-0.6,16.5-1.6,25-3.1c11.1,9.5,20.6,22.2,27.9,37.3 c3,6.2,5.6,12.8,7.8,19.7C320.2,200.6,307.8,201.9,295.6,202.8L295.6,202.8z M247.1,264.3c-11.3,0-22-0.4-32-0.9 c-0.1-4.4-0.2-8.8-0.2-13.3c0-15.8,0.8-30.9,2.3-44.9c11.6,0.7,24.1,1.1,37.3,1.1c6.2,0,12.6-0.1,19.1-0.3c1,5.1,5.4,9,10.8,9 c0.9,11.1,1.4,22.9,1.4,35.1c0,4.4-0.1,8.7-0.2,12.9C272.1,263.9,259.3,264.3,247.1,264.3L247.1,264.3z M285.6,265 c-0.7,19.9-2.6,38.5-5.6,54.5c-13,1-25.2,1.5-36.6,1.5c-7.9,0-15.3-0.2-22.4-0.6c-0.4-2.3-0.8-4.6-1.2-7c-2.4-14.5-4-30.7-4.6-48 c10,0.6,20.7,0.9,31.9,0.9C259.3,266.3,272.1,265.9,285.6,265L285.6,265z M241.1,125.3c-3.8,3.3-7.4,8.4-10.5,15.2 c-0.5,1-0.9,2-1.4,3.1c-8.2-0.7-15.5-1.6-21.5-2.5c-0.9-0.1-1.8-0.3-2.7-0.4c3.3-2.7,6.8-5.2,10.4-7.3c4.9-2.9,10.1-5.2,15.4-6.9 C234.2,125.9,237.6,125.5,241.1,125.3L241.1,125.3z M230.9,144.7c6.9,0.5,14.4,0.9,22.4,0.9c5.4,0,11-0.2,16.7-0.5 c4.5,10.7,8.3,25,11,41.7c0.3,2.1,0.7,4.2,1,6.4c-4.9,1.2-8.5,5.6-8.5,10.8c0,0,0,0.1,0,0.1c-6.4,0.2-12.7,0.3-18.9,0.3 c-13.1,0-25.5-0.4-37.1-1.1c1.9-16.3,4.6-30.9,8.1-43.1C227.2,154.4,229,149.2,230.9,144.7L230.9,144.7z M286.3,131.6 c-1.8-1-3.5-2-5.3-2.9c9.2,2.3,18,5.7,26.3,9.9c-2.9,0.7-5.8,1.3-8.7,1.9C294.7,137.1,290.6,134.1,286.3,131.6L286.3,131.6z M269.9,126.5c5.3,1.6,10.5,3.9,15.4,6.9c3.7,2.2,7.3,4.8,10.8,7.6c-8.2,1.5-16.4,2.4-24.4,3c-2-4.7-4.1-8.7-6.3-12 c-1.8-2.7-3.7-4.9-5.7-6.6C263.1,125.5,266.6,125.9,269.9,126.5L269.9,126.5z M257.1,125.8c3.9,2.8,7.8,8.1,11.2,15.5 c0.4,0.9,0.8,1.8,1.2,2.7c-5.6,0.3-11,0.5-16.3,0.5c-7.8,0-15.1-0.3-22-0.8c1.8-4.2,3.7-7.8,5.7-10.7c2.1-3.2,4.4-5.6,6.6-7.2 c0.4-0.3,0.8-0.5,1.2-0.8c1.8-0.1,3.7-0.1,5.6-0.1s3.7,0.1,5.6,0.1C256.3,125.3,256.7,125.5,257.1,125.8L257.1,125.8z M214.4,131.6 c-4.2,2.5-8.2,5.4-12,8.6c-3.3-0.6-6.1-1.1-8.2-1.5c-0.2,0-0.4-0.1-0.6-0.1c8.2-4.2,17-7.5,26.2-9.8 C217.9,129.6,216.1,130.6,214.4,131.6L214.4,131.6z M204,141.5c6.6,1.1,15.1,2.2,24.8,3c-4.5,10.9-8.3,25.2-11,41.8 c-0.9,5.3-1.6,10.9-2.3,16.7c-17.6-1.1-33.1-2.7-45.7-4.4c-0.6-0.1-1.2-0.1-1.7-0.2c4.6-14.3,10.9-27.1,18.7-38 C191.9,153.1,197.7,146.8,204,141.5L204,141.5z M215.2,205c-1.5,14-2.3,29.2-2.3,45c0,4.5,0.1,8.9,0.2,13.2 c-20.8-1.3-38.6-3.6-52.7-6c-0.1-2.4-0.2-4.8-0.2-7.3c0-17.6,2.6-34.4,7.2-49.7C180.3,202.1,196.6,203.9,215.2,205L215.2,205z M158.2,250c0,2.3,0.1,4.6,0.1,6.9c-0.5-0.1-1.1-0.2-1.6-0.3c-10.8-1.9-19.2-3.8-25-5.2c-2.9-0.7-5.1-1.3-6.5-1.7l0,0 c0.1-19.5,4.5-37.9,12.5-54.3c4.2,0.8,13.8,2.7,27.7,4.6C160.8,215.4,158.2,232.3,158.2,250L158.2,250z M160.5,259.3 c14.2,2.4,32,4.6,52.7,5.9c0.7,20.1,2.7,38.8,5.7,55c-18.1-1-33.5-3.2-46-5.5C165.9,298.3,161.5,279.5,160.5,259.3z M243.6,374.2 c-3.9-2.8-7.8-8.1-11.2-15.5c-4.3-9.2-8.1-21.7-11-36.4c7,0.4,14.3,0.6,22,0.6c11.3,0,23.4-0.5,36.2-1.5 c-1.3,6.6-2.8,12.9-4.4,18.5c-3.3,11.5-7.2,20.7-11.5,27.1c-2.1,3.2-4.4,5.6-6.6,7.2c-0.4,0.3-0.8,0.5-1.2,0.8 c-1.8,0.1-3.7,0.1-5.6,0.1c-1.9,0-3.7,0-5.6-0.1C244.4,374.8,244,374.5,243.6,374.2L243.6,374.2z M259.6,374.8 c3.8-3.3,7.4-8.4,10.5-15.2c4.6-9.8,8.5-22.8,11.5-38.3c13.5-1.1,27.9-2.9,43-5.5c0.4,1,1,1.8,1.7,2.4c-3.5,7.8-7.7,15-12.3,21.5 c-8.2,11.5-17.9,20.7-28.7,27.1c-4.9,2.9-10.1,5.2-15.4,6.9C266.5,374.1,263.1,374.5,259.6,374.8L259.6,374.8z M324.3,313.8 c-14.8,2.6-28.9,4.3-42.3,5.5c0.3-1.8,0.7-3.7,1-5.5c2.4-14.7,4-31.3,4.6-48.9c16.7-1.2,34.4-3.2,52.7-6.2 c-0.9,17.9-4.4,34.8-10,49.9c-0.2,0-0.4,0-0.6,0C326.7,308.4,324.3,310.8,324.3,313.8L324.3,313.8z M362,193.6 c-9.1,1.9-18.2,3.6-27.2,4.9c-4.6-14.7-11.2-28.1-19.2-39.3c-4.8-6.8-10.2-12.8-16-17.9c3-0.6,6-1.3,9-2 c11.2,5.9,21.4,13.4,30.2,22.3C348.1,170.9,356,181.7,362,193.6z M161.9,161.6c8.9-8.9,19.1-16.4,30.3-22.3 c2.1,0.5,5.3,1.1,9.2,1.8c-10.9,9.6-20.3,22.3-27.5,37.2c-3,6.2-5.6,12.9-7.9,19.9c-8.9-1.2-16-2.4-21.1-3.4 c-2.6-0.5-4.7-0.9-6.2-1.2C144.7,181.7,152.6,170.9,161.9,161.6L161.9,161.6z M139.8,308.6c5.6,1.9,16.4,5,31.7,7.9 c3.8,8.9,8.4,17,13.6,24.3c8.3,11.6,18.2,21.1,29.3,27.6c1.8,1,3.5,2,5.3,2.9c-22.2-5.6-42.1-17.1-57.8-32.9 C153.1,329.7,145.6,319.7,139.8,308.6L139.8,308.6z M338.8,338.5c-15.7,15.7-35.6,27.3-57.8,32.9c1.8-0.9,3.6-1.8,5.3-2.9 c16.6-9.8,30.6-26.1,40.5-46.7c0.4-0.9,0.8-1.8,1.2-2.7c0.5,0.2,1.1,0.2,1.6,0.2c3,0,5.5-2.5,5.5-5.5c0,0,0-0.1,0-0.1 c8.5-1.6,17.1-3.6,26-5.8C355.3,319.3,347.7,329.6,338.8,338.5L338.8,338.5z"></path> </g> </svg> 