<?xml version="1.0" encoding="UTF-8"?> <svg xmlns="http://www.w3.org/2000/svg" xmlns:xlink="http://www.w3.org/1999/xlink" version="1.1" id="Calque_1" x="0px" y="0px" viewBox="0 0 133.6 103.4" style="enable-background:new 0 0 133.6 103.4;" xml:space="preserve"> <style type="text/css"> .st0{fill:#EE7601;} </style> <g id="Logo_x5F_tertiaire_x5F_CMJN"> <g id="logo_tertiaire_00000176030975643506769880000008148478283431512979_"> <g id="CIRCUIT_x5F_IMPRIME_00000127760801273363297890000011700092713759419547_"> <path class="st0" d="M39.2,25.5c1.1-1.2,1.8-3,1.8-4.8c0-1.9-0.7-3.6-1.8-4.8s-2.6-2-4.3-2c-2.1,0-4,1.2-5.1,3 c-0.1,0.2-0.3,0.5-0.4,0.7s-0.2,0.5-0.3,0.8c-0.2,0.7-0.4,1.5-0.4,2.3c0,1.9,0.7,3.6,1.8,4.8c1.1,1.2,2.6,2,4.3,2v-0.2v0.2 C36.6,27.5,38.1,26.7,39.2,25.5z M30.9,25.2c-1-1.2-1.7-2.8-1.7-4.5c0-0.8,0.1-1.5,0.3-2.2c0.1-0.2,0.2-0.5,0.3-0.7 c0.1-0.2,0.2-0.5,0.4-0.7c1-1.7,2.7-2.8,4.7-2.8c1.5,0,2.9,0.7,4,1.9c1,1.2,1.7,2.8,1.7,4.5c0,1.8-0.6,3.4-1.7,4.5 c-1,1.2-2.4,1.9-4,1.9C33.3,27,31.9,26.3,30.9,25.2z"></path> <path class="st0" d="M20.3,51.5c0-1.9-0.7-3.6-1.8-4.8c-1.1-1.2-2.6-2-4.3-2s-3.2,0.8-4.3,2s-1.8,3-1.8,4.8 c0,0.8,0.1,1.6,0.4,2.3c0.1,0.3,0.2,0.5,0.3,0.8s0.2,0.5,0.4,0.7c1.1,1.8,3,3,5.1,3c1.7,0,3.2-0.8,4.3-2l-0.2-0.2l0.2,0.2 C19.6,55.1,20.3,53.4,20.3,51.5z M18.1,56.1L18.1,56.1c-1,1.2-2.4,1.9-4,1.9c-1.9,0-3.6-1.1-4.7-2.8C9.3,55,9.1,54.7,9,54.5 c-0.1-0.2-0.2-0.5-0.3-0.7c-0.2-0.7-0.3-1.4-0.3-2.2c0-1.8,0.6-3.4,1.7-4.5c1-1.2,2.4-1.9,4-1.9c1.5,0,2.9,0.7,4,1.9 c1,1.2,1.7,2.8,1.7,4.5C19.8,53.3,19.2,54.9,18.1,56.1z"></path> <path class="st0" d="M29.8,86.6c1.1,1.8,3,3,5.1,3c1.7,0,3.2-0.8,4.3-2s1.8-3,1.8-4.8c0-1.9-0.7-3.6-1.8-4.8 c-1.1-1.2-2.6-2-4.3-2s-3.2,0.8-4.3,2c-1.1,1.2-1.8,3-1.8,4.8c0,0.8,0.1,1.6,0.4,2.3c0.1,0.3,0.2,0.5,0.3,0.8 C29.5,86.1,29.7,86.3,29.8,86.6z M30.9,78.2c1-1.2,2.4-1.9,4-1.9c1.5,0,2.9,0.7,4,1.9c1,1.2,1.7,2.8,1.7,4.5 c0,1.8-0.6,3.4-1.7,4.5c-1,1.2-2.4,1.9-4,1.9c-1.9,0-3.6-1.1-4.7-2.8c-0.1-0.2-0.3-0.5-0.4-0.7s-0.2-0.5-0.3-0.7 c-0.2-0.7-0.3-1.4-0.3-2.2C29.2,81,29.9,79.4,30.9,78.2z"></path> <path class="st0" d="M40.1,20.6c0-3.3-2.4-6-5.4-6c0,0-0.8,0-1.4,0.2c2,0.9,3.4,3.1,3.4,5.6c0,2.8-1.8,5.1-4.1,5.8h0.1 c0.6,0.3,1.3,0.4,2,0.4C37.7,26.7,40.1,24,40.1,20.6z"></path> <path class="st0" d="M14,45.5c-0.7,0-1.4,0.2-2,0.4h-0.1c2.3,0.7,4.1,3,4.1,5.8c0,2.5-1.4,4.7-3.4,5.6c0.6,0.2,1.4,0.2,1.4,0.2 c3,0,5.4-2.7,5.4-6S17,45.5,14,45.5z"></path> <path class="st0" d="M36.8,83c0,2.5-1.4,4.7-3.4,5.6c0.6,0.2,1.4,0.2,1.4,0.2c3,0,5.4-2.7,5.4-6s-2.4-6-5.4-6 c-0.7,0-1.4,0.2-2,0.4h-0.1C35,77.9,36.8,80.2,36.8,83z"></path> <path class="st0" d="M105.3,37.6c-3.1-3.4-7.4-5.5-12.1-5.8c-1.1-0.2-2.3-0.3-3.5-0.3c-7.1,0-13.3,3.7-16.8,9.2H45.2L39,29.4 c2.7-1.8,4.5-5,4.5-8.6c0-2.8-1.1-5.4-2.8-7.2c-0.3-0.3-0.6-0.6-0.9-0.8l-0.1-0.1l0,0C37.8,11,35.3,10,32.6,10 c-5.8,0-10.5,4.7-10.6,10.5h3c0-1,0.2-2,0.5-3c0.1-0.4,0.3-0.7,0.4-1.1c0.2-0.4,0.4-0.7,0.6-1.1c1-1.6,2.5-2.9,4.2-3.6 c0.7-0.3,1.4-0.5,2.2-0.6C33.2,11,33.6,11,34,11c0.3,0,0.6,0,0.9,0c0.1,0,0.2,0,0.3,0c0.2,0,0.3,0.1,0.5,0.1 c0.1,0,0.3,0.1,0.4,0.1c0.1,0,0.3,0.1,0.4,0.1c0.1,0,0.3,0.1,0.4,0.1c0.1,0,0.2,0.1,0.3,0.1c0.2,0.1,0.3,0.1,0.5,0.2 c0,0,0.1,0,0.1,0.1c0.6,0.3,1.2,0.7,1.8,1.2l0,0c0.3,0.2,0.6,0.5,0.8,0.8c1.6,1.8,2.7,4.2,2.7,6.9c0,3.6-1.8,6.7-4.4,8.4 c-0.1,0.1-0.1,0.2-0.1,0.3l6.3,11.7c0,0.1,0.1,0.1,0.2,0.1h27.6c-0.4,0.6-0.7,1.2-1,1.9s-0.6,1.4-0.8,2.1c0,0.1,0,0.2-0.1,0.3 H42.4l-8-14.9c0,0,0-0.1-0.1-0.1l-0.1-0.1h-0.1H34c-0.6,0-1.2-0.1-1.8-0.2c-0.3-0.1-0.6-0.1-0.9-0.2c-1.4-0.5-2.7-1.3-3.7-2.4 c-0.4-0.4-0.8-0.9-1.1-1.4c-1-1.5-1.5-3.3-1.6-5.3h-2.8c0,1,0.2,2,0.5,2.9c0.1,0.4,0.3,0.7,0.4,1.1c0.2,0.4,0.4,0.7,0.6,1.1 c1.7,2.8,4.7,4.7,8.1,5l8.2,14.8c0,0.1,0.1,0.1,0.2,0.1h2.1h28.4c-0.3,1-0.5,2.1-0.6,3.2H22.5c-0.4-2-1.3-3.7-2.5-5.1 c-1.7-1.9-4.1-3.2-6.7-3.2c-0.7,0-1.3,0.1-2,0.2l0,0l0,0c-3.5,0.2-6.6,2.2-8.3,5c-0.2,0.4-0.4,0.7-0.6,1.1 c-0.2,0.4-0.3,0.7-0.4,1.1c-0.3,0.9-0.5,1.9-0.5,2.9h2.8c0.1-2.7,1.1-5.2,2.6-6.9c1.6-1.9,3.9-3,6.4-3s4.8,1.1,6.4,3 c1.2,1.4,2.1,3.1,2.4,5.1c0,0.1,0.1,0.2,0.2,0.2h47.6c-0.1,0.6-0.1,1.2-0.1,1.8c0,0.8,0.1,1.6,0.2,2.4H22.3 c-0.1,0-0.2,0.1-0.2,0.2c-0.4,1.9-1.2,3.6-2.4,4.9c-1.6,1.9-3.9,3-6.4,3s-4.8-1.1-6.4-3c-1.6-1.8-2.6-4.3-2.6-7.1H3.8l0,0H1.4 c0,5.8,4.8,10.5,10.6,10.5c0.2,0,0.4,0,0.6,0c0.2,0,0.5,0,0.7,0l0,0c2.6,0,5-1.2,6.7-3.2c1.2-1.3,2-3,2.5-4.9h47.6 c0.2,1.1,0.4,2.2,0.7,3.2H42.2h-2.1c-0.1,0-0.2,0-0.2,0.1l-8.2,14.8c-3.4,0.3-6.4,2.2-8.1,5c-0.2,0.4-0.4,0.7-0.6,1.1 s-0.3,0.7-0.4,1.1c-0.3,0.9-0.5,1.9-0.5,2.9H25c0-2.6,1-5,2.6-6.7c1.6-1.8,3.9-2.9,6.4-2.9h0.2c0.1,0,0.1,0,0.2-0.1 c0,0,0,0,0.1-0.1l8-14.9L71,58c0.5,1.5,1.2,2.9,2,4.2H45c-0.1,0-0.2,0-0.2,0.1L38.5,74c-0.1,0.1,0,0.2,0.1,0.3 c2.7,1.7,4.4,4.8,4.4,8.4c0,2.7-1,5.1-2.7,6.9c-0.3,0.3-0.5,0.5-0.8,0.8c-0.5,0.4-1.1,0.8-1.7,1.1c-0.1,0-0.1,0.1-0.2,0.1 c-0.1,0.1-0.3,0.1-0.4,0.2c-0.1,0-0.2,0.1-0.3,0.1S36.6,92,36.5,92c-0.1,0-0.3,0.1-0.4,0.1c-0.1,0-0.2,0.1-0.4,0.1 s-0.4,0.1-0.5,0.1s-0.2,0-0.3,0c-0.3,0-0.6,0-0.9,0c-0.4,0-0.8,0-1.2-0.1c-0.8-0.1-1.5-0.3-2.2-0.6c-1.7-0.7-3.2-2-4.2-3.6 c-0.2-0.3-0.4-0.7-0.6-1.1c-0.1-0.2-0.1-0.4-0.2-0.5c-0.1-0.2-0.2-0.4-0.2-0.5c-0.2-0.5-0.3-1-0.4-1.5c0-0.4,0-0.9,0-1.4h-2.8 c0,5.8,4.8,10.5,10.6,10.5c2.7,0,5.2-1,7.1-2.7l0,0l0.1-0.1l0,0c0.3-0.2,0.6-0.5,0.8-0.8c1.7-1.8,2.8-4.4,2.8-7.2 c0-3.6-1.8-6.8-4.5-8.6l6.1-11.4h28.1c3.5,5.1,9.3,8.5,15.9,8.7c1,0.2,2,0.3,3,0.3c2,0,4-0.4,5.9-1l0,0 c7.2-3.1,12.4-10.2,12.6-18.5v-0.1c0-0.1,0-0.2,0-0.3C110.7,46.2,108.6,41.2,105.3,37.6z M110.2,52L110.2,52 c-0.2,8.2-5.2,15.2-12.3,18.2c-1.8,0.6-3.7,1-5.7,1c-1,0-2-0.1-3-0.3l0,0c-0.5-0.1-0.9-0.2-1.4-0.3c0,0,0,0-0.1,0 c-1.3-0.4-2.5-0.9-3.7-1.5c-0.1,0-0.1-0.1-0.2-0.1c-0.3-0.2-0.5-0.3-0.8-0.5c-0.2-0.1-0.4-0.3-0.6-0.4s-0.4-0.3-0.6-0.5 c-0.3-0.2-0.5-0.4-0.8-0.6c-0.2-0.1-0.3-0.3-0.4-0.4c-0.4-0.4-0.8-0.7-1.2-1.1c-0.9-1-1.7-2-2.4-3.2l0,0c-0.8-1.4-1.5-2.9-2-4.6 l0,0c-0.4-1.2-0.6-2.4-0.7-3.7l0,0c-0.1-0.8-0.1-1.5-0.1-2.3s0.1-1.5,0.1-2.3l0,0c0.1-1.3,0.4-2.5,0.7-3.7l0,0 c0.1-0.2,0.1-0.4,0.2-0.6c0.2-0.7,0.5-1.4,0.9-2.1c0.3-0.7,0.7-1.4,1.1-2.1c3.2-5.2,8.7-8.6,15-8.6c0.1,0,0.1,0,0.2,0 c0.2,0,0.5,0,0.7,0l0,0c4.6,0.3,8.7,2.3,11.8,5.6c3.2,3.5,5.3,8.3,5.3,13.7C110.2,51.7,110.2,51.8,110.2,52z"></path> <path class="st0" d="M92.6,33.1c-6,0-11.2,3.3-14.3,8.2c-0.4,0.6-0.8,1.3-1.1,2c-0.3,0.7-0.6,1.3-0.8,2c-0.7,2-1,4.1-1,6.3 c0,5.1,1.9,9.8,5.1,13.1c3.1,3.4,7.4,5.4,12.2,5.4c1.9,0,3.7-0.3,5.5-1c6.8-2.9,11.5-9.5,11.8-17.3v-0.1c0-0.1,0-0.2,0-0.3 c0-5.1-1.9-9.7-5-13.1C101.6,35.2,97.3,33.1,92.6,33.1z M108,51.9L108,51.9c-0.2,6.7-4.3,12.4-10.1,14.9c-1.5,0.5-3,0.8-4.7,0.8 c-4.1,0-7.7-1.8-10.4-4.6c-2.7-2.9-4.3-6.9-4.3-11.3c0-1.9,0.3-3.7,0.9-5.4c0.2-0.6,0.4-1.2,0.7-1.8c0.3-0.6,0.6-1.2,0.9-1.7 c2.7-4.3,7.2-7,12.2-7c4.1,0,7.7,1.8,10.4,4.6c2.7,2.9,4.3,6.8,4.3,11.2C108,51.7,108,51.8,108,51.9z"></path> </g> <g id="ROUE_x5F_CRANTEE_00000125592101435891249330000013893871340522399403_"> <path class="st0" d="M68,37.4c2.3-5.2,5.9-9.6,10.2-12.4c2.1-0.6,4.4-1,6.7-1c0.5,0,1,0,1.4,0c9.9,0.6,18.1,7.6,21.6,17.2 c1.8,3,2.8,6.6,2.8,10.4c0,0.1,0,0.2,0,0.3V52c-0.1,3.2-0.9,6.3-2.3,9c-3.5,11.3-13.1,19.3-24.1,19.3C77.6,78.2,71.9,73,68.5,66 c0-0.1-0.1-0.1-0.2-0.1h-17L51.1,66v0.2c1,2.8,2.2,5.4,3.6,7.8L49,82.6c0.2,0,0.5,0,0.8,0c1,0.1,2.2,0.1,3.5,0.2 c1.6,0.1,3.1,0.2,4.1,0.2l4.5-8l0,0v-0.1v-0.1c-0.1-0.1-0.1-0.2-0.2-0.3c-0.1-0.1-0.1-0.2-0.2-0.3l0,0c-0.3-0.5-0.6-0.9-0.9-1.4 c-0.3-0.6-0.7-1.3-1-1.9c0-0.1-0.1-0.1-0.1-0.2c-0.7-1.4-1.3-2.9-1.8-4.4h3.8v0.1C64,72.6,68,77.9,72.9,81.6s10.9,5.9,17.2,5.9 c8.7,0,16.6-4.1,22.3-10.6c5.7-6.5,9.2-15.6,9.2-25.5s-3.5-19-9.2-25.5S98.9,15.3,90.1,15.3c-6.5,0-12.5,2.3-17.5,6.1 c-5,3.9-8.9,9.3-11.4,15.7v0.1H57l-6.6-5.8l-7.1,1l-0.9,0.1v0.1l0,0l0,0l5,5l0.2,0.1h20.1C67.8,37.6,67.9,37.5,68,37.4z M63.3,37.1c2.3-5.8,6-10.8,10.5-14.3c4.7-3.6,10.3-5.7,16.4-5.7c8.1,0,15.5,3.8,20.9,10s8.7,14.8,8.7,24.3s-3.3,18.1-8.7,24.3 c-5.4,6.2-12.7,10-20.9,10c-5.9,0-11.5-2-16.1-5.5C69.6,76.8,66,72,63.6,66.4h4.6c3.4,7.1,9.2,12.4,16,14.6l0,0l0,0 c1.1,0.3,2.2,0.6,3.3,0.8h0.1c0.5,0.1,1.1,0.1,1.6,0.2c0.4,0,0.7,0,1.1,0c0.2,0,0.4,0,0.7,0l0,0c0.2,0,0.4,0,0.6,0 c14.1-0.4,25.2-13.9,25.2-30.3c0-0.3,0-0.7,0-1l0,0c0-0.1,0-0.2,0-0.3c0-0.4,0-0.8-0.1-1.2c0-0.1,0-0.2,0-0.3 c0-0.4-0.1-0.8-0.1-1.2v-0.1c-1.8-15.1-12.8-26.7-26-26.7c-0.2,0-0.5,0-0.7,0l0,0l0,0c-0.6,0-1.2,0.1-1.8,0.1c-0.1,0-0.1,0-0.2,0 c-3,0.3-5.6,1.2-8.1,2.6c-0.1,0-0.2,0.1-0.2,0.1c-0.3,0.2-0.7,0.4-1,0.6c-0.2,0.1-0.4,0.2-0.5,0.3l0,0l0,0 c-4.4,2.9-8,7.3-10.4,12.5C67.7,37.1,63.3,37.1,63.3,37.1z"></path> <path class="st0" d="M79.8,89.8L79.8,89.8L79.8,89.8C79.8,89.7,79.8,89.7,79.8,89.8L79.8,89.8L79.8,89.8 C79.8,89.7,79.8,89.7,79.8,89.8c-2.9-1.1-5.6-2.5-8.1-4.3h-0.1c0,0-0.1,0-0.1,0.1l0,0l0,0l0,0l0,0l0,0l0,0l0,0l-7.4,6l-6.5-7.9 c-1.9-0.1-6.6-0.4-8.6-0.5l7.3,8.4l0.2,0.1L64,92c0.1,0,0.1,0,0.1,0l0,0l4.7-3.9c0.8,0.5,1.7,0.9,2.6,1.3L72,99.8l7.6,0.6 L79.8,89.8z"></path> <path class="st0" d="M54.1,21.2l9.3,3.6l0,0l0,0l0,0l0,0l0,0l0,0l0,0h0.1c0,0,0.1,0,0.1-0.1c0.5-0.7,1.1-1.3,1.6-2 c1.7-1.9,3.5-3.6,5.5-5.1l0,0l0,0l0,0l0,0v-0.1l0,0L68,7.9c-2.8,0.3-7.1,0.8-7.6,0.8h-0.1l0,0l-0.9,0.1l0,0l2.7,10.6 c-1.1,1-2.2,2.1-3.2,3.2l-5-1.9c0,0,0,0-0.1,0l0,0l-6.9,0.7c-0.1,0-0.2,0.1-0.2,0.1l-4.4,10.4l7.9-1.1L54.1,21.2z"></path> <path class="st0" d="M131,39.5c0-0.1-0.1-0.2-0.2-0.2l-7.8-0.6c-0.9-3-2.1-5.9-3.5-8.6l4.7-7.5v-0.3l-6.4-8.3l0,0l0,0l0,0l0,0 l0,0l0,0l0,0c0,0,0,0-0.1,0l0,0l0,0l0,0l0,0l-7.7,0.4l-0.1,0.1l-2.4,2c-1.1-0.7-2.2-1.4-3.4-2l-0.3-10.8c0-0.1-0.1-0.2-0.2-0.2 l-9.5-2.4l0,0l0,0l-7.6,1c-0.1,0-0.2,0.1-0.2,0.2l-2.8,8.9c-0.2,0-0.4,0-0.7,0c-0.2,0-0.5,0-0.7,0l-5.3-8.3l0,0c0,0,0,0-0.1-0.1 c0,0,0,0-0.1,0c0,0,0,0-0.1,0l-8,1.2h-0.1L60,8.3l5.3-0.6l2.3-0.2l1-0.1l7.7-4.1l5.6,8.9l0,0l0,0l0,0l0,0 c0.1,0.1,0.1,0.1,0.2,0.1c2.1-0.5,4.2-0.8,6.4-0.9c0.3,0,0.6,0,0.8,0c0.8,0,1.6,0,2.4,0.1c0.1,0,0.2-0.1,0.2-0.2l0,0L94,1.6 l9.1,2.3l0.3,10.7l0,0c0,0.1,0,0.2,0.1,0.2c1.2,0.6,2.5,1.4,3.6,2.2c0.6,0.4,1.2,0.8,1.7,1.2l0,0c0.5,0.4,1.1,0.8,1.6,1.3 c0,0,0.1,0,0.1,0.1c0.1,0.1,0.2,0.1,0.3,0l6.6-5.1l6.2,8L119,30v0.2c1.5,2.7,2.7,5.6,3.6,8.7c0,0.1,0.1,0.2,0.2,0.2l7.8,0.6 l1.1,10.3l-7.2,3.1c-0.1,0-0.1,0.1-0.1,0.2c-0.1,3.3-0.6,6.6-1.4,9.6l0.1,0.2l6.2,5.7l-3.9,9.4l-7.4-3h-0.1h-0.1 c-0.1,0-0.1,0-0.1,0.1l0,0c-0.3,0.5-0.7,1-1,1.5c-0.3,0.4-0.6,0.8-0.9,1.2l0,0c-1.2,1.6-2.6,3.1-4,4.5l-0.1,0.2l2.7,10.1l-8,4.8 l-4.5-8.5l0,0c0-0.1-0.1-0.1-0.1-0.1s0,0-0.1,0h-0.1l0,0l0,0h-0.1c-0.6,0.3-1.3,0.5-1.9,0.7s-1.2,0.4-1.8,0.5 c-0.1,0-0.1,0-0.2,0.1c-1.4,0.3-2.8,0.6-4.2,0.8l0,0c-0.2,0-0.3,0.1-0.5,0.1c-0.1,0-0.2,0.1-0.2,0.2l0,0l-3.3,10.5l-9.6-0.9 l-7.7-0.7v0.2c0,0.1,0.1,0.2,0.2,0.2l7.1,0.6l10.1,1c0.1,0,0.2-0.1,0.2-0.2L93,91.6c0.1,0,0.2,0,0.2,0l5.1,6.7l0.2,0.1l7.8-0.2 l0,0h0.1l8.4-5c0.1-0.1,0.1-0.2,0.1-0.3l-2.7-10.2c1.4-1.3,2.7-2.8,3.9-4.3L118,79h0.1l7.5-0.2l0,0c0,0,0,0,0.1,0 c0,0,0.1,0,0.1-0.1l0,0l4.1-9.7c0-0.1,0-0.2-0.1-0.3l-6.2-5.8c0.8-3,1.2-6.2,1.4-9.4l7.2-3.1c0.1,0,0.2-0.1,0.1-0.2L131,39.5z"></path> </g> </g> </g> <g id="Logo_x5F_secondaire_x5F_horizontal_x5F_CMJN"> </g> <g id="Logo_x5F_secondaire_x5F_vertical_x5F_CMJN"> </g> <g id="Logo_x5F_primaire_x5F_horizontal_x5F_CMJN"> </g> <g id="Logo_x5F_primaire_x5F_vertical_x5F_CMJN"> </g> <g id="informations"> </g> </svg> 