<?xml version="1.0" encoding="UTF-8"?> <svg xmlns="http://www.w3.org/2000/svg" xmlns:xlink="http://www.w3.org/1999/xlink" version="1.1" id="Prestation_sur-mesure" x="0px" y="0px" viewBox="0 0 500 500" style="enable-background:new 0 0 500 500;" xml:space="preserve"> <style type="text/css"> .st0{fill:#9FE7F5;} .st1{fill:#FFFFFF;} </style> <g id="aplati"> <g> <polygon class="st0" points="218.3,212.8 200.2,230.9 190.8,221.4 187.3,225 200.2,237.9 221.8,216.4 218.3,212.8 "></polygon> <polygon class="st0" points="218.3,250.4 200.2,268.5 190.8,259 187.3,262.6 200.2,275.5 221.8,254 218.3,250.4 "></polygon> <polygon class="st0" points="218.3,288 200.2,306.1 190.8,296.6 187.3,300.2 200.2,313.1 221.8,291.6 218.3,288 "></polygon> <polygon class="st0" points="218.3,325.6 200.2,343.7 190.8,334.2 187.3,337.8 200.2,350.7 221.8,329.2 218.3,325.6 "></polygon> </g> <g> <rect x="240.4" y="223.5" class="st1" width="70.6" height="2"></rect> <rect x="240.4" y="261.1" class="st1" width="70.6" height="2"></rect> <rect x="240.4" y="298.7" class="st1" width="70.6" height="2"></rect> <rect x="240.4" y="336.3" class="st1" width="70.6" height="2"></rect> <path class="st1" d="M320.8,162.5h-24v5h24c2.4,0,4.5,1,6.1,2.5c1.6,1.6,2.5,3.7,2.5,6.1v186.5c0,2.4-1,4.5-2.5,6.1 c-1.6,1.6-3.7,2.5-6.1,2.5H179.2c-2.4,0-4.5-1-6.1-2.5c-1.6-1.6-2.5-3.7-2.5-6.1V176.1c0-2.4,1-4.5,2.5-6.1 c1.6-1.6,3.7-2.5,6.1-2.5h24v-5h-24c-7.5,0-13.6,6.1-13.6,13.6v186.5c0,7.5,6.1,13.6,13.6,13.6h141.5c7.5,0,13.6-6.1,13.6-13.6 V176.1C334.3,168.6,328.2,162.5,320.8,162.5L320.8,162.5z"></path> </g> <path class="st1" d="M275.7,148.8c-0.4-13.9-11.7-25-25.7-25c-13.9,0-25.3,11.1-25.7,25h-21v33.9h93.4v-33.9H275.7z M250,154.1 c-3.4,0-6.2-2.8-6.2-6.2s2.8-6.2,6.2-6.2s6.2,2.8,6.2,6.2S253.4,154.1,250,154.1z"></path> </g> </svg> 