<?xml version="1.0" encoding="UTF-8"?> <svg xmlns="http://www.w3.org/2000/svg" xmlns:xlink="http://www.w3.org/1999/xlink" version="1.1" id="Polyvalence_des_services" x="0px" y="0px" viewBox="0 0 500 500" style="enable-background:new 0 0 500 500;" xml:space="preserve"> <style type="text/css"> .st0{fill:#9FE7F5;} .st1{fill:#FFFFFF;} </style> <g id="aplati"> <circle class="st0" cx="237.4" cy="276.1" r="45.7"></circle> <path class="st1" d="M344.6,115.7c-18,0-32.6,14.6-32.6,32.6s14.6,32.6,32.6,32.6s32.6-14.6,32.6-32.6S362.6,115.7,344.6,115.7z M364.2,167.8c-5,5-11.9,8.1-19.5,8.1s-14.5-3.1-19.5-8.1s-8.1-11.9-8.1-19.5c0-7.6,3.1-14.5,8.1-19.5s11.9-8.1,19.5-8.1 s14.5,3.1,19.5,8.1s8.1,11.9,8.1,19.5C372.2,155.9,369.2,162.8,364.2,167.8z"></path> <circle class="st1" cx="113.8" cy="347.8" r="22.3"></circle> <path class="st0" d="M269.5,350.3c-9.4,0-17,7.6-17,17c0,9.4,7.6,17,17,17c9.4,0,17-7.6,17-17C286.5,357.9,278.9,350.3,269.5,350.3 z M278,375.8c-2.2,2.2-5.2,3.5-8.5,3.5s-6.3-1.3-8.5-3.5c-2.2-2.2-3.5-5.2-3.5-8.5s1.3-6.3,3.5-8.5c2.2-2.2,5.2-3.5,8.5-3.5 s6.3,1.3,8.5,3.5c2.2,2.2,3.5,5.2,3.5,8.5S280.2,373.6,278,375.8z"></path> <circle class="st1" cx="394" cy="369.1" r="14.5"></circle> <circle class="st1" cx="237.4" cy="276.1" r="30.1"></circle> <path class="st1" d="M279.6,299.4c3.8-6.9,6-14.8,6-23.2c0-13.9-5.9-26.4-15.4-35.2l55.4-66.1c-1.4-1-2.6-2.1-3.8-3.2l-55.4,66.1 c-8.1-6.1-18.1-9.7-29-9.7c-11.4,0-21.9,4-30.2,10.6l-24.4-29c3.2-2.8,5.3-7,5.3-11.6c0-8.6-6.9-15.5-15.5-15.5 c-8.6,0-15.5,6.9-15.5,15.5c0,8.6,6.9,15.5,15.5,15.5c3.2,0,6.2-1,8.6-2.6l24.4,29.1c-10.1,8.8-16.5,21.8-16.5,36.3 c0,7.9,1.9,15.3,5.3,21.9l-62.9,36.3l2.5,4.3l62.9-36.3c8.6,13.2,23.5,22,40.4,22c4.9,0,9.6-0.7,14.1-2.1l10.8,29.7 c1.5-0.7,3.1-1.2,4.8-1.4l-10.9-30c9.4-4,17.2-10.8,22.4-19.4l103.1,61l1-1.7L279.6,299.4L279.6,299.4z M172.6,211.4 c-3.7,0-7.1-1.5-9.5-3.9c-2.4-2.4-3.9-5.8-3.9-9.5s1.5-7.1,3.9-9.5c2.4-2.4,5.8-3.9,9.5-3.9s7.1,1.5,9.5,3.9 c2.4,2.4,3.9,5.8,3.9,9.5s-1.5,7.1-3.9,9.5C179.7,209.9,176.4,211.4,172.6,211.4z M267.9,306.7c-7.8,7.8-18.6,12.6-30.5,12.6 c-11.9,0-22.7-4.8-30.5-12.6s-12.6-18.6-12.6-30.5c0-11.9,4.8-22.7,12.6-30.5c7.8-7.8,18.6-12.6,30.5-12.6 c11.9,0,22.7,4.8,30.5,12.6c7.8,7.8,12.6,18.6,12.6,30.5C280.6,288,275.8,298.8,267.9,306.7z"></path> </g> </svg> 