<?xml version="1.0" encoding="UTF-8"?> <svg xmlns="http://www.w3.org/2000/svg" xmlns:xlink="http://www.w3.org/1999/xlink" version="1.1" id="Calque_1" x="0px" y="0px" viewBox="0 0 1245 275.4" style="enable-background:new 0 0 1245 275.4;" xml:space="preserve"> <style type="text/css"> .st0{fill:#333333;} </style> <path class="st0" d="M156.6,223.2h170.9V52.3H156.6V223.2z M262.4,194.6l-12.1-20.5h0.3c8.5,0,16.9-2.3,24.1-6.7l15.9,27.2H262.4z M195.6,145.6h24.5h28.6c5.7,0,10.5-2,14.5-6s6-8.8,6-14.5s-2-10.5-6-14.5s-8.8-6-14.5-6h-28.6v36h-24.5V80.1h53.2 c12.4,0,23,4.4,31.8,13.2c8.8,8.8,13.2,19.4,13.2,31.8s-4.4,23-13.2,31.8c-2.6,2.6-5.3,4.7-8.1,6.5l0,0c-7.1,4.4-15.4,6.6-23.8,6.6 H248l0,0l0,0h-27.9l0,0h-24.5V145.6z M195.6,175h24.5v19.6h-24.5V175z M110.6,160.9l-25.9-20.5V77.3l25.9-0.2V160.9z M0,114.9 l25,19.7l-0.9,63.1H0V114.9z M0,77.2l111,90.7v29.2L0,108.2V77.2z M451.4,77.2h26.2l-38.4,119.7h-25.7L451.4,77.2z M422.7,151.5 l-13.3,39.7l-37-114.1h26.3L422.7,151.5z M529,0h2.7v275.4H529V0z M979.6,99.3c0,7.7,5.4,13.1,13.1,13.1c4.1,0,7.5-1.6,10.3-4.8 l6.1,5.6c-3.9,4.7-9.7,7.3-16.9,7.3c-12.7,0-22.1-8.8-22.1-21.1s9.4-21.1,22.2-21.1c7.1,0,12.9,2.6,16.8,7.2l-6.1,5.6 c-2.7-3.2-6.2-4.8-10.3-4.8C985,86.3,979.6,91.6,979.6,99.3z M1056.9,101.8V78.9h9.4v22.5c0,7.8,3.4,11,9.1,11c5.8,0,9.1-3.2,9.1-11 V78.9h9.3v22.9c0,12-6.9,18.7-18.5,18.7S1056.9,113.8,1056.9,101.8z M1026.9,86.6h-13.1v-7.7h35.6v7.7h-13.1v33.1h-9.4V86.6z M639.3,78.9h9.3v40.8h-7.8L620.5,95v24.8h-9.3V78.9h7.8l20.3,24.8V78.9z M598,119.8h-9.4V78.9h9.4V119.8z M1124.9,108.4l7.9,11.4 h10.1l-9.2-13.1c5.3-2.3,8.4-6.8,8.4-12.9c0-9.2-6.8-14.8-17.7-14.8h-17.7v40.8h9.4v-11.4h8.2H1124.9z M1116.2,100.9V86.6h7.7 c5.8,0,8.7,2.6,8.7,7.1c0,4.4-2.9,7.1-8.7,7.1h-7.7V100.9z M886.2,108.4h8.2h0.5l7.9,11.4h10.1l-9.2-13.1c5.3-2.3,8.4-6.8,8.4-12.9 c0-9.2-6.8-14.8-17.7-14.8h-17.7v40.8h9.4L886.2,108.4L886.2,108.4z M886.2,86.6h7.7c5.8,0,8.7,2.6,8.7,7.1c0,4.4-2.9,7.1-8.7,7.1 h-7.7V86.6z M671.2,119.8h-9.4V78.9h30.9v7.6h-21.4v10.8h18.9v7.6h-18.9L671.2,119.8L671.2,119.8z M1184.7,119.8h-31.6V78.9h30.9 v7.6h-21.5v8.9h19v7.3h-19v9.4h22.2V119.8z M941.3,120.4c-11.6,0-18.5-6.6-18.5-18.7V78.9h9.4v22.5c0,7.8,3.4,11,9.1,11 c5.8,0,9.1-3.2,9.1-11V78.9h9.3v22.9C959.8,113.8,952.9,120.4,941.3,120.4z M832.6,78.9h35.6v7.7h-13.1v33.1h-9.4V86.6h-13.1V78.9z M761.8,78.9l-18.2,40.8h9.7l3.6-8.8h19l3.6,8.8h9.9l-18.3-40.8C771.1,78.9,761.8,78.9,761.8,78.9z M759.9,103.8l6.5-15.6l6.5,15.6 H759.9z M827.8,107.8c0,6.8-5.7,12.7-17.3,12.7c-6.5,0-13-1.9-16.6-4.7l3.2-7.1c3.4,2.5,8.6,4.3,13.5,4.3c5.6,0,7.9-1.9,7.9-4.4 c0-7.6-23.7-2.4-23.7-17.6c0-6.9,5.6-12.7,17.2-12.7c5.1,0,10.4,1.2,14.2,3.6l-2.9,7.2c-3.8-2.2-7.7-3.2-11.3-3.2 c-5.6,0-7.8,2.1-7.8,4.7C804.1,98,827.8,92.8,827.8,107.8z M738,93.7c0-9.2-6.8-14.8-17.7-14.8h-17.7v40.8h9.4v-11.4h8.2h0.5 l7.9,11.4h10.1l-9.2-13.1C734.9,104.4,738,99.9,738,93.7z M719.7,100.9H712V86.6h7.7c5.8,0,8.7,2.6,8.7,7.1S725.5,100.9,719.7,100.9 z M846.4,182h20.5v7.7H837v-40.8h9.4V182z M1130.2,182.2h22.2v7.6h-31.6V149h30.9v7.6h-21.5v8.9h19v7.3h-19V182.2z M1191.5,148.9 h9.3v40.8h-7.8l-20.4-24.8v24.8h-9.3v-40.8h7.8l20.3,24.8L1191.5,148.9L1191.5,148.9z M1245,148.9v7.7h-13.1v33.1h-9.4v-33.1h-13.1 v-7.7L1245,148.9L1245,148.9z M673.1,148.9h-18.6v40.8h18.6c13.4,0,22.5-8,22.5-20.4C695.6,157,686.4,148.9,673.1,148.9z M672.6,182 H664v-25.3h8.6c8.1,0,13.4,4.8,13.4,12.7C686,177.1,680.7,182,672.6,182z M803.7,182.2H826v7.6h-31.6V149h30.9v7.6h-21.5v8.9h19v7.3 h-19v9.4H803.7z M778.1,148.9h9.4l-17.7,40.8h-9.3l-17.6-40.8h10.2l12.4,29.2L778.1,148.9z M945.4,148.9h-17.7v40.8h9.4v-11.3h8.2 c10.9,0,17.7-5.7,17.7-14.8C963.1,154.6,956.3,148.9,945.4,148.9z M944.9,170.8h-7.7v-14.2h7.7c5.8,0,8.7,2.6,8.7,7.1 C953.6,168.2,950.7,170.8,944.9,170.8z M1107.5,148.9l0.1,40.8h-8.9l-0.1-24.5l-12,20.2h-4.3l-12-19.7v24h-8.9v-40.8h7.8l15.3,25.4 l15.1-25.4H1107.5z M991,148.9h-17.7v40.8h9.4v-11.3h8.2c10.9,0,17.7-5.7,17.7-14.8C1008.7,154.6,1001.9,148.9,991,148.9z M990.5,170.8h-7.7v-14.2h7.7c5.8,0,8.7,2.6,8.7,7.1C999.2,168.2,996.3,170.8,990.5,170.8z M623.8,171l-7.3-2.3 c-0.5,2.4-1.2,4.6-2,6.4l-7.5-6.9c5.5-3,8-6.1,8-10.3c0-5.8-4.7-9.4-11.7-9.4c-7.7,0-12.7,4.1-12.7,10c0,2.9,1.2,5.5,4.2,8.6 c-6.2,3.5-9,7.1-9,12.2c0,6.5,6.6,11.2,15.6,11.2c5.3,0,9.9-1.6,13.7-4.5l4.9,4.5l5-5.8l-4.8-4.4C621.9,177.6,623.1,174.5,623.8,171 z M603.3,154.6c2.6,0,4,1.4,4,3.4c0,1.9-1.3,3.4-5.3,5.5c-2.5-2.4-3.1-3.6-3.1-5.2C598.9,156.1,600.5,154.6,603.3,154.6z M602,183.3 c-4.5,0-7.3-2.1-7.3-5.1c0-2.5,1.3-4.4,5.1-6.5l9.9,9.2C607.4,182.5,604.8,183.3,602,183.3z M715.6,182.2h22.2v7.6h-31.6V149H737 v7.6h-21.5v8.9h19v7.3h-19L715.6,182.2L715.6,182.2z M734,137.2l-10.6,8.4h-7.1l7.9-8.4H734z M1028.3,182.2h22.2v7.6h-31.6V149h30.9 v7.6h-21.5v8.9h19v7.3h-19V182.2z M894.8,148.2c-12.9,0-22.3,9-22.3,21.1s9.4,21.1,22.3,21.1c12.8,0,22.3-8.9,22.3-21.1 C917.1,157.1,907.6,148.2,894.8,148.2z M894.8,182.4c-7.3,0-12.8-5.3-12.8-13.1s5.5-13.1,12.8-13.1s12.8,5.3,12.8,13.1 C907.6,177.1,902.1,182.4,894.8,182.4z"></path> </svg> 