<?xml version="1.0" encoding="UTF-8"?> <svg xmlns="http://www.w3.org/2000/svg" xmlns:xlink="http://www.w3.org/1999/xlink" version="1.1" x="0px" y="0px" viewBox="0 0 320.9 103" style="enable-background:new 0 0 320.9 103;" xml:space="preserve"> <style type="text/css"> .st0{fill:#F27F0C;} .st1{fill:#8C96A5;} .st2{fill:#FFFFFF;} .st3{fill:#808080;} .st4{fill:#8A96A6;} .st5{fill:#EE7601;} .st6{fill:#009EE2;} </style> <g id="Logo_x5F_tertiaire_x5F_CMJN"> </g> <g id="Logo_x5F_secondaire_x5F_horizontal_x5F_CMJN"> <g id="logo_secondaire_horizontal"> <g id="naming_00000103237581193037525440000007535160950853850541_"> <g> <g> <path class="st0" d="M171.4,63.8h0.9v9.6h-0.9V63.8z"></path> <path class="st0" d="M181.2,63.8h0.9l7,8.4v-8.4h0.9v9.6H189l-7-8.4v8.4h-0.9V63.8z"></path> <path class="st0" d="M198.9,63.8l3.3,0c3.5,0,5.4,2.1,5.4,4.8c0,2.7-1.9,4.8-5.4,4.8h-3.3V63.8z M202.2,72.6 c3.1,0,4.6-1.7,4.6-4c0-2.3-1.5-4-4.6-4l-2.4,0v8L202.2,72.6z"></path> <path class="st0" d="M215.9,68.9v-5.1h0.9v5.1c0,2.5,1.1,3.8,3.5,3.8c2.3,0,3.5-1.3,3.5-3.8v-5.1h0.9v5.1 c0,2.9-1.5,4.6-4.3,4.6C217.3,73.5,215.9,71.8,215.9,68.9z"></path> <path class="st0" d="M232.6,72.4l0.5-0.7c1.1,0.7,2.5,1,3.9,1c1.7,0,2.8-0.7,2.8-1.8c0-1-0.7-1.4-2.4-1.8l-1.3-0.3 c-2-0.5-3-1.2-3-2.6c0-1.5,1.5-2.5,3.6-2.5c1.4,0,2.7,0.4,3.7,1l-0.4,0.7c-0.9-0.6-2-0.9-3.2-0.9c-1.7,0-2.8,0.6-2.8,1.7 c0,0.9,0.8,1.4,2.4,1.8l1.4,0.3c2,0.5,3,1.2,3,2.6c0,1.6-1.5,2.6-3.8,2.6C235.3,73.5,233.7,73.1,232.6,72.4z"></path> <path class="st0" d="M251.4,64.6h-3.7l0-0.8h8.2v0.8h-3.6v8.8h-0.9V64.6z"></path> <path class="st0" d="M270.2,73.4l-5.6-4.4v4.4h-0.9v-9.6h4.4c2,0,3.4,0.9,3.4,2.7c0,1.8-1.3,2.7-3.3,2.7h-2l5.4,4.2H270.2z M264.6,68.5h3.6c1.4,0,2.4-0.6,2.4-1.9c0-1.3-1-1.9-2.4-1.9h-3.6V68.5z"></path> <path class="st0" d="M280,63.8h0.9v9.6H280V63.8z"></path> <path class="st0" d="M289.8,63.8h7.4v0.8h-6.6v3.2l4.9,0v0.8h-4.9v4h6.6v0.8h-7.4V63.8z"></path> </g> </g> <g> <path class="st1" d="M162.5,29.9c5,0,9.2,3,9.2,8.3c0,5.4-4,8.5-9.3,8.5H157v8.2h-6.4v-25H162.5z M161.7,41.9 c2,0,3.6-1.1,3.6-3.6c0-2.5-1.7-3.6-3.6-3.6H157v7.2H161.7z"></path> <path class="st1" d="M186.9,49.8h-9.4l-1.7,5h-6.4l8.9-25h7.8l9,25h-6.6L186.9,49.8z M185.4,45.1l-3.1-9.5h-0.1l-3.1,9.5H185.4z "></path> <path class="st1" d="M197.2,29.9h6.4v20.1h11.2v4.9h-17.6V29.9z"></path> <path class="st1" d="M245.1,29.9v25h-6.3V39.3h-0.1l-4.9,15.6h-5.3l-5-15.6h-0.1v15.6h-6.1v-25h8.4l5.4,17.2h0.1l5.3-17.2H245.1 z"></path> <path class="st1" d="M249.1,54.9v-25h17.8v4.9h-11.5v5.1h10v4.8h-10V50h11.8v4.9H249.1z"></path> <path class="st1" d="M280.6,45.4h-4v9.5h-6.4v-25h12.4c4.9,0,8.4,2.7,8.4,7.6c0,3.2-1.8,5.5-4.4,6.5l5.2,10.9h-7L280.6,45.4z M276.6,40.6h5c1.7,0,3-0.9,3-3c0-2.1-1.3-3-3-3h-5V40.6z"></path> <path class="st1" d="M305.5,29.5c8.2,0,12.6,5.5,12.6,12.9c0,7.3-4.3,12.9-12.6,12.9c-8.2,0-12.6-5.5-12.6-12.9 C292.9,35,297.2,29.5,305.5,29.5z M305.5,50.4c4.2,0,6.1-3.5,6.1-8c0-4.5-2-8.1-6.2-8.1c-4.2,0-6.1,3.5-6.1,8 S301.3,50.4,305.5,50.4z"></path> </g> </g> <g id="logo_00000085224599180497284940000017622283247385187991_"> <g id="CIRCUIT_x5F_IMPRIME_00000136402946114935059930000006539026837062429366_"> <path class="st0" d="M40.6,25.3c1.1-1.2,1.8-3,1.8-4.8c0-1.9-0.7-3.6-1.8-4.8c-1.1-1.2-2.6-2-4.3-2c-2.1,0-4,1.2-5.1,3 c-0.1,0.2-0.3,0.5-0.4,0.7c-0.1,0.2-0.2,0.5-0.3,0.8c-0.2,0.7-0.4,1.5-0.4,2.3c0,1.9,0.7,3.6,1.8,4.8c1.1,1.2,2.6,2,4.3,2l0-0.2 v0.2C38,27.3,39.5,26.5,40.6,25.3z M32.3,25c-1-1.2-1.7-2.8-1.7-4.5c0-0.8,0.1-1.5,0.3-2.2c0.1-0.2,0.2-0.5,0.3-0.7 c0.1-0.2,0.2-0.5,0.4-0.7c1-1.7,2.7-2.8,4.7-2.8c1.5,0,2.9,0.7,4,1.9c1,1.2,1.7,2.8,1.7,4.5c0,1.8-0.6,3.4-1.7,4.5 c-1,1.2-2.4,1.9-4,1.9C34.7,26.8,33.3,26.1,32.3,25z"></path> <path class="st0" d="M21.7,51.3c0-1.9-0.7-3.6-1.8-4.8c-1.1-1.2-2.6-2-4.3-2c-1.7,0-3.2,0.8-4.3,2c-1.1,1.2-1.8,3-1.8,4.8 c0,0.8,0.1,1.6,0.4,2.3c0.1,0.3,0.2,0.5,0.3,0.8c0.1,0.3,0.2,0.5,0.4,0.7c1.1,1.8,3,3,5.1,3c1.7,0,3.2-0.8,4.3-2L19.7,56 l0.2,0.2C21,55,21.7,53.2,21.7,51.3z M19.5,55.9L19.5,55.9c-1,1.2-2.4,1.9-4,1.9c-1.9,0-3.6-1.1-4.7-2.8 c-0.1-0.2-0.3-0.5-0.4-0.7c-0.1-0.2-0.2-0.5-0.3-0.7c-0.2-0.7-0.3-1.4-0.3-2.2c0-1.8,0.6-3.4,1.7-4.5c1-1.2,2.4-1.9,4-1.9 c1.5,0,2.9,0.7,4,1.9c1,1.2,1.7,2.8,1.7,4.5C21.2,53.1,20.6,54.7,19.5,55.9z"></path> <path class="st0" d="M31.2,86.4c1.1,1.8,3,3,5.1,3c1.7,0,3.2-0.8,4.3-2c1.1-1.2,1.8-3,1.8-4.8c0-1.9-0.7-3.6-1.8-4.8 c-1.1-1.2-2.6-2-4.3-2c-1.7,0-3.2,0.8-4.3,2c-1.1,1.2-1.8,3-1.8,4.8c0,0.8,0.1,1.6,0.4,2.3c0.1,0.3,0.2,0.5,0.3,0.8 C30.9,85.9,31.1,86.1,31.2,86.4z M32.3,78c1-1.2,2.4-1.9,4-1.9c1.5,0,2.9,0.7,4,1.9c1,1.2,1.7,2.8,1.7,4.5 c0,1.8-0.6,3.4-1.7,4.5c-1,1.2-2.4,1.9-4,1.9c-1.9,0-3.6-1.1-4.7-2.8c-0.1-0.2-0.3-0.5-0.4-0.7c-0.1-0.2-0.2-0.5-0.3-0.7 c-0.2-0.7-0.3-1.4-0.3-2.2C30.6,80.8,31.3,79.2,32.3,78z"></path> <path class="st0" d="M41.5,20.4c0-3.3-2.4-6-5.4-6c0,0-0.8,0-1.4,0.2c2,0.9,3.4,3.1,3.4,5.6c0,2.8-1.8,5.1-4.1,5.8l0.1,0 c0.6,0.3,1.3,0.4,2,0.4C39.1,26.5,41.5,23.8,41.5,20.4z"></path> <path class="st0" d="M15.5,45.3c-0.7,0-1.4,0.2-2,0.4l-0.1,0c2.3,0.7,4.1,3,4.1,5.8c0,2.5-1.4,4.7-3.4,5.6 c0.6,0.2,1.4,0.2,1.4,0.2c3,0,5.4-2.7,5.4-6C20.8,48,18.4,45.3,15.5,45.3z"></path> <path class="st0" d="M38.2,82.8c0,2.5-1.4,4.7-3.4,5.6c0.6,0.2,1.4,0.2,1.4,0.2c3,0,5.4-2.7,5.4-6c0-3.3-2.4-6-5.4-6 c-0.7,0-1.4,0.2-2,0.4l-0.1,0C36.4,77.7,38.2,80,38.2,82.8z"></path> <path class="st0" d="M106.7,37.5c-3.1-3.4-7.4-5.5-12.1-5.8c-1.1-0.2-2.3-0.3-3.5-0.3c-7.1,0-13.3,3.7-16.8,9.2H46.6l-6.1-11.4 c2.7-1.8,4.5-5,4.5-8.6c0-2.8-1.1-5.4-2.8-7.2c-0.3-0.3-0.6-0.6-0.9-0.8l-0.1-0.1l0,0c-1.9-1.7-4.4-2.7-7.1-2.7 c-5.8,0-10.5,4.7-10.6,10.5h2.8c0-1,0.2-2,0.5-3c0.1-0.4,0.3-0.7,0.4-1.1c0.2-0.4,0.4-0.7,0.6-1.1c1-1.6,2.5-2.9,4.2-3.6 c0.7-0.3,1.4-0.5,2.2-0.6c0.4-0.1,0.8-0.1,1.2-0.1c0.3,0,0.6,0,0.9,0c0.1,0,0.2,0,0.3,0c0.2,0,0.3,0.1,0.5,0.1 c0.1,0,0.3,0.1,0.4,0.1c0.1,0,0.3,0.1,0.4,0.1c0.1,0,0.3,0.1,0.4,0.1c0.1,0,0.2,0.1,0.3,0.1c0.2,0.1,0.3,0.1,0.5,0.2 c0,0,0.1,0,0.1,0.1c0.6,0.3,1.2,0.7,1.8,1.2c0,0,0,0,0,0c0.3,0.2,0.6,0.5,0.8,0.8c1.6,1.8,2.7,4.2,2.7,6.9 c0,3.6-1.8,6.7-4.4,8.4c-0.1,0.1-0.1,0.2-0.1,0.3L46.3,41c0,0.1,0.1,0.1,0.2,0.1h27.6c-0.4,0.6-0.7,1.2-1,1.9 c-0.3,0.7-0.6,1.4-0.8,2.1c0,0.1,0,0.2-0.1,0.3l-28.4,0l-8-14.9c0,0,0-0.1-0.1-0.1c0,0-0.1-0.1-0.1-0.1l-0.1,0l-0.1,0 c-0.6,0-1.2-0.1-1.8-0.2c-0.3-0.1-0.6-0.1-0.9-0.2c-1.4-0.5-2.7-1.3-3.7-2.4c-0.4-0.4-0.8-0.9-1.1-1.4c-1-1.5-1.5-3.3-1.6-5.3 h-2.8c0,1,0.2,2,0.5,2.9c0.1,0.4,0.3,0.7,0.4,1.1c0.2,0.4,0.4,0.7,0.6,1.1c1.7,2.8,4.7,4.7,8.1,5l8.2,14.8 c0,0.1,0.1,0.1,0.2,0.1l2.1,0l28.4,0c-0.3,1-0.5,2.1-0.6,3.2H24c-0.4-2-1.3-3.7-2.5-5.1c-1.7-1.9-4.1-3.2-6.7-3.2 c-0.7,0-1.3,0.1-2,0.2l0,0v0c-3.5,0.2-6.6,2.2-8.3,5c-0.2,0.4-0.4,0.7-0.6,1.1c-0.2,0.4-0.3,0.7-0.4,1.1 c-0.3,0.9-0.5,1.9-0.5,2.9h2.8c0.1-2.7,1.1-5.2,2.6-6.9c1.6-1.9,3.9-3,6.4-3c2.5,0,4.8,1.1,6.4,3c1.2,1.4,2.1,3.1,2.4,5.1 c0,0.1,0.1,0.2,0.2,0.2h47.6c-0.1,0.6-0.1,1.2-0.1,1.8c0,0.8,0.1,1.6,0.2,2.4H23.7c-0.1,0-0.2,0.1-0.2,0.2 c-0.4,1.9-1.2,3.6-2.4,4.9c-1.6,1.9-3.9,3-6.4,3c-2.5,0-4.8-1.1-6.4-3c-1.6-1.8-2.6-4.3-2.6-7.1H5.2v0H2.8 c0,5.8,4.8,10.5,10.6,10.5c0.2,0,0.4,0,0.6,0c0.2,0,0.5,0,0.7,0c0,0,0,0,0,0c2.6,0,5-1.2,6.7-3.2c1.2-1.3,2-3,2.5-4.9h47.6 c0.2,1.1,0.4,2.2,0.7,3.2l-28.6,0l-2.1,0c-0.1,0-0.2,0-0.2,0.1l-8.2,14.8c-3.4,0.3-6.4,2.2-8.1,5c-0.2,0.4-0.4,0.7-0.6,1.1 c-0.2,0.4-0.3,0.7-0.4,1.1c-0.3,0.9-0.5,1.9-0.5,2.9h2.8c0-2.6,1-5,2.6-6.7c1.6-1.8,3.9-2.9,6.4-2.9l0.2,0c0.1,0,0.1,0,0.2-0.1 c0,0,0,0,0.1-0.1l8-14.9l28.6,0c0.5,1.5,1.2,2.9,2,4.2H46.5c-0.1,0-0.2,0-0.2,0.1L40,73.8c-0.1,0.1,0,0.2,0.1,0.3 c2.7,1.7,4.4,4.8,4.4,8.4c0,2.7-1,5.1-2.7,6.9c-0.3,0.3-0.5,0.5-0.8,0.8c-0.5,0.4-1.1,0.8-1.7,1.1c-0.1,0-0.1,0.1-0.2,0.1 c-0.1,0.1-0.3,0.1-0.4,0.2c-0.1,0-0.2,0.1-0.3,0.1c-0.1,0-0.3,0.1-0.4,0.1c-0.1,0-0.3,0.1-0.4,0.1c-0.1,0-0.2,0.1-0.4,0.1 c-0.2,0-0.4,0.1-0.5,0.1c-0.1,0-0.2,0-0.3,0c-0.3,0-0.6,0-0.9,0c-0.4,0-0.8,0-1.2-0.1c-0.8-0.1-1.5-0.3-2.2-0.6 c-1.7-0.7-3.2-2-4.2-3.6c-0.2-0.3-0.4-0.7-0.6-1.1c-0.1-0.2-0.1-0.4-0.2-0.5C27,86.1,27,86,26.9,85.8c-0.2-0.5-0.3-1-0.4-1.5 c-0.1-0.5-0.1-1-0.2-1.5h-2.8c0,5.8,4.8,10.5,10.6,10.5c2.7,0,5.2-1,7.1-2.7l0,0l0.1-0.1c0,0,0,0,0,0c0.3-0.2,0.6-0.5,0.8-0.8 c1.7-1.8,2.8-4.4,2.8-7.2c0-3.6-1.8-6.8-4.5-8.6l6.1-11.4h28.1c3.5,5.1,9.3,8.5,15.9,8.7c1,0.2,2,0.3,3,0.3c2,0,4-0.4,5.9-1l0,0 c7.2-3.1,12.4-10.2,12.6-18.5l0-0.1c0-0.1,0-0.2,0-0.3C112.1,46,110,41,106.7,37.5z M111.7,51.8l0,0.1 c-0.2,8.1-5.2,15.1-12.3,18.1c-1.8,0.6-3.7,1-5.7,1c-1,0-2-0.1-3-0.3v0c-0.5-0.1-0.9-0.2-1.4-0.3c0,0,0,0-0.1,0 c-1.3-0.4-2.5-0.9-3.7-1.5c-0.1,0-0.1-0.1-0.2-0.1c-0.3-0.2-0.5-0.3-0.8-0.5c-0.2-0.1-0.4-0.3-0.6-0.4c-0.2-0.1-0.4-0.3-0.6-0.5 c-0.3-0.2-0.5-0.4-0.8-0.6c-0.2-0.1-0.3-0.3-0.4-0.4c-0.4-0.4-0.8-0.7-1.2-1.1c-0.9-1-1.7-2-2.4-3.2l0,0c-0.8-1.4-1.5-2.9-2-4.6 l0,0c-0.4-1.2-0.6-2.4-0.7-3.7c0,0,0,0,0,0c-0.1-0.8-0.1-1.5-0.1-2.3c0-0.8,0.1-1.5,0.1-2.3c0,0,0,0,0,0 c0.1-1.3,0.4-2.5,0.7-3.7v0c0.1-0.2,0.1-0.4,0.2-0.6c0.2-0.7,0.5-1.4,0.9-2.1c0.3-0.7,0.7-1.4,1.1-2.1c3.2-5.2,8.7-8.6,15-8.6 c0.1,0,0.1,0,0.2,0c0.2,0,0.5,0,0.7,0v0c4.6,0.3,8.7,2.3,11.8,5.6c3.2,3.5,5.3,8.3,5.3,13.7C111.7,51.5,111.7,51.7,111.7,51.8z"></path> <path class="st0" d="M94,33c-6,0-11.2,3.3-14.3,8.2c-0.4,0.6-0.8,1.3-1.1,2c-0.3,0.7-0.6,1.3-0.8,2c-0.7,2-1,4.1-1,6.3 c0,5.1,1.9,9.8,5.1,13.1c3.1,3.4,7.4,5.4,12.2,5.4c1.9,0,3.7-0.3,5.5-1c6.8-2.9,11.5-9.5,11.8-17.3l0-0.1c0-0.1,0-0.2,0-0.3 c0-5.1-1.9-9.7-5-13.1C103,35,98.7,33,94,33z M109.5,51.7L109.5,51.7c-0.2,6.7-4.3,12.4-10.1,14.9c-1.5,0.5-3,0.8-4.7,0.8 c-4.1,0-7.7-1.8-10.4-4.6c-2.7-2.9-4.3-6.9-4.3-11.3c0-1.9,0.3-3.7,0.9-5.4c0.2-0.6,0.4-1.2,0.7-1.8c0.3-0.6,0.6-1.2,0.9-1.7 c2.7-4.3,7.2-7,12.2-7c4.1,0,7.7,1.8,10.4,4.6c2.7,2.9,4.3,6.8,4.3,11.2C109.5,51.5,109.5,51.6,109.5,51.7z"></path> </g> <g id="ROUE_x5F_CRANTEE_00000043447086924186361410000008099561090125767840_"> <path class="st1" d="M69.4,37.2c2.3-5.2,5.9-9.6,10.2-12.4c2.1-0.6,4.4-1,6.7-1c0.5,0,1,0,1.4,0c9.9,0.6,18.1,7.6,21.6,17.2 c1.8,3,2.8,6.6,2.8,10.4c0,0.1,0,0.2,0,0.3l0,0.1c-0.1,3.2-0.9,6.3-2.3,9c-3.5,11.3-13.1,19.3-24.1,19.3 C79,78,73.3,72.8,69.9,65.8c0-0.1-0.1-0.1-0.2-0.1h-17l-0.2,0.1l0,0.2c1,2.8,2.2,5.4,3.6,7.8l-5.6,8.7c0.2,0,0.5,0,0.8,0 c1,0.1,2.2,0.1,3.5,0.2c1.6,0.1,3.1,0.2,4.1,0.2l4.5-8l0,0c0,0,0-0.1,0-0.1c0,0,0-0.1,0-0.1c-0.1-0.1-0.1-0.2-0.2-0.3 c-0.1-0.1-0.1-0.2-0.2-0.3l0,0c-0.3-0.5-0.6-0.9-0.9-1.4c-0.3-0.6-0.7-1.3-1-1.9c0-0.1-0.1-0.1-0.1-0.2 c-0.7-1.4-1.3-2.9-1.8-4.4h3.8l0,0.1c2.5,6.2,6.4,11.5,11.4,15.2c4.9,3.7,10.9,5.9,17.2,5.9c8.7,0,16.6-4.1,22.3-10.6 c5.7-6.5,9.2-15.6,9.2-25.5c0-9.9-3.5-19-9.2-25.5C108.1,19.1,100.3,15,91.5,15c-6.5,0-12.5,2.3-17.5,6.1 c-5,3.9-8.9,9.3-11.4,15.7l0,0.1h-4.3l-6.6-5.8l-7.1,1l-0.9,0.1l0,0.1l0,0l0,0l5,5l0.2,0.1h20.1C69.3,37.4,69.3,37.3,69.4,37.2z M64.7,36.9c2.3-5.8,6-10.8,10.5-14.3c4.7-3.6,10.3-5.7,16.4-5.7c8.1,0,15.5,3.8,20.9,10c5.4,6.2,8.7,14.8,8.7,24.3 c0,9.5-3.3,18.1-8.7,24.3c-5.4,6.2-12.7,10-20.9,10c-5.9,0-11.5-2-16.1-5.5c-4.5-3.4-8.1-8.2-10.5-13.8h4.6 c3.4,7.1,9.2,12.4,16,14.6l0,0c0,0,0,0,0,0c1.1,0.3,2.2,0.6,3.3,0.8c0,0,0.1,0,0.1,0c0.5,0.1,1.1,0.1,1.6,0.2c0.4,0,0.7,0,1.1,0 c0.2,0,0.4,0,0.7,0c0,0,0,0,0,0c0.2,0,0.4,0,0.6,0c14.1-0.4,25.2-13.9,25.2-30.3c0-0.3,0-0.7,0-1v0c0-0.1,0-0.2,0-0.3 c0-0.4,0-0.8-0.1-1.2c0-0.1,0-0.2,0-0.3c0-0.4-0.1-0.8-0.1-1.2c0,0,0-0.1,0-0.1c-1.8-15.1-12.8-26.7-26-26.7c-0.2,0-0.5,0-0.7,0 c0,0,0,0,0,0c0,0,0,0,0,0c-0.6,0-1.2,0.1-1.8,0.1c-0.1,0-0.1,0-0.2,0c-3,0.3-5.6,1.2-8.1,2.6c-0.1,0-0.2,0.1-0.2,0.1 c-0.3,0.2-0.7,0.4-1,0.6c-0.2,0.1-0.4,0.2-0.5,0.3c0,0,0,0,0,0c0,0,0,0,0,0c-4.4,2.9-8,7.3-10.4,12.5H64.7z"></path> <path class="st1" d="M81.3,89.6L81.3,89.6C81.3,89.6,81.3,89.6,81.3,89.6c0-0.1,0-0.1,0-0.1c0,0,0,0,0,0c0,0,0,0,0,0 c0,0,0,0-0.1,0c-2.8-1-5.5-2.4-8-4.2c0,0-0.1,0-0.1,0c0,0-0.1,0-0.1,0.1c0,0,0,0,0,0l0,0l0,0l0,0c0,0,0,0,0,0c0,0,0,0,0,0 c0,0,0,0,0,0l-7.4,6l-6.5-7.9c-1.9-0.1-6.6-0.4-8.6-0.5l7.3,8.4l0.2,0.1l7.6,0.4c0.1,0,0.1,0,0.1,0c0,0,0,0,0,0l4.7-3.9 c0.8,0.5,1.7,0.9,2.6,1.3l0.5,10.4l7.6,0.6L81.3,89.6z"></path> <path class="st1" d="M55.5,21l9.3,3.6c0,0,0,0,0,0c0,0,0,0,0,0c0,0,0,0,0,0c0,0,0,0,0,0l0,0l0,0c0,0,0,0,0,0c0,0,0.1,0,0.1,0 c0,0,0.1,0,0.1-0.1c0.5-0.7,1.1-1.3,1.6-2c1.7-1.9,3.5-3.6,5.5-5.1c0,0,0,0,0,0l0,0l0,0c0,0,0,0,0,0c0,0,0-0.1,0-0.1l0,0 l-2.7-9.6C66.8,8,62.5,8.5,62,8.5l-0.1,0l0,0L61,8.6l0,0l2.7,10.6c-1.1,1-2.2,2.1-3.2,3.2l-5-1.9c0,0,0,0-0.1,0l0,0l-6.9,0.7 c-0.1,0-0.2,0.1-0.2,0.1l-4.4,10.4l7.9-1.1L55.5,21z"></path> <path class="st1" d="M132.4,39.3c0-0.1-0.1-0.2-0.2-0.2l-7.8-0.6c-0.9-3-2.1-5.9-3.5-8.6l4.7-7.5l0-0.3l-6.4-8.3c0,0,0,0,0,0 c0,0,0,0,0,0c0,0,0,0,0,0l0,0l0,0l0,0c0,0,0,0,0,0c0,0,0,0-0.1,0c0,0,0,0,0,0h0c0,0,0,0,0,0c0,0,0,0,0,0l-7.7,0.4l-0.1,0.1 l-2.4,2c-1.1-0.7-2.2-1.4-3.4-2l-0.3-10.8c0-0.1-0.1-0.2-0.2-0.2l-9.5-2.4l0,0l0,0l-7.6,1c-0.1,0-0.2,0.1-0.2,0.2l-2.8,8.9 c-0.2,0-0.4,0-0.7,0c-0.2,0-0.5,0-0.7,0L78,2.6c0,0,0,0,0,0c0,0,0,0-0.1-0.1c0,0,0,0-0.1,0c0,0,0,0-0.1,0l-8,1.2l-0.1,0 l-8.3,4.3l5.3-0.6L69,7.3l1-0.1L77.7,3l5.6,8.9c0,0,0,0,0,0c0,0,0,0,0,0l0,0l0,0c0.1,0.1,0.1,0.1,0.2,0.1 c2.1-0.5,4.2-0.8,6.4-0.9c0.3,0,0.6,0,0.8,0c0.8,0,1.6,0,2.4,0.1c0.1,0,0.2-0.1,0.2-0.2c0,0,0,0,0,0l1.9-9.7l9.1,2.3l0.3,10.7 l0,0c0,0.1,0,0.2,0.1,0.2c1.2,0.6,2.5,1.4,3.6,2.2c0.6,0.4,1.2,0.8,1.7,1.2c0,0,0,0,0,0c0.5,0.4,1.1,0.8,1.6,1.3 c0,0,0.1,0,0.1,0.1c0.1,0.1,0.2,0.1,0.3,0l6.6-5.1l6.2,8l-4.7,7.4l0,0.2c1.5,2.7,2.7,5.6,3.6,8.7c0,0.1,0.1,0.2,0.2,0.2l7.8,0.6 l1.1,10.3l-7.2,3.1c-0.1,0-0.1,0.1-0.1,0.2c-0.1,3.3-0.6,6.6-1.4,9.6l0.1,0.2l6.2,5.7l-3.9,9.4l-7.4-3c0,0-0.1,0-0.1,0 c0,0-0.1,0-0.1,0c-0.1,0-0.1,0-0.1,0.1c0,0,0,0,0,0c-0.3,0.5-0.7,1-1,1.5c-0.3,0.4-0.6,0.8-0.9,1.2l0,0c-1.2,1.6-2.6,3.1-4,4.5 l-0.1,0.2l2.7,10.1l-8,4.8l-4.5-8.5c0,0,0,0,0,0c0-0.1-0.1-0.1-0.1-0.1c0,0,0,0-0.1,0c0,0-0.1,0-0.1,0c0,0,0,0,0,0v0 c0,0-0.1,0-0.1,0c-0.6,0.3-1.3,0.5-1.9,0.7c-0.6,0.2-1.2,0.4-1.8,0.5c-0.1,0-0.1,0-0.2,0.1c-1.4,0.3-2.8,0.6-4.2,0.8v0 c-0.2,0-0.3,0.1-0.5,0.1c-0.1,0-0.2,0.1-0.2,0.2l0,0l-3.3,10.5l-9.6-0.9l-7.7-0.7l0,0.2c0,0.1,0.1,0.2,0.2,0.2l7.1,0.6l10.1,1 c0.1,0,0.2-0.1,0.2-0.2l3.3-10.5c0.1,0,0.2,0,0.2,0l5.1,6.7l0.2,0.1l7.8-0.2l0,0l0.1,0l8.4-5c0.1-0.1,0.1-0.2,0.1-0.3l-2.7-10.2 c1.4-1.3,2.7-2.8,3.9-4.3l1.9,0.6l0.1,0l7.5-0.2c0,0,0,0,0,0c0,0,0,0,0.1,0c0,0,0.1,0,0.1-0.1c0,0,0,0,0,0l4.1-9.7 c0-0.1,0-0.2-0.1-0.3l-6.2-5.8c0.8-3,1.2-6.2,1.4-9.4l7.2-3.1c0.1,0,0.2-0.1,0.1-0.2L132.4,39.3z"></path> </g> </g> </g> </g> <g id="Logo_x5F_secondaire_x5F_vertical_x5F_CMJN"> </g> <g id="Logo_x5F_primaire_x5F_horizontal_x5F_CMJN"> </g> <g id="Logo_x5F_primaire_x5F_vertical_x5F_CMJN"> </g> <g id="informations"> </g> </svg> 