<?xml version="1.0" encoding="UTF-8"?> <svg xmlns="http://www.w3.org/2000/svg" xmlns:xlink="http://www.w3.org/1999/xlink" version="1.1" id="Calque_1" x="0px" y="0px" viewBox="0 0 500 500" style="enable-background:new 0 0 500 500;" xml:space="preserve"> <style type="text/css"> .st0{fill:#333333;} </style> <g> <path class="st0" d="M375.3,401.3c-1.3,0-2.5-0.3-3.5-1c-1.4-0.8-2.7-2-3.6-3.7l-4.8-9.3c-2.9-5-2.3-11.5-2.1-12.6 c0-0.4-0.1-0.6-0.1-0.8l-6.6,1.6c-1.6,0.1-3.1-0.6-4.1-2L82.8,214.4v-68.4c0.1-12.8,4.4-23.3,12.7-31.3 c18.5-17.8,50.3-17,51.7-16.9l0.5,0L417,257.1l0.2-0.2c0.7,0.7,1.1,1.5,1.1,2.4c0,1.1-0.6,1.9-1.2,2.4l-4.8,4.1 c0.6,1.3,0.8,2.8,0.6,4.5c-0.2,1.8-1.1,3.7-2.6,5.3L394.1,294l-0.1,66.4c-0.2,4.5-3.7,8.3-8.2,9l-11,2c-3.4,1.1-3.1,4.6-3.1,5 l0,0.2c0,0.2,0,0.4,0.1,0.7l0,0.2c0.4,2.1,1.2,4.1,2.3,5.8l2.8,4.6c0.4,0.4,0.8,0.8,1,1l0.1,0.1c0,0,0.1,0,0.2,0l0.9-0.5 c1.6-0.7,3.2-0.5,4.5,0.3c2.8,1.9,4,3.9,3.6,6c-0.9,4.2-8.2,5.8-10.4,6.2C376.3,401.3,375.8,401.3,375.3,401.3z M361.3,369.9 c1.5,0,2.8,0.8,3.4,2.1l0.1,0.2c0.3,0.6,0.5,1.5,0.5,2.7l0,0.3c0,0.1-0.8,6.2,1.6,10.3l0.1,0.1l4.8,9.3c0.5,0.9,1.2,1.6,2,2.1 c0.7,0.4,1.5,0.5,2.3,0.4c3.7-0.7,7-2.3,7.2-3.1c0,0-0.1-0.7-1.9-1.9c-0.1-0.1-0.3-0.1-0.5,0l-0.9,0.4c-1.5,0.7-3.2,0.5-4.5-0.5 c-0.5-0.4-1-0.9-1.6-1.5l-0.2-0.2l-3-5c-1.3-2.1-2.2-4.5-2.8-7.1l0-0.2c-0.1-0.4-0.2-0.8-0.2-1.4c-0.3-2.5,0.7-7.6,6-9.2l0.2-0.1 l11.2-2.1c2.7-0.4,4.7-2.6,4.8-5.2v-0.1l0.1-66.5c0-0.7,0.3-1.5,0.8-2l16.3-18.6c0.9-1,1.5-2.1,1.6-3.1c0.2-1.3,0-2.2-0.6-2.9 c-0.3-0.4-0.5-0.9-0.5-1.5c0-0.6,0.2-1.2,0.7-1.6l0.1-0.1l3.8-3.2c-9.3,0.1-35.1,2.2-49.6,21.2c-5.3,6.9-8.1,15.5-8.3,24.8 l-1.1,62.6c0,0.7,0.1,1.3,0.4,1.8c0.1,0.1,0.3,0.5,0.6,0.6l6.2-1.5C360.7,369.9,361,369.9,361.3,369.9z M86.8,212.1l262.4,156 l1.1-61.6c0.2-10.1,3.4-19.5,9.1-27.1c13.8-18.2,37.1-22,48.9-22.7l-261.9-155c-4.1,0-32.2,0.4-48.3,15.9 c-7.5,7.2-11.4,16.8-11.5,28.4V212.1z"></path> <path class="st0" d="M360.9,365c-1.2,0-2.2-0.8-2.5-2l-0.1-0.3l2.2-61.9c0.4-10.8,5.8-20.7,14.5-26.4c4.5-3,8-3.9,8.9-4.1 c0.7-0.2,1.4-0.1,2,0.3c0.6,0.4,1,1.2,1,2v83.7c0,1.3-0.8,2.4-2.1,2.7l-23.2,5.9C361.3,365,361.1,365,360.9,365z M382.8,274.8 c-1.4,0.5-3.4,1.4-5.6,2.9c-7.6,5-12.4,13.7-12.7,23.2l-2.1,59.6l20.5-5.2V274.8z M383.8,355.2 C383.8,355.2,383.8,355.2,383.8,355.2L383.8,355.2z"></path> <path class="st0" d="M392.3,287.3c-0.3,0-0.6-0.1-0.9-0.2c-0.9-0.4-1.5-1.2-1.5-2.2v-18.3c0-1.1,0.7-2.1,1.8-2.5l0.2-0.1l8.6-1.8 c1.5-0.4,3.1-0.2,4.5,0.4c2.2,1.1,2.9,2.7,3.1,3.9c0.6,4.3-4.1,11.1-14.2,20C393.5,287.1,392.9,287.3,392.3,287.3z M394,267.8v13.5 c7.9-7.5,10.5-12.2,10.2-14c0-0.3-0.1-0.6-0.8-0.9c-0.6-0.3-1.2-0.3-1.9-0.1L394,267.8z"></path> <path class="st0" d="M370,398.6L104.4,242.5c-1.3-0.8-2.3-1.9-2.8-3.2L93.6,220l3.7-1.5l8.1,19.3c0.2,0.6,0.6,1,1.2,1.3L372,395.1 L370,398.6z"></path> <rect x="370.9" y="337.4" transform="matrix(0.4528 -0.8916 0.8916 0.4528 -108.6486 524.3817)" class="st0" width="4" height="26.6"></rect> <rect x="375" y="380" transform="matrix(0.5715 -0.8206 0.8206 0.5715 -155.5741 474.9175)" class="st0" width="4" height="12.8"></rect> </g> </svg> 